<svg xmlns="http://www.w3.org/2000/svg" xmlns:xlink="http://www.w3.org/1999/xlink" width="1720" zoomAndPan="magnify" viewBox="0 0 1290 675.000002" height="900" preserveAspectRatio="xMidYMid meet" version="1.0"><defs><clipPath id="2f3d970b69"><path d="M 146.625 135.140625 L 1143.375 135.140625 L 1143.375 538.859375 L 146.625 538.859375 Z M 146.625 135.140625 " clip-rule="nonzero"/></clipPath><clipPath id="d8791d0625"><path d="M 182.1875 135.140625 L 1107.8125 135.140625 C 1117.246094 135.140625 1126.289062 138.886719 1132.960938 145.558594 C 1139.628906 152.226562 1143.375 161.273438 1143.375 170.703125 L 1143.375 503.296875 C 1143.375 512.730469 1139.628906 521.773438 1132.960938 528.445312 C 1126.289062 535.113281 1117.246094 538.859375 1107.8125 538.859375 L 182.1875 538.859375 C 172.753906 538.859375 163.710938 535.113281 157.039062 528.445312 C 150.371094 521.773438 146.625 512.730469 146.625 503.296875 L 146.625 170.703125 C 146.625 161.273438 150.371094 152.226562 157.039062 145.558594 C 163.710938 138.886719 172.753906 135.140625 182.1875 135.140625 Z M 182.1875 135.140625 " clip-rule="nonzero"/></clipPath><clipPath id="70f63737d0"><path d="M 1063.277344 376.660156 L 1093.234375 376.660156 L 1093.234375 393.136719 L 1063.277344 393.136719 Z M 1063.277344 376.660156 " clip-rule="nonzero"/></clipPath><clipPath id="6a5612e325"><path d="M 1063.277344 474.351562 L 1093.234375 474.351562 L 1093.234375 490.828125 L 1063.277344 490.828125 Z M 1063.277344 474.351562 " clip-rule="nonzero"/></clipPath><clipPath id="76bddb9d15"><path d="M 1063.335938 181.972656 L 1093.292969 181.972656 L 1093.292969 198.449219 L 1063.335938 198.449219 Z M 1063.335938 181.972656 " clip-rule="nonzero"/></clipPath></defs><g clip-path="url(#2f3d970b69)"><g clip-path="url(#d8791d0625)"><path fill="#f2f2f2" d="M 146.625 135.140625 L 1143.375 135.140625 L 1143.375 538.859375 L 146.625 538.859375 Z M 146.625 135.140625 " fill-opacity="1" fill-rule="nonzero"/></g></g><path stroke-linecap="butt" transform="matrix(0.74889, 0.00112533, -0.00112533, 0.74889, 146.625673, 334.005185)" fill="none" stroke-linejoin="miter" d="M 0.00210884 2.001255 L 1330.972579 1.999009 " stroke="#a6a6a6" stroke-width="4" stroke-opacity="1" stroke-miterlimit="4"/><path stroke-linecap="butt" transform="matrix(0.74889, 0.00112533, -0.00112533, 0.74889, 146.627925, 431.665826)" fill="none" stroke-linejoin="miter" d="M -0.000900134 2.000611 L 1330.974786 1.998357 " stroke="#a6a6a6" stroke-width="4" stroke-opacity="1" stroke-miterlimit="4"/><g clip-path="url(#70f63737d0)"><path fill="#545454" d="M 1079.460938 392.804688 L 1092.644531 379.617188 C 1093.289062 378.972656 1093.289062 377.929688 1092.644531 377.285156 C 1092 376.660156 1090.976562 376.660156 1090.332031 377.285156 L 1078.292969 389.324219 L 1066.257812 377.285156 C 1065.613281 376.660156 1064.570312 376.660156 1063.925781 377.285156 C 1063.28125 377.929688 1063.28125 378.972656 1063.925781 379.617188 L 1077.128906 392.820312 C 1077.773438 393.464844 1078.816406 393.464844 1079.460938 392.804688 Z M 1079.460938 392.804688 " fill-opacity="1" fill-rule="evenodd"/></g><g clip-path="url(#6a5612e325)"><path fill="#545454" d="M 1079.460938 490.496094 L 1092.644531 477.308594 C 1093.289062 476.667969 1093.289062 475.621094 1092.644531 474.980469 C 1092 474.351562 1090.976562 474.351562 1090.332031 474.980469 L 1078.292969 487.015625 L 1066.257812 474.980469 C 1065.613281 474.351562 1064.570312 474.351562 1063.925781 474.980469 C 1063.28125 475.621094 1063.28125 476.667969 1063.925781 477.308594 L 1077.128906 490.511719 C 1077.773438 491.15625 1078.816406 491.15625 1079.460938 490.496094 Z M 1079.460938 490.496094 " fill-opacity="1" fill-rule="evenodd"/></g><g clip-path="url(#76bddb9d15)"><path fill="#545454" d="M 1077.109375 182.304688 L 1063.925781 195.492188 C 1063.28125 196.132812 1063.28125 197.179688 1063.925781 197.820312 C 1064.570312 198.449219 1065.597656 198.449219 1066.238281 197.820312 L 1078.277344 185.785156 L 1090.3125 197.820312 C 1090.957031 198.449219 1092 198.449219 1092.644531 197.820312 C 1093.289062 197.179688 1093.289062 196.132812 1092.644531 195.492188 L 1079.441406 182.289062 C 1078.796875 181.644531 1077.753906 181.644531 1077.109375 182.304688 Z M 1077.109375 182.304688 " fill-opacity="1" fill-rule="evenodd"/></g><path stroke-linecap="round" transform="matrix(0.748891, 0, 0, 0.748891, 183.683423, 178.816862)" fill="none" stroke-linejoin="miter" d="M 15.001587 15.000751 L 600.998677 15.000751 " stroke="#0097b2" stroke-width="30" stroke-opacity="1" stroke-miterlimit="4"/><path stroke-linecap="round" transform="matrix(0.748891, 0, 0, 0.748891, 183.683423, 253.321507)" fill="none" stroke-linejoin="miter" d="M 7.500907 7.499084 L 1040.753386 7.499084 " stroke="#a6a6a6" stroke-width="15" stroke-opacity="1" stroke-miterlimit="4"/><path stroke-linecap="round" transform="matrix(0.748884, 0.00309082, -0.00309082, 0.748884, 183.706606, 288.151379)" fill="none" stroke-linejoin="miter" d="M 7.500978 7.50237 L 608.504551 7.499529 " stroke="#a6a6a6" stroke-width="15" stroke-opacity="1" stroke-miterlimit="4"/><path stroke-linecap="round" transform="matrix(0.748891, 0, 0, 0.748891, 183.683423, 373.833288)" fill="none" stroke-linejoin="miter" d="M 15.001587 14.99968 L 351.864501 14.99968 " stroke="#0097b2" stroke-width="30" stroke-opacity="1" stroke-miterlimit="4"/><path stroke-linecap="round" transform="matrix(0.748891, 0, 0, 0.748891, 183.66024, 471.525062)" fill="none" stroke-linejoin="miter" d="M 15.001247 14.999189 L 878.121836 14.999189 " stroke="#0097b2" stroke-width="30" stroke-opacity="1" stroke-miterlimit="4"/></svg>