<svg xmlns="http://www.w3.org/2000/svg" xmlns:xlink="http://www.w3.org/1999/xlink" width="1720" zoomAndPan="magnify" viewBox="0 0 1290 675.000002" height="900" preserveAspectRatio="xMidYMid meet" version="1.0"><defs><clipPath id="2308de83b8"><path d="M 146.625 135.140625 L 1143.375 135.140625 L 1143.375 538.859375 L 146.625 538.859375 Z M 146.625 135.140625 " clip-rule="nonzero"/></clipPath><clipPath id="f1ef9eddd7"><path d="M 182.1875 135.140625 L 1107.8125 135.140625 C 1117.246094 135.140625 1126.289062 138.886719 1132.960938 145.558594 C 1139.628906 152.226562 1143.375 161.273438 1143.375 170.703125 L 1143.375 503.296875 C 1143.375 512.730469 1139.628906 521.773438 1132.960938 528.445312 C 1126.289062 535.113281 1117.246094 538.859375 1107.8125 538.859375 L 182.1875 538.859375 C 172.753906 538.859375 163.710938 535.113281 157.039062 528.445312 C 150.371094 521.773438 146.625 512.730469 146.625 503.296875 L 146.625 170.703125 C 146.625 161.273438 150.371094 152.226562 157.039062 145.558594 C 163.710938 138.886719 172.753906 135.140625 182.1875 135.140625 Z M 182.1875 135.140625 " clip-rule="nonzero"/></clipPath><clipPath id="f3b9d91571"><path d="M 192.03125 196.511719 L 275.90625 196.511719 L 275.90625 280.390625 L 192.03125 280.390625 Z M 192.03125 196.511719 " clip-rule="nonzero"/></clipPath></defs><g clip-path="url(#2308de83b8)"><g clip-path="url(#f1ef9eddd7)"><path fill="#f2f2f2" d="M 146.625 135.140625 L 1143.375 135.140625 L 1143.375 538.859375 L 146.625 538.859375 Z M 146.625 135.140625 " fill-opacity="1" fill-rule="nonzero"/></g></g><g clip-path="url(#f3b9d91571)"><path fill="#0097b2" d="M 275.871094 238.433594 C 275.871094 239.808594 275.804688 241.175781 275.667969 242.542969 C 275.535156 243.910156 275.332031 245.265625 275.066406 246.613281 C 274.796875 247.957031 274.464844 249.289062 274.066406 250.601562 C 273.667969 251.917969 273.207031 253.207031 272.679688 254.476562 C 272.15625 255.746094 271.566406 256.984375 270.921875 258.195312 C 270.273438 259.40625 269.570312 260.582031 268.804688 261.722656 C 268.042969 262.863281 267.226562 263.964844 266.355469 265.027344 C 265.484375 266.089844 264.5625 267.105469 263.59375 268.074219 C 262.621094 269.046875 261.605469 269.96875 260.542969 270.839844 C 259.484375 271.710938 258.382812 272.527344 257.238281 273.289062 C 256.097656 274.050781 254.921875 274.757812 253.710938 275.40625 C 252.5 276.050781 251.261719 276.636719 249.992188 277.164062 C 248.722656 277.6875 247.433594 278.152344 246.121094 278.550781 C 244.804688 278.949219 243.476562 279.28125 242.128906 279.546875 C 240.78125 279.816406 239.425781 280.019531 238.058594 280.152344 C 236.691406 280.285156 235.324219 280.355469 233.949219 280.355469 C 232.578125 280.355469 231.207031 280.285156 229.839844 280.152344 C 228.476562 280.019531 227.117188 279.816406 225.773438 279.546875 C 224.425781 279.28125 223.09375 278.949219 221.78125 278.550781 C 220.46875 278.152344 219.175781 277.6875 217.910156 277.164062 C 216.640625 276.636719 215.398438 276.050781 214.191406 275.40625 C 212.980469 274.757812 211.800781 274.050781 210.660156 273.289062 C 209.519531 272.527344 208.417969 271.710938 207.355469 270.839844 C 206.296875 269.96875 205.277344 269.046875 204.308594 268.074219 C 203.335938 267.105469 202.417969 266.089844 201.546875 265.027344 C 200.675781 263.964844 199.859375 262.863281 199.09375 261.722656 C 198.332031 260.582031 197.628906 259.40625 196.980469 258.195312 C 196.332031 256.984375 195.746094 255.746094 195.222656 254.476562 C 194.695312 253.207031 194.234375 251.917969 193.835938 250.601562 C 193.4375 249.289062 193.105469 247.957031 192.835938 246.613281 C 192.566406 245.265625 192.367188 243.910156 192.230469 242.542969 C 192.097656 241.175781 192.03125 239.808594 192.03125 238.433594 C 192.03125 237.0625 192.097656 235.691406 192.230469 234.324219 C 192.367188 232.957031 192.566406 231.601562 192.835938 230.253906 C 193.105469 228.910156 193.4375 227.578125 193.835938 226.265625 C 194.234375 224.953125 194.695312 223.660156 195.222656 222.390625 C 195.746094 221.125 196.332031 219.882812 196.980469 218.671875 C 197.628906 217.460938 198.332031 216.285156 199.09375 215.144531 C 199.859375 214.003906 200.675781 212.902344 201.546875 211.839844 C 202.417969 210.777344 203.335938 209.761719 204.308594 208.792969 C 205.277344 207.820312 206.296875 206.898438 207.355469 206.027344 C 208.417969 205.15625 209.519531 204.339844 210.660156 203.578125 C 211.800781 202.816406 212.980469 202.109375 214.191406 201.464844 C 215.398438 200.816406 216.640625 200.230469 217.910156 199.703125 C 219.175781 199.179688 220.46875 198.71875 221.78125 198.320312 C 223.09375 197.921875 224.425781 197.585938 225.773438 197.320312 C 227.117188 197.050781 228.476562 196.851562 229.839844 196.714844 C 231.207031 196.582031 232.578125 196.511719 233.949219 196.511719 C 235.324219 196.511719 236.691406 196.582031 238.058594 196.714844 C 239.425781 196.851562 240.78125 197.050781 242.128906 197.320312 C 243.476562 197.585938 244.804688 197.921875 246.121094 198.320312 C 247.433594 198.71875 248.722656 199.179688 249.992188 199.703125 C 251.261719 200.230469 252.5 200.816406 253.710938 201.464844 C 254.921875 202.109375 256.097656 202.816406 257.238281 203.578125 C 258.382812 204.339844 259.484375 205.15625 260.542969 206.027344 C 261.605469 206.898438 262.621094 207.820312 263.59375 208.792969 C 264.5625 209.761719 265.484375 210.777344 266.355469 211.839844 C 267.226562 212.902344 268.042969 214.003906 268.804688 215.144531 C 269.570312 216.285156 270.273438 217.460938 270.921875 218.671875 C 271.566406 219.882812 272.15625 221.125 272.679688 222.390625 C 273.207031 223.660156 273.667969 224.953125 274.066406 226.265625 C 274.464844 227.578125 274.796875 228.910156 275.066406 230.253906 C 275.332031 231.601562 275.535156 232.957031 275.667969 234.324219 C 275.804688 235.691406 275.871094 237.0625 275.871094 238.433594 Z M 275.871094 238.433594 " fill-opacity="1" fill-rule="nonzero"/></g><path fill="#f2f2f2" d="M 256.96875 230.515625 C 259.210938 228.269531 259.210938 224.632812 256.964844 222.386719 C 254.71875 220.144531 251.082031 220.144531 248.839844 222.390625 L 228.949219 242.289062 L 219.023438 232.359375 C 216.777344 230.117188 213.140625 230.117188 210.894531 232.359375 C 208.652344 234.601562 208.652344 238.242188 210.894531 240.484375 L 224.886719 254.480469 C 225.964844 255.554688 227.429688 256.160156 228.953125 256.160156 C 230.476562 256.160156 231.9375 255.554688 233.015625 254.476562 Z M 256.96875 230.515625 " fill-opacity="1" fill-rule="nonzero"/><path stroke-linecap="round" transform="matrix(0.748891, 0, 0, 0.748891, 308.576829, 204.002473)" fill="none" stroke-linejoin="miter" d="M 11.998644 11.998827 L 1007.99288 11.998827 " stroke="#545454" stroke-width="24" stroke-opacity="1" stroke-miterlimit="4"/><path stroke-linecap="round" transform="matrix(0.748891, 0, 0, 0.748891, 308.576829, 258.136756)" fill="none" stroke-linejoin="miter" d="M 11.998644 12.002081 L 244.931771 12.002081 " stroke="#545454" stroke-width="24" stroke-opacity="1" stroke-miterlimit="4"/><path stroke-linecap="round" transform="matrix(0.748891, 0, 0, 0.748891, 543.256524, 258.327693)" fill="none" stroke-linejoin="miter" d="M 11.998634 11.997491 L 163.326665 11.997491 " stroke="#545454" stroke-width="24" stroke-opacity="1" stroke-miterlimit="4"/><path stroke-linecap="round" transform="matrix(0.748891, 0, 0, 0.748891, 717.062962, 258.327693)" fill="none" stroke-linejoin="miter" d="M 12.001513 11.997491 L 341.947945 11.997491 " stroke="#545454" stroke-width="24" stroke-opacity="1" stroke-miterlimit="4"/><path stroke-linecap="round" transform="matrix(0.748891, 0, 0, 0.748891, 233.955783, 338.029214)" fill="none" stroke-linejoin="miter" d="M 11.99858 11.999633 L 814.02358 11.999633 " stroke="#a6a6a6" stroke-width="24" stroke-opacity="1" stroke-miterlimit="4"/><path stroke-linecap="round" transform="matrix(0.74889, 0.00039571, -0.00039571, 0.74889, 891.827142, 337.933787)" fill="none" stroke-linejoin="miter" d="M 11.999354 12.000749 L 229.180045 12.000745 " stroke="#a6a6a6" stroke-width="24" stroke-opacity="1" stroke-miterlimit="4"/><path stroke-linecap="round" transform="matrix(0.748884, -0.00312308, 0.00312308, 0.748884, 233.880823, 398.956166)" fill="none" stroke-linejoin="miter" d="M 12.001788 12.001281 L 597.644063 12.002456 " stroke="#a6a6a6" stroke-width="24" stroke-opacity="1" stroke-miterlimit="4"/><path stroke-linecap="round" transform="matrix(0.748891, 0, 0, 0.748891, 233.918296, 474.835446)" fill="none" stroke-linejoin="miter" d="M 12.001693 11.997571 L 292.818155 11.997571 " stroke="#0097b2" stroke-width="24" stroke-opacity="1" stroke-miterlimit="4"/><path stroke-linecap="round" transform="matrix(0.748891, 0, 0, 0.748891, 500.989839, 474.835446)" fill="none" stroke-linejoin="miter" d="M 12.00005 11.997571 L 292.821727 11.997571 " stroke="#a6a6a6" stroke-width="24" stroke-opacity="1" stroke-miterlimit="4"/></svg>