<svg xmlns="http://www.w3.org/2000/svg" xmlns:xlink="http://www.w3.org/1999/xlink" width="1720" zoomAndPan="magnify" viewBox="0 0 1290 675.000002" height="900" preserveAspectRatio="xMidYMid meet" version="1.0"><defs><clipPath id="3449bfce62"><path d="M 457.839844 149.839844 L 832.285156 149.839844 L 832.285156 524.285156 L 457.839844 524.285156 Z M 457.839844 149.839844 " clip-rule="nonzero"/></clipPath><clipPath id="cfd30a6ebc"><path d="M 505 368 L 785 368 L 785 524.285156 L 505 524.285156 Z M 505 368 " clip-rule="nonzero"/></clipPath></defs><g clip-path="url(#3449bfce62)"><path fill="#0097b2" d="M 832.175781 337.007812 C 832.175781 384.890625 814.207031 428.5625 784.617188 461.660156 C 750.351562 500.027344 700.503906 524.171875 645.011719 524.171875 C 589.515625 524.171875 539.652344 500.027344 505.402344 461.660156 C 475.8125 428.5625 457.847656 384.890625 457.847656 337.007812 C 457.847656 233.644531 541.632812 149.84375 645.011719 149.84375 C 748.371094 149.84375 832.175781 233.644531 832.175781 337.007812 " fill-opacity="1" fill-rule="nonzero"/></g><path fill="#f2f2f2" d="M 645.011719 371.484375 C 678.929688 371.484375 709.828125 333.105469 709.828125 290.964844 C 709.828125 251.148438 702.128906 211.777344 645.011719 211.777344 C 587.886719 211.777344 580.183594 251.148438 580.183594 290.964844 C 580.183594 333.105469 611.082031 371.484375 645.011719 371.484375 " fill-opacity="1" fill-rule="nonzero"/><g clip-path="url(#cfd30a6ebc)"><path fill="#f2f2f2" d="M 784.617188 461.660156 C 750.351562 500.027344 700.503906 524.171875 645.011719 524.171875 C 589.515625 524.171875 539.652344 500.027344 505.402344 461.660156 C 504.808594 438.542969 520.203125 384.984375 598.71875 368.5 C 612.148438 382.207031 628.679688 389.957031 645.011719 389.957031 C 661.339844 389.957031 677.859375 382.207031 691.285156 368.5 C 769.816406 384.984375 785.195312 438.542969 784.617188 461.660156 " fill-opacity="1" fill-rule="nonzero"/></g></svg>