<svg xmlns="http://www.w3.org/2000/svg" xmlns:xlink="http://www.w3.org/1999/xlink" width="1720" zoomAndPan="magnify" viewBox="0 0 1290 675.000002" height="900" preserveAspectRatio="xMidYMid meet" version="1.0"><defs><clipPath id="75cd73209a"><path d="M 173.578125 251.132812 L 1116.421875 251.132812 L 1116.421875 422.871094 L 173.578125 422.871094 Z M 173.578125 251.132812 " clip-rule="nonzero"/></clipPath><clipPath id="4feb0bb090"><path d="M 205.03125 251.132812 L 1084.96875 251.132812 C 1102.339844 251.132812 1116.421875 265.214844 1116.421875 282.585938 L 1116.421875 391.414062 C 1116.421875 408.789062 1102.339844 422.871094 1084.96875 422.871094 L 205.03125 422.871094 C 187.660156 422.871094 173.578125 408.789062 173.578125 391.414062 L 173.578125 282.585938 C 173.578125 265.214844 187.660156 251.132812 205.03125 251.132812 Z M 205.03125 251.132812 " clip-rule="nonzero"/></clipPath><clipPath id="a2edb7e314"><path d="M 222 293.539062 L 310 293.539062 L 310 380.410156 L 222 380.410156 Z M 222 293.539062 " clip-rule="nonzero"/></clipPath><clipPath id="7288eb4ae5"><path d="M 360.597656 319.101562 L 380.820312 319.101562 L 380.820312 355 L 360.597656 355 Z M 360.597656 319.101562 " clip-rule="nonzero"/></clipPath><clipPath id="801c284f76"><path d="M 717.050781 319.101562 L 737.273438 319.101562 L 737.273438 355 L 717.050781 355 Z M 717.050781 319.101562 " clip-rule="nonzero"/></clipPath></defs><g clip-path="url(#75cd73209a)"><g clip-path="url(#4feb0bb090)"><path fill="#f2f2f2" d="M 173.578125 251.132812 L 1116.421875 251.132812 L 1116.421875 422.871094 L 173.578125 422.871094 Z M 173.578125 251.132812 " fill-opacity="1" fill-rule="nonzero"/></g></g><g clip-path="url(#a2edb7e314)"><path fill="#545454" d="M 308.253906 328.382812 L 299.886719 321.261719 L 281.15625 305.300781 L 269.027344 294.980469 C 268.617188 294.632812 268.15625 294.363281 267.652344 294.179688 C 267.144531 293.996094 266.625 293.902344 266.085938 293.902344 C 265.546875 293.902344 265.023438 293.996094 264.519531 294.179688 C 264.011719 294.363281 263.554688 294.632812 263.144531 294.980469 L 251.015625 305.300781 L 232.273438 321.261719 L 223.902344 328.382812 C 221.679688 330.285156 223.050781 333.871094 226.019531 333.871094 L 232.273438 333.871094 L 232.273438 376.3125 C 232.273438 378.601562 234.179688 380.453125 236.527344 380.453125 L 258.199219 380.453125 L 258.199219 361.652344 C 258.199219 361.328125 258.230469 361.007812 258.292969 360.691406 C 258.355469 360.375 258.445312 360.066406 258.570312 359.769531 C 258.695312 359.46875 258.84375 359.1875 259.023438 358.917969 C 259.203125 358.648438 259.40625 358.402344 259.636719 358.171875 C 259.863281 357.945312 260.113281 357.738281 260.378906 357.558594 C 260.648438 357.378906 260.933594 357.230469 261.230469 357.105469 C 261.527344 356.980469 261.835938 356.886719 262.152344 356.824219 C 262.46875 356.761719 262.789062 356.730469 263.113281 356.730469 L 269.058594 356.730469 C 269.382812 356.730469 269.703125 356.761719 270.019531 356.824219 C 270.335938 356.886719 270.644531 356.980469 270.941406 357.105469 C 271.242188 357.226562 271.523438 357.378906 271.792969 357.558594 C 272.0625 357.738281 272.3125 357.941406 272.539062 358.171875 C 272.765625 358.398438 272.972656 358.648438 273.152344 358.917969 C 273.332031 359.183594 273.480469 359.46875 273.605469 359.765625 C 273.730469 360.066406 273.820312 360.375 273.886719 360.691406 C 273.949219 361.007812 273.980469 361.328125 273.980469 361.652344 L 273.980469 380.453125 L 295.628906 380.453125 C 297.980469 380.453125 299.882812 378.601562 299.882812 376.3125 L 299.882812 333.871094 L 306.140625 333.871094 C 309.109375 333.871094 310.480469 330.285156 308.253906 328.382812 Z M 308.253906 328.382812 " fill-opacity="1" fill-rule="nonzero"/></g><g clip-path="url(#7288eb4ae5)"><path fill="#a6a6a6" d="M 380.019531 335.585938 L 364.160156 319.726562 C 363.382812 318.949219 362.128906 318.949219 361.355469 319.726562 C 360.601562 320.5 360.601562 321.734375 361.355469 322.507812 L 375.835938 336.988281 L 361.355469 351.472656 C 360.601562 352.246094 360.601562 353.5 361.355469 354.273438 C 362.128906 355.050781 363.382812 355.050781 364.160156 354.273438 L 380.042969 338.390625 C 380.816406 337.617188 380.816406 336.363281 380.019531 335.585938 Z M 380.019531 335.585938 " fill-opacity="1" fill-rule="evenodd"/></g><path stroke-linecap="round" transform="matrix(0.748891, 0, 0, 0.748891, 427.49303, 329.511842)" fill="none" stroke-linejoin="miter" d="M 9.998042 9.999003 L 309.654875 9.999003 " stroke="#000000" stroke-width="20" stroke-opacity="1" stroke-miterlimit="4"/><g clip-path="url(#801c284f76)"><path fill="#a6a6a6" d="M 736.472656 335.585938 L 720.613281 319.726562 C 719.835938 318.949219 718.582031 318.949219 717.808594 319.726562 C 717.054688 320.5 717.054688 321.734375 717.808594 322.507812 L 732.289062 336.988281 L 717.808594 351.472656 C 717.054688 352.246094 717.054688 353.5 717.808594 354.273438 C 718.582031 355.050781 719.835938 355.050781 720.613281 354.273438 L 736.496094 338.390625 C 737.269531 337.617188 737.269531 336.363281 736.472656 335.585938 Z M 736.472656 335.585938 " fill-opacity="1" fill-rule="evenodd"/></g><path stroke-linecap="round" transform="matrix(0.748891, 0, 0, 0.748891, 784.698008, 329.511842)" fill="none" stroke-linejoin="miter" d="M 10.000784 9.999003 L 366.731631 9.999003 " stroke="#0097b2" stroke-width="20" stroke-opacity="1" stroke-miterlimit="4"/></svg>