<svg xmlns="http://www.w3.org/2000/svg" xmlns:xlink="http://www.w3.org/1999/xlink" width="1720" zoomAndPan="magnify" viewBox="0 0 1290 675.000002" height="900" preserveAspectRatio="xMidYMid meet" version="1.0"><defs><g/><clipPath id="a87c03062b"><path d="M 270.570312 251.132812 L 1019.429688 251.132812 L 1019.429688 422.871094 L 270.570312 422.871094 Z M 270.570312 251.132812 " clip-rule="nonzero"/></clipPath><clipPath id="5fbe96a88f"><path d="M 302.023438 251.132812 L 987.976562 251.132812 C 1005.347656 251.132812 1019.429688 265.214844 1019.429688 282.585938 L 1019.429688 391.414062 C 1019.429688 408.789062 1005.347656 422.871094 987.976562 422.871094 L 302.023438 422.871094 C 284.652344 422.871094 270.570312 408.789062 270.570312 391.414062 L 270.570312 282.585938 C 270.570312 265.214844 284.652344 251.132812 302.023438 251.132812 Z M 302.023438 251.132812 " clip-rule="nonzero"/></clipPath></defs><g clip-path="url(#a87c03062b)"><g clip-path="url(#5fbe96a88f)"><path fill="#737373" d="M 270.570312 251.132812 L 1019.429688 251.132812 L 1019.429688 422.871094 L 270.570312 422.871094 Z M 270.570312 251.132812 " fill-opacity="1" fill-rule="nonzero"/></g></g><g fill="#f2f2f2" fill-opacity="1"><g transform="translate(421.084061, 379.163282)"><g><path d="M 60.90625 -45.3125 C 68.5625 -40.894531 72.390625 -34.238281 72.390625 -25.34375 C 72.390625 -17.9375 69.769531 -11.859375 64.53125 -7.109375 C 59.289062 -2.367188 52.84375 0 45.1875 0 L 8.109375 0 L 8.109375 -87.375 L 42.5625 -87.375 C 50.050781 -87.375 56.351562 -85.0625 61.46875 -80.4375 C 66.582031 -75.820312 69.140625 -69.9375 69.140625 -62.78125 C 69.140625 -55.539062 66.394531 -49.71875 60.90625 -45.3125 Z M 42.5625 -71.265625 L 25.34375 -71.265625 L 25.34375 -52.046875 L 42.5625 -52.046875 C 45.226562 -52.046875 47.453125 -52.957031 49.234375 -54.78125 C 51.023438 -56.613281 51.921875 -58.90625 51.921875 -61.65625 C 51.921875 -64.40625 51.046875 -66.691406 49.296875 -68.515625 C 47.554688 -70.347656 45.3125 -71.265625 42.5625 -71.265625 Z M 45.1875 -16.09375 C 48.09375 -16.09375 50.503906 -17.070312 52.421875 -19.03125 C 54.335938 -20.988281 55.296875 -23.460938 55.296875 -26.453125 C 55.296875 -29.367188 54.335938 -31.800781 52.421875 -33.75 C 50.503906 -35.707031 48.09375 -36.6875 45.1875 -36.6875 L 25.34375 -36.6875 L 25.34375 -16.09375 Z M 45.1875 -16.09375 "/></g></g></g><g fill="#f2f2f2" fill-opacity="1"><g transform="translate(496.592475, 379.163282)"><g><path d="M 48.546875 -62.40625 L 64.65625 -62.40625 L 64.65625 0 L 48.546875 0 L 48.546875 -6.984375 C 44.640625 -1.160156 38.441406 1.75 29.953125 1.75 C 23.128906 1.75 17.488281 -0.535156 13.03125 -5.109375 C 8.582031 -9.691406 6.359375 -16.019531 6.359375 -24.09375 L 6.359375 -62.40625 L 22.46875 -62.40625 L 22.46875 -26.078125 C 22.46875 -21.921875 23.585938 -18.738281 25.828125 -16.53125 C 28.078125 -14.332031 31.078125 -13.234375 34.828125 -13.234375 C 38.984375 -13.234375 42.304688 -14.519531 44.796875 -17.09375 C 47.296875 -19.675781 48.546875 -23.546875 48.546875 -28.703125 Z M 48.546875 -62.40625 "/></g></g></g><g fill="#f2f2f2" fill-opacity="1"><g transform="translate(568.60628, 379.163282)"><g><path d="M 43.0625 -46.921875 L 28.953125 -46.921875 L 28.953125 -20.96875 C 28.953125 -18.800781 29.492188 -17.21875 30.578125 -16.21875 C 31.660156 -15.226562 33.238281 -14.671875 35.3125 -14.546875 C 37.394531 -14.421875 39.976562 -14.441406 43.0625 -14.609375 L 43.0625 0 C 31.988281 1.25 24.1875 0.210938 19.65625 -3.109375 C 15.125 -6.441406 12.859375 -12.394531 12.859375 -20.96875 L 12.859375 -46.921875 L 2 -46.921875 L 2 -62.40625 L 12.859375 -62.40625 L 12.859375 -75.015625 L 28.953125 -79.875 L 28.953125 -62.40625 L 43.0625 -62.40625 Z M 43.0625 -46.921875 "/></g></g></g><g fill="#f2f2f2" fill-opacity="1"><g transform="translate(616.657086, 379.163282)"><g><path d="M 43.0625 -46.921875 L 28.953125 -46.921875 L 28.953125 -20.96875 C 28.953125 -18.800781 29.492188 -17.21875 30.578125 -16.21875 C 31.660156 -15.226562 33.238281 -14.671875 35.3125 -14.546875 C 37.394531 -14.421875 39.976562 -14.441406 43.0625 -14.609375 L 43.0625 0 C 31.988281 1.25 24.1875 0.210938 19.65625 -3.109375 C 15.125 -6.441406 12.859375 -12.394531 12.859375 -20.96875 L 12.859375 -46.921875 L 2 -46.921875 L 2 -62.40625 L 12.859375 -62.40625 L 12.859375 -75.015625 L 28.953125 -79.875 L 28.953125 -62.40625 L 43.0625 -62.40625 Z M 43.0625 -46.921875 "/></g></g></g><g fill="#f2f2f2" fill-opacity="1"><g transform="translate(664.707892, 379.163282)"><g><path d="M 60.53125 -7.796875 C 54.125 -1.429688 46.300781 1.75 37.0625 1.75 C 27.832031 1.75 20.035156 -1.429688 13.671875 -7.796875 C 7.304688 -14.160156 4.125 -21.960938 4.125 -31.203125 C 4.125 -40.441406 7.304688 -48.242188 13.671875 -54.609375 C 20.035156 -60.972656 27.832031 -64.15625 37.0625 -64.15625 C 46.300781 -64.15625 54.125 -60.972656 60.53125 -54.609375 C 66.9375 -48.242188 70.140625 -40.441406 70.140625 -31.203125 C 70.140625 -21.960938 66.9375 -14.160156 60.53125 -7.796875 Z M 25.015625 -18.84375 C 28.222656 -15.601562 32.238281 -13.984375 37.0625 -13.984375 C 41.894531 -13.984375 45.929688 -15.601562 49.171875 -18.84375 C 52.421875 -22.09375 54.046875 -26.210938 54.046875 -31.203125 C 54.046875 -36.191406 52.421875 -40.304688 49.171875 -43.546875 C 45.929688 -46.796875 41.894531 -48.421875 37.0625 -48.421875 C 32.238281 -48.421875 28.222656 -46.796875 25.015625 -43.546875 C 21.816406 -40.304688 20.21875 -36.191406 20.21875 -31.203125 C 20.21875 -26.210938 21.816406 -22.09375 25.015625 -18.84375 Z M 25.015625 -18.84375 "/></g></g></g><g fill="#f2f2f2" fill-opacity="1"><g transform="translate(738.843413, 379.163282)"><g><path d="M 42.0625 -64.15625 C 48.882812 -64.15625 54.519531 -61.863281 58.96875 -57.28125 C 63.425781 -52.707031 65.65625 -46.382812 65.65625 -38.3125 L 65.65625 0 L 49.546875 0 L 49.546875 -36.328125 C 49.546875 -40.484375 48.421875 -43.660156 46.171875 -45.859375 C 43.929688 -48.066406 40.9375 -49.171875 37.1875 -49.171875 C 33.03125 -49.171875 29.703125 -47.878906 27.203125 -45.296875 C 24.710938 -42.722656 23.46875 -38.859375 23.46875 -33.703125 L 23.46875 0 L 7.359375 0 L 7.359375 -62.40625 L 23.46875 -62.40625 L 23.46875 -55.421875 C 27.375 -61.242188 33.570312 -64.15625 42.0625 -64.15625 Z M 42.0625 -64.15625 "/></g></g></g><g fill="#f2f2f2" fill-opacity="1"><g transform="translate(810.857207, 379.163282)"><g><path d="M 22.21875 -44.6875 C 22.21875 -43.019531 23.316406 -41.664062 25.515625 -40.625 C 27.722656 -39.582031 30.40625 -38.664062 33.5625 -37.875 C 36.726562 -37.082031 39.890625 -36.082031 43.046875 -34.875 C 46.210938 -33.675781 48.898438 -31.660156 51.109375 -28.828125 C 53.316406 -26.003906 54.421875 -22.46875 54.421875 -18.21875 C 54.421875 -11.8125 52.023438 -6.878906 47.234375 -3.421875 C 42.453125 0.0234375 36.484375 1.75 29.328125 1.75 C 16.515625 1.75 7.78125 -3.203125 3.125 -13.109375 L 17.09375 -20.96875 C 18.925781 -15.5625 23.003906 -12.859375 29.328125 -12.859375 C 35.066406 -12.859375 37.9375 -14.644531 37.9375 -18.21875 C 37.9375 -19.882812 36.832031 -21.238281 34.625 -22.28125 C 32.425781 -23.320312 29.742188 -24.253906 26.578125 -25.078125 C 23.421875 -25.910156 20.257812 -26.953125 17.09375 -28.203125 C 13.9375 -29.453125 11.253906 -31.425781 9.046875 -34.125 C 6.835938 -36.832031 5.734375 -40.226562 5.734375 -44.3125 C 5.734375 -50.46875 8 -55.3125 12.53125 -58.84375 C 17.070312 -62.382812 22.710938 -64.15625 29.453125 -64.15625 C 34.523438 -64.15625 39.140625 -63.007812 43.296875 -60.71875 C 47.460938 -58.425781 50.753906 -55.160156 53.171875 -50.921875 L 39.4375 -43.4375 C 37.4375 -47.675781 34.109375 -49.796875 29.453125 -49.796875 C 27.367188 -49.796875 25.640625 -49.335938 24.265625 -48.421875 C 22.898438 -47.503906 22.21875 -46.257812 22.21875 -44.6875 Z M 22.21875 -44.6875 "/></g></g></g></svg>