<svg xmlns="http://www.w3.org/2000/svg" xmlns:xlink="http://www.w3.org/1999/xlink" width="1720" zoomAndPan="magnify" viewBox="0 0 1290 675.000002" height="900" preserveAspectRatio="xMidYMid meet" version="1.0"><defs><g/><clipPath id="3e3c19f550"><path d="M 94.527344 235.890625 L 1187.730469 235.890625 L 1187.730469 438.089844 L 94.527344 438.089844 Z M 94.527344 235.890625 " clip-rule="nonzero"/></clipPath><clipPath id="c4b1a250c2"><path d="M 124.480469 235.890625 L 1157.773438 235.890625 C 1165.71875 235.890625 1173.335938 239.046875 1178.957031 244.664062 C 1184.574219 250.28125 1187.730469 257.902344 1187.730469 265.847656 L 1187.730469 408.136719 C 1187.730469 416.082031 1184.574219 423.699219 1178.957031 429.316406 C 1173.335938 434.9375 1165.71875 438.089844 1157.773438 438.089844 L 124.480469 438.089844 C 116.535156 438.089844 108.917969 434.9375 103.300781 429.316406 C 97.683594 423.699219 94.527344 416.082031 94.527344 408.136719 L 94.527344 265.847656 C 94.527344 257.902344 97.683594 250.28125 103.300781 244.664062 C 108.917969 239.046875 116.535156 235.890625 124.480469 235.890625 Z M 124.480469 235.890625 " clip-rule="nonzero"/></clipPath></defs><g clip-path="url(#3e3c19f550)"><g clip-path="url(#c4b1a250c2)"><path fill="#f2f2f2" d="M 94.527344 235.890625 L 1187.730469 235.890625 L 1187.730469 438.089844 L 94.527344 438.089844 Z M 94.527344 235.890625 " fill-opacity="1" fill-rule="nonzero"/></g></g><path stroke-linecap="butt" transform="matrix(-0.00231226, 0.748887, -0.748887, -0.00231226, 449.30192, 235.891782)" fill="none" stroke-linejoin="miter" d="M -0.000587468 1.999279 L 269.999069 2.0002 " stroke="#a6a6a6" stroke-width="4" stroke-opacity="1" stroke-miterlimit="4"/><path stroke-linecap="butt" transform="matrix(-0.00231226, 0.748887, -0.748887, -0.00231226, 844.316953, 235.891782)" fill="none" stroke-linejoin="miter" d="M -0.000589908 1.998488 L 269.999066 1.99941 " stroke="#a6a6a6" stroke-width="4" stroke-opacity="1" stroke-miterlimit="4"/><g fill="#000000" fill-opacity="1"><g transform="translate(178.277867, 356.4719)"><g><path d="M 29.234375 -21.75 C 32.910156 -19.632812 34.75 -16.4375 34.75 -12.15625 C 34.75 -8.601562 33.488281 -5.6875 30.96875 -3.40625 C 28.457031 -1.132812 25.363281 0 21.6875 0 L 3.890625 0 L 3.890625 -41.9375 L 20.421875 -41.9375 C 24.015625 -41.9375 27.039062 -40.828125 29.5 -38.609375 C 31.957031 -36.390625 33.1875 -33.566406 33.1875 -30.140625 C 33.1875 -26.660156 31.867188 -23.863281 29.234375 -21.75 Z M 20.421875 -34.203125 L 12.15625 -34.203125 L 12.15625 -24.984375 L 20.421875 -24.984375 C 21.703125 -24.984375 22.769531 -25.421875 23.625 -26.296875 C 24.488281 -27.171875 24.921875 -28.269531 24.921875 -29.59375 C 24.921875 -30.914062 24.5 -32.015625 23.65625 -32.890625 C 22.820312 -33.765625 21.742188 -34.203125 20.421875 -34.203125 Z M 21.6875 -7.734375 C 23.082031 -7.734375 24.238281 -8.203125 25.15625 -9.140625 C 26.070312 -10.078125 26.53125 -11.265625 26.53125 -12.703125 C 26.53125 -14.097656 26.070312 -15.265625 25.15625 -16.203125 C 24.238281 -17.140625 23.082031 -17.609375 21.6875 -17.609375 L 12.15625 -17.609375 L 12.15625 -7.734375 Z M 21.6875 -7.734375 "/></g></g></g><g fill="#000000" fill-opacity="1"><g transform="translate(214.524128, 356.4719)"><g><path d="M 23.296875 -29.953125 L 31.03125 -29.953125 L 31.03125 0 L 23.296875 0 L 23.296875 -3.359375 C 21.421875 -0.554688 18.445312 0.84375 14.375 0.84375 C 11.101562 0.84375 8.398438 -0.253906 6.265625 -2.453125 C 4.128906 -4.648438 3.0625 -7.6875 3.0625 -11.5625 L 3.0625 -29.953125 L 10.78125 -29.953125 L 10.78125 -12.515625 C 10.78125 -10.523438 11.316406 -9 12.390625 -7.9375 C 13.472656 -6.875 14.914062 -6.34375 16.71875 -6.34375 C 18.707031 -6.34375 20.300781 -6.960938 21.5 -8.203125 C 22.695312 -9.441406 23.296875 -11.300781 23.296875 -13.78125 Z M 23.296875 -29.953125 "/></g></g></g><g fill="#000000" fill-opacity="1"><g transform="translate(249.092882, 356.4719)"><g><path d="M 20.671875 -22.53125 L 13.890625 -22.53125 L 13.890625 -10.0625 C 13.890625 -9.019531 14.148438 -8.257812 14.671875 -7.78125 C 15.191406 -7.300781 15.953125 -7.03125 16.953125 -6.96875 C 17.953125 -6.914062 19.191406 -6.929688 20.671875 -7.015625 L 20.671875 0 C 15.359375 0.601562 11.613281 0.109375 9.4375 -1.484375 C 7.257812 -3.085938 6.171875 -5.945312 6.171875 -10.0625 L 6.171875 -22.53125 L 0.953125 -22.53125 L 0.953125 -29.953125 L 6.171875 -29.953125 L 6.171875 -36 L 13.890625 -38.34375 L 13.890625 -29.953125 L 20.671875 -29.953125 Z M 20.671875 -22.53125 "/></g></g></g><g fill="#000000" fill-opacity="1"><g transform="translate(272.15869, 356.4719)"><g><path d="M 20.671875 -22.53125 L 13.890625 -22.53125 L 13.890625 -10.0625 C 13.890625 -9.019531 14.148438 -8.257812 14.671875 -7.78125 C 15.191406 -7.300781 15.953125 -7.03125 16.953125 -6.96875 C 17.953125 -6.914062 19.191406 -6.929688 20.671875 -7.015625 L 20.671875 0 C 15.359375 0.601562 11.613281 0.109375 9.4375 -1.484375 C 7.257812 -3.085938 6.171875 -5.945312 6.171875 -10.0625 L 6.171875 -22.53125 L 0.953125 -22.53125 L 0.953125 -29.953125 L 6.171875 -29.953125 L 6.171875 -36 L 13.890625 -38.34375 L 13.890625 -29.953125 L 20.671875 -29.953125 Z M 20.671875 -22.53125 "/></g></g></g><g fill="#000000" fill-opacity="1"><g transform="translate(295.224497, 356.4719)"><g><path d="M 29.046875 -3.734375 C 25.972656 -0.679688 22.21875 0.84375 17.78125 0.84375 C 13.351562 0.84375 9.613281 -0.679688 6.5625 -3.734375 C 3.507812 -6.796875 1.984375 -10.539062 1.984375 -14.96875 C 1.984375 -19.40625 3.507812 -23.148438 6.5625 -26.203125 C 9.613281 -29.265625 13.351562 -30.796875 17.78125 -30.796875 C 22.21875 -30.796875 25.972656 -29.265625 29.046875 -26.203125 C 32.128906 -23.148438 33.671875 -19.40625 33.671875 -14.96875 C 33.671875 -10.539062 32.128906 -6.796875 29.046875 -3.734375 Z M 12 -9.03125 C 13.539062 -7.476562 15.46875 -6.703125 17.78125 -6.703125 C 20.101562 -6.703125 22.039062 -7.476562 23.59375 -9.03125 C 25.15625 -10.59375 25.9375 -12.570312 25.9375 -14.96875 C 25.9375 -17.375 25.15625 -19.351562 23.59375 -20.90625 C 22.039062 -22.46875 20.101562 -23.25 17.78125 -23.25 C 15.46875 -23.25 13.539062 -22.46875 12 -20.90625 C 10.46875 -19.351562 9.703125 -17.375 9.703125 -14.96875 C 9.703125 -12.570312 10.46875 -10.59375 12 -9.03125 Z M 12 -9.03125 "/></g></g></g><g fill="#000000" fill-opacity="1"><g transform="translate(330.811742, 356.4719)"><g><path d="M 20.1875 -30.796875 C 23.457031 -30.796875 26.160156 -29.695312 28.296875 -27.5 C 30.441406 -25.300781 31.515625 -22.265625 31.515625 -18.390625 L 31.515625 0 L 23.78125 0 L 23.78125 -17.4375 C 23.78125 -19.425781 23.238281 -20.953125 22.15625 -22.015625 C 21.082031 -23.078125 19.648438 -23.609375 17.859375 -23.609375 C 15.859375 -23.609375 14.257812 -22.988281 13.0625 -21.75 C 11.863281 -20.507812 11.265625 -18.648438 11.265625 -16.171875 L 11.265625 0 L 3.53125 0 L 3.53125 -29.953125 L 11.265625 -29.953125 L 11.265625 -26.59375 C 13.140625 -29.394531 16.113281 -30.796875 20.1875 -30.796875 Z M 20.1875 -30.796875 "/></g></g></g><g fill="#000000" fill-opacity="1"><g transform="translate(551.447158, 356.4719)"><g><path d="M 29.234375 -21.75 C 32.910156 -19.632812 34.75 -16.4375 34.75 -12.15625 C 34.75 -8.601562 33.488281 -5.6875 30.96875 -3.40625 C 28.457031 -1.132812 25.363281 0 21.6875 0 L 3.890625 0 L 3.890625 -41.9375 L 20.421875 -41.9375 C 24.015625 -41.9375 27.039062 -40.828125 29.5 -38.609375 C 31.957031 -36.390625 33.1875 -33.566406 33.1875 -30.140625 C 33.1875 -26.660156 31.867188 -23.863281 29.234375 -21.75 Z M 20.421875 -34.203125 L 12.15625 -34.203125 L 12.15625 -24.984375 L 20.421875 -24.984375 C 21.703125 -24.984375 22.769531 -25.421875 23.625 -26.296875 C 24.488281 -27.171875 24.921875 -28.269531 24.921875 -29.59375 C 24.921875 -30.914062 24.5 -32.015625 23.65625 -32.890625 C 22.820312 -33.765625 21.742188 -34.203125 20.421875 -34.203125 Z M 21.6875 -7.734375 C 23.082031 -7.734375 24.238281 -8.203125 25.15625 -9.140625 C 26.070312 -10.078125 26.53125 -11.265625 26.53125 -12.703125 C 26.53125 -14.097656 26.070312 -15.265625 25.15625 -16.203125 C 24.238281 -17.140625 23.082031 -17.609375 21.6875 -17.609375 L 12.15625 -17.609375 L 12.15625 -7.734375 Z M 21.6875 -7.734375 "/></g></g></g><g fill="#000000" fill-opacity="1"><g transform="translate(587.693419, 356.4719)"><g><path d="M 23.296875 -29.953125 L 31.03125 -29.953125 L 31.03125 0 L 23.296875 0 L 23.296875 -3.359375 C 21.421875 -0.554688 18.445312 0.84375 14.375 0.84375 C 11.101562 0.84375 8.398438 -0.253906 6.265625 -2.453125 C 4.128906 -4.648438 3.0625 -7.6875 3.0625 -11.5625 L 3.0625 -29.953125 L 10.78125 -29.953125 L 10.78125 -12.515625 C 10.78125 -10.523438 11.316406 -9 12.390625 -7.9375 C 13.472656 -6.875 14.914062 -6.34375 16.71875 -6.34375 C 18.707031 -6.34375 20.300781 -6.960938 21.5 -8.203125 C 22.695312 -9.441406 23.296875 -11.300781 23.296875 -13.78125 Z M 23.296875 -29.953125 "/></g></g></g><g fill="#000000" fill-opacity="1"><g transform="translate(622.262173, 356.4719)"><g><path d="M 20.671875 -22.53125 L 13.890625 -22.53125 L 13.890625 -10.0625 C 13.890625 -9.019531 14.148438 -8.257812 14.671875 -7.78125 C 15.191406 -7.300781 15.953125 -7.03125 16.953125 -6.96875 C 17.953125 -6.914062 19.191406 -6.929688 20.671875 -7.015625 L 20.671875 0 C 15.359375 0.601562 11.613281 0.109375 9.4375 -1.484375 C 7.257812 -3.085938 6.171875 -5.945312 6.171875 -10.0625 L 6.171875 -22.53125 L 0.953125 -22.53125 L 0.953125 -29.953125 L 6.171875 -29.953125 L 6.171875 -36 L 13.890625 -38.34375 L 13.890625 -29.953125 L 20.671875 -29.953125 Z M 20.671875 -22.53125 "/></g></g></g><g fill="#000000" fill-opacity="1"><g transform="translate(645.32798, 356.4719)"><g><path d="M 20.671875 -22.53125 L 13.890625 -22.53125 L 13.890625 -10.0625 C 13.890625 -9.019531 14.148438 -8.257812 14.671875 -7.78125 C 15.191406 -7.300781 15.953125 -7.03125 16.953125 -6.96875 C 17.953125 -6.914062 19.191406 -6.929688 20.671875 -7.015625 L 20.671875 0 C 15.359375 0.601562 11.613281 0.109375 9.4375 -1.484375 C 7.257812 -3.085938 6.171875 -5.945312 6.171875 -10.0625 L 6.171875 -22.53125 L 0.953125 -22.53125 L 0.953125 -29.953125 L 6.171875 -29.953125 L 6.171875 -36 L 13.890625 -38.34375 L 13.890625 -29.953125 L 20.671875 -29.953125 Z M 20.671875 -22.53125 "/></g></g></g><g fill="#000000" fill-opacity="1"><g transform="translate(668.393788, 356.4719)"><g><path d="M 29.046875 -3.734375 C 25.972656 -0.679688 22.21875 0.84375 17.78125 0.84375 C 13.351562 0.84375 9.613281 -0.679688 6.5625 -3.734375 C 3.507812 -6.796875 1.984375 -10.539062 1.984375 -14.96875 C 1.984375 -19.40625 3.507812 -23.148438 6.5625 -26.203125 C 9.613281 -29.265625 13.351562 -30.796875 17.78125 -30.796875 C 22.21875 -30.796875 25.972656 -29.265625 29.046875 -26.203125 C 32.128906 -23.148438 33.671875 -19.40625 33.671875 -14.96875 C 33.671875 -10.539062 32.128906 -6.796875 29.046875 -3.734375 Z M 12 -9.03125 C 13.539062 -7.476562 15.46875 -6.703125 17.78125 -6.703125 C 20.101562 -6.703125 22.039062 -7.476562 23.59375 -9.03125 C 25.15625 -10.59375 25.9375 -12.570312 25.9375 -14.96875 C 25.9375 -17.375 25.15625 -19.351562 23.59375 -20.90625 C 22.039062 -22.46875 20.101562 -23.25 17.78125 -23.25 C 15.46875 -23.25 13.539062 -22.46875 12 -20.90625 C 10.46875 -19.351562 9.703125 -17.375 9.703125 -14.96875 C 9.703125 -12.570312 10.46875 -10.59375 12 -9.03125 Z M 12 -9.03125 "/></g></g></g><g fill="#000000" fill-opacity="1"><g transform="translate(703.981033, 356.4719)"><g><path d="M 20.1875 -30.796875 C 23.457031 -30.796875 26.160156 -29.695312 28.296875 -27.5 C 30.441406 -25.300781 31.515625 -22.265625 31.515625 -18.390625 L 31.515625 0 L 23.78125 0 L 23.78125 -17.4375 C 23.78125 -19.425781 23.238281 -20.953125 22.15625 -22.015625 C 21.082031 -23.078125 19.648438 -23.609375 17.859375 -23.609375 C 15.859375 -23.609375 14.257812 -22.988281 13.0625 -21.75 C 11.863281 -20.507812 11.265625 -18.648438 11.265625 -16.171875 L 11.265625 0 L 3.53125 0 L 3.53125 -29.953125 L 11.265625 -29.953125 L 11.265625 -26.59375 C 13.140625 -29.394531 16.113281 -30.796875 20.1875 -30.796875 Z M 20.1875 -30.796875 "/></g></g></g><g fill="#000000" fill-opacity="1"><g transform="translate(924.448764, 356.458034)"><g><path d="M 29.234375 -21.75 C 32.910156 -19.632812 34.75 -16.4375 34.75 -12.15625 C 34.75 -8.601562 33.488281 -5.6875 30.96875 -3.40625 C 28.457031 -1.132812 25.363281 0 21.6875 0 L 3.890625 0 L 3.890625 -41.9375 L 20.421875 -41.9375 C 24.015625 -41.9375 27.039062 -40.828125 29.5 -38.609375 C 31.957031 -36.390625 33.1875 -33.566406 33.1875 -30.140625 C 33.1875 -26.660156 31.867188 -23.863281 29.234375 -21.75 Z M 20.421875 -34.203125 L 12.15625 -34.203125 L 12.15625 -24.984375 L 20.421875 -24.984375 C 21.703125 -24.984375 22.769531 -25.421875 23.625 -26.296875 C 24.488281 -27.171875 24.921875 -28.269531 24.921875 -29.59375 C 24.921875 -30.914062 24.5 -32.015625 23.65625 -32.890625 C 22.820312 -33.765625 21.742188 -34.203125 20.421875 -34.203125 Z M 21.6875 -7.734375 C 23.082031 -7.734375 24.238281 -8.203125 25.15625 -9.140625 C 26.070312 -10.078125 26.53125 -11.265625 26.53125 -12.703125 C 26.53125 -14.097656 26.070312 -15.265625 25.15625 -16.203125 C 24.238281 -17.140625 23.082031 -17.609375 21.6875 -17.609375 L 12.15625 -17.609375 L 12.15625 -7.734375 Z M 21.6875 -7.734375 "/></g></g></g><g fill="#000000" fill-opacity="1"><g transform="translate(960.695026, 356.458034)"><g><path d="M 23.296875 -29.953125 L 31.03125 -29.953125 L 31.03125 0 L 23.296875 0 L 23.296875 -3.359375 C 21.421875 -0.554688 18.445312 0.84375 14.375 0.84375 C 11.101562 0.84375 8.398438 -0.253906 6.265625 -2.453125 C 4.128906 -4.648438 3.0625 -7.6875 3.0625 -11.5625 L 3.0625 -29.953125 L 10.78125 -29.953125 L 10.78125 -12.515625 C 10.78125 -10.523438 11.316406 -9 12.390625 -7.9375 C 13.472656 -6.875 14.914062 -6.34375 16.71875 -6.34375 C 18.707031 -6.34375 20.300781 -6.960938 21.5 -8.203125 C 22.695312 -9.441406 23.296875 -11.300781 23.296875 -13.78125 Z M 23.296875 -29.953125 "/></g></g></g><g fill="#000000" fill-opacity="1"><g transform="translate(995.26378, 356.458034)"><g><path d="M 20.671875 -22.53125 L 13.890625 -22.53125 L 13.890625 -10.0625 C 13.890625 -9.019531 14.148438 -8.257812 14.671875 -7.78125 C 15.191406 -7.300781 15.953125 -7.03125 16.953125 -6.96875 C 17.953125 -6.914062 19.191406 -6.929688 20.671875 -7.015625 L 20.671875 0 C 15.359375 0.601562 11.613281 0.109375 9.4375 -1.484375 C 7.257812 -3.085938 6.171875 -5.945312 6.171875 -10.0625 L 6.171875 -22.53125 L 0.953125 -22.53125 L 0.953125 -29.953125 L 6.171875 -29.953125 L 6.171875 -36 L 13.890625 -38.34375 L 13.890625 -29.953125 L 20.671875 -29.953125 Z M 20.671875 -22.53125 "/></g></g></g><g fill="#000000" fill-opacity="1"><g transform="translate(1018.329587, 356.458034)"><g><path d="M 20.671875 -22.53125 L 13.890625 -22.53125 L 13.890625 -10.0625 C 13.890625 -9.019531 14.148438 -8.257812 14.671875 -7.78125 C 15.191406 -7.300781 15.953125 -7.03125 16.953125 -6.96875 C 17.953125 -6.914062 19.191406 -6.929688 20.671875 -7.015625 L 20.671875 0 C 15.359375 0.601562 11.613281 0.109375 9.4375 -1.484375 C 7.257812 -3.085938 6.171875 -5.945312 6.171875 -10.0625 L 6.171875 -22.53125 L 0.953125 -22.53125 L 0.953125 -29.953125 L 6.171875 -29.953125 L 6.171875 -36 L 13.890625 -38.34375 L 13.890625 -29.953125 L 20.671875 -29.953125 Z M 20.671875 -22.53125 "/></g></g></g><g fill="#000000" fill-opacity="1"><g transform="translate(1041.395394, 356.458034)"><g><path d="M 29.046875 -3.734375 C 25.972656 -0.679688 22.21875 0.84375 17.78125 0.84375 C 13.351562 0.84375 9.613281 -0.679688 6.5625 -3.734375 C 3.507812 -6.796875 1.984375 -10.539062 1.984375 -14.96875 C 1.984375 -19.40625 3.507812 -23.148438 6.5625 -26.203125 C 9.613281 -29.265625 13.351562 -30.796875 17.78125 -30.796875 C 22.21875 -30.796875 25.972656 -29.265625 29.046875 -26.203125 C 32.128906 -23.148438 33.671875 -19.40625 33.671875 -14.96875 C 33.671875 -10.539062 32.128906 -6.796875 29.046875 -3.734375 Z M 12 -9.03125 C 13.539062 -7.476562 15.46875 -6.703125 17.78125 -6.703125 C 20.101562 -6.703125 22.039062 -7.476562 23.59375 -9.03125 C 25.15625 -10.59375 25.9375 -12.570312 25.9375 -14.96875 C 25.9375 -17.375 25.15625 -19.351562 23.59375 -20.90625 C 22.039062 -22.46875 20.101562 -23.25 17.78125 -23.25 C 15.46875 -23.25 13.539062 -22.46875 12 -20.90625 C 10.46875 -19.351562 9.703125 -17.375 9.703125 -14.96875 C 9.703125 -12.570312 10.46875 -10.59375 12 -9.03125 Z M 12 -9.03125 "/></g></g></g><g fill="#000000" fill-opacity="1"><g transform="translate(1076.98264, 356.458034)"><g><path d="M 20.1875 -30.796875 C 23.457031 -30.796875 26.160156 -29.695312 28.296875 -27.5 C 30.441406 -25.300781 31.515625 -22.265625 31.515625 -18.390625 L 31.515625 0 L 23.78125 0 L 23.78125 -17.4375 C 23.78125 -19.425781 23.238281 -20.953125 22.15625 -22.015625 C 21.082031 -23.078125 19.648438 -23.609375 17.859375 -23.609375 C 15.859375 -23.609375 14.257812 -22.988281 13.0625 -21.75 C 11.863281 -20.507812 11.265625 -18.648438 11.265625 -16.171875 L 11.265625 0 L 3.53125 0 L 3.53125 -29.953125 L 11.265625 -29.953125 L 11.265625 -26.59375 C 13.140625 -29.394531 16.113281 -30.796875 20.1875 -30.796875 Z M 20.1875 -30.796875 "/></g></g></g></svg>