<svg xmlns="http://www.w3.org/2000/svg" xmlns:xlink="http://www.w3.org/1999/xlink" width="1720" zoomAndPan="magnify" viewBox="0 0 1290 675.000002" height="900" preserveAspectRatio="xMidYMid meet" version="1.0"><defs><clipPath id="1984d44c66"><path d="M 146.625 107.195312 L 1143.375 107.195312 L 1143.375 566.808594 L 146.625 566.808594 Z M 146.625 107.195312 " clip-rule="nonzero"/></clipPath><clipPath id="ed0e156b0d"><path d="M 184.066406 107.195312 L 1105.933594 107.195312 C 1126.613281 107.195312 1143.375 123.957031 1143.375 144.640625 L 1143.375 529.363281 C 1143.375 550.042969 1126.613281 566.808594 1105.933594 566.808594 L 184.066406 566.808594 C 163.386719 566.808594 146.625 550.042969 146.625 529.363281 L 146.625 144.640625 C 146.625 123.957031 163.386719 107.195312 184.066406 107.195312 Z M 184.066406 107.195312 " clip-rule="nonzero"/></clipPath></defs><g clip-path="url(#1984d44c66)"><g clip-path="url(#ed0e156b0d)"><path fill="#f2f2f2" d="M 146.625 107.195312 L 1143.375 107.195312 L 1143.375 566.808594 L 146.625 566.808594 Z M 146.625 107.195312 " fill-opacity="1" fill-rule="nonzero"/></g></g><path stroke-linecap="round" transform="matrix(0.748891, 0, 0, 0.748891, 183.683423, 158.3161)" fill="none" stroke-linejoin="miter" d="M 12.497883 12.498063 L 603.502381 12.498063 " stroke="#0097b2" stroke-width="25" stroke-opacity="1" stroke-miterlimit="4"/><path stroke-linecap="round" transform="matrix(0.748891, 0, 0, 0.748891, 183.683423, 203.176705)" fill="none" stroke-linejoin="miter" d="M 12.497883 12.501638 L 1169.845397 12.501638 " stroke="#737373" stroke-width="25" stroke-opacity="1" stroke-miterlimit="4"/><path stroke-linecap="round" transform="matrix(0.748891, 0, 0, 0.748891, 183.683423, 327.639615)" fill="none" stroke-linejoin="miter" d="M 12.497883 12.499003 L 691.304144 12.499003 " stroke="#a6a6a6" stroke-width="25" stroke-opacity="1" stroke-miterlimit="4"/><path stroke-linecap="round" transform="matrix(0.748891, -0.000000000000000093, 0.000000000000000093, 0.748891, 183.683423, 380.719805)" fill="none" stroke-linejoin="miter" d="M 12.497883 12.501463 L 906.440109 12.501463 " stroke="#a6a6a6" stroke-width="25" stroke-opacity="1" stroke-miterlimit="4"/><path stroke-linecap="round" transform="matrix(0.748891, -0.000000000000000186, 0.000000000000000186, 0.748891, 183.683423, 433.325176)" fill="none" stroke-linejoin="miter" d="M 12.497883 12.501593 L 498.138179 12.501593 " stroke="#a6a6a6" stroke-width="25" stroke-opacity="1" stroke-miterlimit="4"/><path stroke-linecap="round" transform="matrix(0.748891, 0, 0, 0.748891, 183.683423, 485.930552)" fill="none" stroke-linejoin="miter" d="M 12.497883 12.501716 L 1077.729961 12.501716 " stroke="#a6a6a6" stroke-width="25" stroke-opacity="1" stroke-miterlimit="4"/></svg>