<svg xmlns="http://www.w3.org/2000/svg" xmlns:xlink="http://www.w3.org/1999/xlink" width="1720" zoomAndPan="magnify" viewBox="0 0 1290 675.000002" height="900" preserveAspectRatio="xMidYMid meet" version="1.0"><defs><clipPath id="6d2a5c3c94"><path d="M 419.785156 94.523438 L 870.214844 94.523438 L 870.214844 178.363281 L 419.785156 178.363281 Z M 419.785156 94.523438 " clip-rule="nonzero"/></clipPath><clipPath id="00ad0dce2f"><path d="M 434.761719 94.523438 L 855.238281 94.523438 C 859.210938 94.523438 863.019531 96.101562 865.828125 98.910156 C 868.636719 101.71875 870.214844 105.527344 870.214844 109.5 L 870.214844 163.382812 C 870.214844 167.355469 868.636719 171.167969 865.828125 173.976562 C 863.019531 176.785156 859.210938 178.363281 855.238281 178.363281 L 434.761719 178.363281 C 430.789062 178.363281 426.980469 176.785156 424.171875 173.976562 C 421.363281 171.167969 419.785156 167.355469 419.785156 163.382812 L 419.785156 109.5 C 419.785156 105.527344 421.363281 101.71875 424.171875 98.910156 C 426.980469 96.101562 430.789062 94.523438 434.761719 94.523438 Z M 434.761719 94.523438 " clip-rule="nonzero"/></clipPath><clipPath id="61c622b3ba"><path d="M 805.277344 126.226562 L 841.972656 126.226562 L 841.972656 146.445312 L 805.277344 146.445312 Z M 805.277344 126.226562 " clip-rule="nonzero"/></clipPath><clipPath id="e9521f6024"><path d="M 419.785156 193.160156 L 870.214844 193.160156 L 870.214844 575.367188 L 419.785156 575.367188 Z M 419.785156 193.160156 " clip-rule="nonzero"/></clipPath><clipPath id="b38cb94b61"><path d="M 434.761719 193.160156 L 855.238281 193.160156 C 859.210938 193.160156 863.019531 194.738281 865.828125 197.546875 C 868.636719 200.355469 870.214844 204.164062 870.214844 208.136719 L 870.214844 560.390625 C 870.214844 564.363281 868.636719 568.171875 865.828125 570.980469 C 863.019531 573.789062 859.210938 575.367188 855.238281 575.367188 L 434.761719 575.367188 C 430.789062 575.367188 426.980469 573.789062 424.171875 570.980469 C 421.363281 568.171875 419.785156 564.363281 419.785156 560.390625 L 419.785156 208.136719 C 419.785156 204.164062 421.363281 200.355469 424.171875 197.546875 C 426.980469 194.738281 430.789062 193.160156 434.761719 193.160156 Z M 434.761719 193.160156 " clip-rule="nonzero"/></clipPath><clipPath id="393d973fb7"><path d="M 450.507812 213.550781 L 494.636719 213.550781 L 494.636719 257.679688 L 450.507812 257.679688 Z M 450.507812 213.550781 " clip-rule="nonzero"/></clipPath><clipPath id="f8a8e08040"><path d="M 472.574219 213.550781 C 460.386719 213.550781 450.507812 223.429688 450.507812 235.617188 C 450.507812 247.800781 460.386719 257.679688 472.574219 257.679688 C 484.757812 257.679688 494.636719 247.800781 494.636719 235.617188 C 494.636719 223.429688 484.757812 213.550781 472.574219 213.550781 Z M 472.574219 213.550781 " clip-rule="nonzero"/></clipPath><clipPath id="c3c93bce11"><path d="M 450.507812 289.128906 L 494.636719 289.128906 L 494.636719 333.261719 L 450.507812 333.261719 Z M 450.507812 289.128906 " clip-rule="nonzero"/></clipPath><clipPath id="fed2d74dc7"><path d="M 472.574219 289.128906 C 460.386719 289.128906 450.507812 299.007812 450.507812 311.195312 C 450.507812 323.382812 460.386719 333.261719 472.574219 333.261719 C 484.757812 333.261719 494.636719 323.382812 494.636719 311.195312 C 494.636719 299.007812 484.757812 289.128906 472.574219 289.128906 Z M 472.574219 289.128906 " clip-rule="nonzero"/></clipPath><clipPath id="8830bdd46c"><path d="M 450.507812 364.714844 L 494.636719 364.714844 L 494.636719 408.84375 L 450.507812 408.84375 Z M 450.507812 364.714844 " clip-rule="nonzero"/></clipPath><clipPath id="a9ce705742"><path d="M 472.574219 364.714844 C 460.386719 364.714844 450.507812 374.59375 450.507812 386.777344 C 450.507812 398.964844 460.386719 408.84375 472.574219 408.84375 C 484.757812 408.84375 494.636719 398.964844 494.636719 386.777344 C 494.636719 374.59375 484.757812 364.714844 472.574219 364.714844 Z M 472.574219 364.714844 " clip-rule="nonzero"/></clipPath><clipPath id="507ff77c27"><path d="M 450.507812 436.546875 L 494.636719 436.546875 L 494.636719 480.679688 L 450.507812 480.679688 Z M 450.507812 436.546875 " clip-rule="nonzero"/></clipPath><clipPath id="358bbd7cbe"><path d="M 472.574219 436.546875 C 460.386719 436.546875 450.507812 446.425781 450.507812 458.613281 C 450.507812 470.800781 460.386719 480.679688 472.574219 480.679688 C 484.757812 480.679688 494.636719 470.800781 494.636719 458.613281 C 494.636719 446.425781 484.757812 436.546875 472.574219 436.546875 Z M 472.574219 436.546875 " clip-rule="nonzero"/></clipPath><clipPath id="27b1a5b6b3"><path d="M 450.507812 508.386719 L 494.636719 508.386719 L 494.636719 552.519531 L 450.507812 552.519531 Z M 450.507812 508.386719 " clip-rule="nonzero"/></clipPath><clipPath id="dfd153da6c"><path d="M 472.574219 508.386719 C 460.386719 508.386719 450.507812 518.265625 450.507812 530.453125 C 450.507812 542.640625 460.386719 552.519531 472.574219 552.519531 C 484.757812 552.519531 494.636719 542.640625 494.636719 530.453125 C 494.636719 518.265625 484.757812 508.386719 472.574219 508.386719 Z M 472.574219 508.386719 " clip-rule="nonzero"/></clipPath></defs><g clip-path="url(#6d2a5c3c94)"><g clip-path="url(#00ad0dce2f)"><path fill="#0097b2" d="M 419.785156 94.523438 L 870.214844 94.523438 L 870.214844 178.363281 L 419.785156 178.363281 Z M 419.785156 94.523438 " fill-opacity="1" fill-rule="nonzero"/></g></g><path stroke-linecap="round" transform="matrix(0.748891, 0.000000000000000116, -0.000000000000000116, 0.748891, 450.507909, 128.953889)" fill="none" stroke-linejoin="miter" d="M 9.999038 9.998147 L 357.267971 9.998147 " stroke="#f2f2f2" stroke-width="20" stroke-opacity="1" stroke-miterlimit="4"/><g clip-path="url(#61c622b3ba)"><path fill="#f2f2f2" d="M 824.941406 145.851562 L 840.96875 129.824219 C 841.75 129.042969 841.75 127.773438 840.96875 126.992188 C 840.183594 126.230469 838.9375 126.230469 838.15625 126.992188 L 823.523438 141.621094 L 808.890625 126.992188 C 808.109375 126.230469 806.839844 126.230469 806.058594 126.992188 C 805.277344 127.773438 805.277344 129.042969 806.058594 129.824219 L 822.105469 145.871094 C 822.890625 146.65625 824.15625 146.65625 824.941406 145.851562 Z M 824.941406 145.851562 " fill-opacity="1" fill-rule="evenodd"/></g><g clip-path="url(#e9521f6024)"><g clip-path="url(#b38cb94b61)"><path fill="#f2f2f2" d="M 419.785156 193.160156 L 870.214844 193.160156 L 870.214844 575.367188 L 419.785156 575.367188 Z M 419.785156 193.160156 " fill-opacity="1" fill-rule="nonzero"/></g></g><g clip-path="url(#393d973fb7)"><g clip-path="url(#f8a8e08040)"><path fill="#a6a6a6" d="M 450.507812 213.550781 L 494.636719 213.550781 L 494.636719 257.679688 L 450.507812 257.679688 Z M 450.507812 213.550781 " fill-opacity="1" fill-rule="nonzero"/></g></g><g clip-path="url(#c3c93bce11)"><g clip-path="url(#fed2d74dc7)"><path fill="#a6a6a6" d="M 450.507812 289.128906 L 494.636719 289.128906 L 494.636719 333.261719 L 450.507812 333.261719 Z M 450.507812 289.128906 " fill-opacity="1" fill-rule="nonzero"/></g></g><g clip-path="url(#8830bdd46c)"><g clip-path="url(#a9ce705742)"><path fill="#a6a6a6" d="M 450.507812 364.714844 L 494.636719 364.714844 L 494.636719 408.84375 L 450.507812 408.84375 Z M 450.507812 364.714844 " fill-opacity="1" fill-rule="nonzero"/></g></g><g clip-path="url(#507ff77c27)"><g clip-path="url(#358bbd7cbe)"><path fill="#a6a6a6" d="M 450.507812 436.546875 L 494.636719 436.546875 L 494.636719 480.679688 L 450.507812 480.679688 Z M 450.507812 436.546875 " fill-opacity="1" fill-rule="nonzero"/></g></g><g clip-path="url(#27b1a5b6b3)"><g clip-path="url(#dfd153da6c)"><path fill="#a6a6a6" d="M 450.507812 508.386719 L 494.636719 508.386719 L 494.636719 552.519531 L 450.507812 552.519531 Z M 450.507812 508.386719 " fill-opacity="1" fill-rule="nonzero"/></g></g><path stroke-linecap="round" transform="matrix(0.748882, 0.00347983, -0.00347983, 0.748882, 519.428003, 229.250805)" fill="none" stroke-linejoin="miter" d="M 7.501354 7.501341 L 422.917223 7.500988 " stroke="#d9d9d9" stroke-width="15" stroke-opacity="1" stroke-miterlimit="4"/><path stroke-linecap="round" transform="matrix(0.748882, 0.00347983, -0.00347983, 0.748882, 519.428003, 304.83005)" fill="none" stroke-linejoin="miter" d="M 7.501347 7.499846 L 422.917217 7.499493 " stroke="#d9d9d9" stroke-width="15" stroke-opacity="1" stroke-miterlimit="4"/><path stroke-linecap="round" transform="matrix(0.748882, 0.00347983, -0.00347983, 0.748882, 519.428003, 380.413608)" fill="none" stroke-linejoin="miter" d="M 7.501337 7.497807 L 422.917207 7.497454 " stroke="#d9d9d9" stroke-width="15" stroke-opacity="1" stroke-miterlimit="4"/><path stroke-linecap="round" transform="matrix(0.748882, 0.00347983, -0.00347983, 0.748882, 519.428003, 452.248381)" fill="none" stroke-linejoin="miter" d="M 7.501344 7.499362 L 422.917214 7.499009 " stroke="#d9d9d9" stroke-width="15" stroke-opacity="1" stroke-miterlimit="4"/><path stroke-linecap="round" transform="matrix(0.748882, 0.00347983, -0.00347983, 0.748882, 519.428003, 524.087518)" fill="none" stroke-linejoin="miter" d="M 7.501349 7.500306 L 422.917219 7.499953 " stroke="#d9d9d9" stroke-width="15" stroke-opacity="1" stroke-miterlimit="4"/></svg>