<svg xmlns="http://www.w3.org/2000/svg" xmlns:xlink="http://www.w3.org/1999/xlink" width="1720" zoomAndPan="magnify" viewBox="0 0 1290 675.000002" height="900" preserveAspectRatio="xMidYMid meet" version="1.0"><defs><clipPath id="d4e42459fb"><path d="M 136.457031 67.398438 L 1153.542969 67.398438 L 1153.542969 606.601562 L 136.457031 606.601562 Z M 136.457031 67.398438 " clip-rule="nonzero"/></clipPath><clipPath id="6a5b22a8b8"><path d="M 167.910156 67.398438 L 1122.089844 67.398438 C 1139.460938 67.398438 1153.542969 81.480469 1153.542969 98.855469 L 1153.542969 575.148438 C 1153.542969 592.519531 1139.460938 606.601562 1122.089844 606.601562 L 167.910156 606.601562 C 150.539062 606.601562 136.457031 592.519531 136.457031 575.148438 L 136.457031 98.855469 C 136.457031 81.480469 150.539062 67.398438 167.910156 67.398438 Z M 167.910156 67.398438 " clip-rule="nonzero"/></clipPath><clipPath id="b6ea194cca"><path d="M 202.71875 154.210938 L 265.566406 154.210938 L 265.566406 217.054688 L 202.71875 217.054688 Z M 202.71875 154.210938 " clip-rule="nonzero"/></clipPath><clipPath id="a3e1b1fcb0"><path d="M 234.144531 154.210938 C 216.789062 154.210938 202.71875 168.277344 202.71875 185.632812 C 202.71875 202.988281 216.789062 217.054688 234.144531 217.054688 C 251.496094 217.054688 265.566406 202.988281 265.566406 185.632812 C 265.566406 168.277344 251.496094 154.210938 234.144531 154.210938 Z M 234.144531 154.210938 " clip-rule="nonzero"/></clipPath><clipPath id="5c48f7d38e"><path d="M 645.042969 473.160156 L 990 473.160156 L 990 516.597656 L 645.042969 516.597656 Z M 645.042969 473.160156 " clip-rule="nonzero"/></clipPath><clipPath id="d003468392"><path d="M 652.53125 473.160156 L 982.488281 473.160156 C 984.472656 473.160156 986.375 473.949219 987.78125 475.355469 C 989.183594 476.757812 989.972656 478.664062 989.972656 480.648438 L 989.972656 509.378906 C 989.972656 511.363281 989.183594 513.269531 987.78125 514.671875 C 986.375 516.078125 984.472656 516.867188 982.488281 516.867188 L 652.53125 516.867188 C 650.542969 516.867188 648.640625 516.078125 647.234375 514.671875 C 645.832031 513.269531 645.042969 511.363281 645.042969 509.378906 L 645.042969 480.648438 C 645.042969 478.664062 645.832031 476.757812 647.234375 475.355469 C 648.640625 473.949219 650.542969 473.160156 652.53125 473.160156 Z M 652.53125 473.160156 " clip-rule="nonzero"/></clipPath><clipPath id="318b7e0f9f"><path d="M 1005.84375 473.160156 L 1090.835938 473.160156 L 1090.835938 516.878906 L 1005.84375 516.878906 Z M 1005.84375 473.160156 " clip-rule="nonzero"/></clipPath><clipPath id="085ed6d9c7"><path d="M 1013.335938 473.160156 L 1083.34375 473.160156 C 1085.332031 473.160156 1087.234375 473.949219 1088.640625 475.355469 C 1090.046875 476.757812 1090.835938 478.664062 1090.835938 480.648438 L 1090.835938 509.386719 C 1090.835938 511.375 1090.046875 513.277344 1088.640625 514.683594 C 1087.234375 516.089844 1085.332031 516.878906 1083.34375 516.878906 L 1013.335938 516.878906 C 1011.347656 516.878906 1009.441406 516.089844 1008.039062 514.683594 C 1006.632812 513.277344 1005.84375 511.375 1005.84375 509.386719 L 1005.84375 480.648438 C 1005.84375 478.664062 1006.632812 476.757812 1008.039062 475.355469 C 1009.441406 473.949219 1011.347656 473.160156 1013.335938 473.160156 Z M 1013.335938 473.160156 " clip-rule="nonzero"/></clipPath></defs><g clip-path="url(#d4e42459fb)"><g clip-path="url(#6a5b22a8b8)"><path fill="#f2f2f2" d="M 136.457031 67.398438 L 1153.542969 67.398438 L 1153.542969 606.601562 L 136.457031 606.601562 Z M 136.457031 67.398438 " fill-opacity="1" fill-rule="nonzero"/></g></g><g clip-path="url(#b6ea194cca)"><g clip-path="url(#a3e1b1fcb0)"><path fill="#0097b2" d="M 202.71875 154.210938 L 265.566406 154.210938 L 265.566406 217.054688 L 202.71875 217.054688 Z M 202.71875 154.210938 " fill-opacity="1" fill-rule="nonzero"/></g></g><path stroke-linecap="round" transform="matrix(0.748891, 0, 0, 0.748891, 202.720569, 267.583306)" fill="none" stroke-linejoin="miter" d="M 4.999762 5.000489 L 127.61344 5.000489 " stroke="#0097b2" stroke-width="10" stroke-opacity="1" stroke-miterlimit="4"/><path stroke-linecap="round" transform="matrix(0.748891, 0, 0, 0.748891, 202.720569, 297.185133)" fill="none" stroke-linejoin="miter" d="M 4.999762 5.000136 L 183.22696 5.000136 " stroke="#0097b2" stroke-width="10" stroke-opacity="1" stroke-miterlimit="4"/><path stroke-linecap="butt" transform="matrix(0.748891, 0, 0, 0.748891, 136.456341, 428.80969)" fill="none" stroke-linejoin="miter" d="M 0.000921363 2.0015 L 1358.124616 2.0015 " stroke="#d9d9d9" stroke-width="4" stroke-opacity="1" stroke-miterlimit="4"/><path stroke-linecap="round" transform="matrix(0.748891, 0.000000000000001015, -0.000000000000001015, 0.748891, 202.720569, 481.863513)" fill="none" stroke-linejoin="miter" d="M 4.999762 5.001881 L 78.916401 5.001881 " stroke="#737373" stroke-width="10" stroke-opacity="1" stroke-miterlimit="4"/><path stroke-linecap="round" transform="matrix(0.748891, 0.000000000000000568, -0.000000000000000568, 0.748891, 202.720569, 513.132604)" fill="none" stroke-linejoin="miter" d="M 4.999762 5.00247 L 144.810755 5.00247 " stroke="#737373" stroke-width="10" stroke-opacity="1" stroke-miterlimit="4"/><g clip-path="url(#5c48f7d38e)"><g clip-path="url(#d003468392)"><path stroke-linecap="butt" transform="matrix(0.74889, 0, 0, 0.74889, 645.042342, 473.160855)" fill="none" stroke-linejoin="miter" d="M 9.994788 -0.000932534 L 450.594525 -0.000932534 C 453.244278 -0.000932534 455.784494 1.05271 457.662272 2.930488 C 459.534834 4.803049 460.588476 7.348482 460.588476 9.998235 L 460.588476 48.362282 C 460.588476 51.012036 459.534834 53.557468 457.662272 55.43003 C 455.784494 57.307808 453.244278 58.36145 450.594525 58.36145 L 9.994788 58.36145 C 7.345035 58.36145 4.804818 57.307808 2.92704 55.43003 C 1.054478 53.557468 0.000836379 51.012036 0.000836379 48.362282 L 0.000836379 9.998235 C 0.000836379 7.348482 1.054478 4.803049 2.92704 2.930488 C 4.804818 1.05271 7.345035 -0.000932534 9.994788 -0.000932534 Z M 9.994788 -0.000932534 " stroke="#000000" stroke-width="2" stroke-opacity="1" stroke-miterlimit="4"/></g></g><g clip-path="url(#318b7e0f9f)"><g clip-path="url(#085ed6d9c7)"><path fill="#0097b2" d="M 1005.84375 473.160156 L 1090.835938 473.160156 L 1090.835938 516.878906 L 1005.84375 516.878906 Z M 1005.84375 473.160156 " fill-opacity="1" fill-rule="nonzero"/></g></g><path stroke-linecap="round" transform="matrix(0.748891, 0.000000000000001015, -0.000000000000001015, 0.748891, 1016.917138, 491.274467)" fill="none" stroke-linejoin="miter" d="M 4.998084 5.000817 L 78.919939 5.000817 " stroke="#f2f2f2" stroke-width="10" stroke-opacity="1" stroke-miterlimit="4"/><path stroke-linecap="round" transform="matrix(0.748891, -0.000000000000000186, 0.000000000000000186, 0.748891, 456.504257, 180.876061)" fill="none" stroke-linejoin="miter" d="M 5.001723 5.000774 L 106.224381 5.000774 " stroke="#545454" stroke-width="10" stroke-opacity="1" stroke-miterlimit="4"/><path stroke-linecap="round" transform="matrix(0.748891, 0.000000000000000284, -0.000000000000000284, 0.748891, 456.504257, 216.043272)" fill="none" stroke-linejoin="miter" d="M 5.001723 5.001787 L 144.8075 5.001787 " stroke="#a6a6a6" stroke-width="10" stroke-opacity="1" stroke-miterlimit="4"/><path stroke-linecap="round" transform="matrix(0.748891, 0, 0, 0.748891, 456.504257, 249.9221)" fill="none" stroke-linejoin="miter" d="M 5.001723 5.001891 L 106.339134 5.001891 " stroke="#a6a6a6" stroke-width="10" stroke-opacity="1" stroke-miterlimit="4"/><path stroke-linecap="round" transform="matrix(0.748891, 0, 0, 0.748891, 456.504257, 282.318662)" fill="none" stroke-linejoin="miter" d="M 5.001723 4.999179 L 145.00571 4.999179 " stroke="#a6a6a6" stroke-width="10" stroke-opacity="1" stroke-miterlimit="4"/><path stroke-linecap="round" transform="matrix(0.748891, 0, 0, 0.748891, 456.504257, 315.824464)" fill="none" stroke-linejoin="miter" d="M 5.001723 5.001863 L 58.356694 5.001863 " stroke="#a6a6a6" stroke-width="10" stroke-opacity="1" stroke-miterlimit="4"/><path stroke-linecap="round" transform="matrix(0.748891, 0, 0, 0.748891, 456.420166, 354.290551)" fill="none" stroke-linejoin="miter" d="M 4.999258 5.000205 L 106.336669 5.000205 " stroke="#a6a6a6" stroke-width="10" stroke-opacity="1" stroke-miterlimit="4"/><path stroke-linecap="round" transform="matrix(0.748891, -0.000000000000000186, 0.000000000000000186, 0.748891, 645.084113, 181.888058)" fill="none" stroke-linejoin="miter" d="M 4.999412 5.000403 L 106.227287 5.000403 " stroke="#545454" stroke-width="10" stroke-opacity="1" stroke-miterlimit="4"/><path stroke-linecap="round" transform="matrix(0.748891, 0.000000000000000284, -0.000000000000000284, 0.748891, 645.084113, 217.055285)" fill="none" stroke-linejoin="miter" d="M 4.999412 5.001394 L 144.810405 5.001394 " stroke="#a6a6a6" stroke-width="10" stroke-opacity="1" stroke-miterlimit="4"/><path stroke-linecap="round" transform="matrix(0.748891, 0, 0, 0.748891, 645.084113, 250.934097)" fill="none" stroke-linejoin="miter" d="M 4.999412 5.00152 L 106.336824 5.00152 " stroke="#a6a6a6" stroke-width="10" stroke-opacity="1" stroke-miterlimit="4"/><path stroke-linecap="round" transform="matrix(0.748891, 0, 0, 0.748891, 645.084113, 283.330659)" fill="none" stroke-linejoin="miter" d="M 4.999412 4.998808 L 145.003399 4.998808 " stroke="#a6a6a6" stroke-width="10" stroke-opacity="1" stroke-miterlimit="4"/><path stroke-linecap="round" transform="matrix(0.748891, 0, 0, 0.748891, 645.084113, 316.836461)" fill="none" stroke-linejoin="miter" d="M 4.999412 5.001492 L 58.3596 5.001492 " stroke="#a6a6a6" stroke-width="10" stroke-opacity="1" stroke-miterlimit="4"/><path stroke-linecap="round" transform="matrix(0.748891, 0, 0, 0.748891, 644.999973, 355.302547)" fill="none" stroke-linejoin="miter" d="M 5.002227 4.999833 L 106.339639 4.999833 " stroke="#a6a6a6" stroke-width="10" stroke-opacity="1" stroke-miterlimit="4"/><path stroke-linecap="round" transform="matrix(0.748891, -0.000000000000000186, 0.000000000000000186, 0.748891, 833.892517, 181.888058)" fill="none" stroke-linejoin="miter" d="M 4.999665 5.000403 L 106.227539 5.000403 " stroke="#545454" stroke-width="10" stroke-opacity="1" stroke-miterlimit="4"/><path stroke-linecap="round" transform="matrix(0.748891, 0.000000000000000284, -0.000000000000000284, 0.748891, 833.892517, 217.055285)" fill="none" stroke-linejoin="miter" d="M 4.999665 5.001394 L 144.810658 5.001394 " stroke="#a6a6a6" stroke-width="10" stroke-opacity="1" stroke-miterlimit="4"/><path stroke-linecap="round" transform="matrix(0.748891, 0, 0, 0.748891, 833.892517, 250.934097)" fill="none" stroke-linejoin="miter" d="M 4.999665 5.00152 L 106.337076 5.00152 " stroke="#a6a6a6" stroke-width="10" stroke-opacity="1" stroke-miterlimit="4"/><path stroke-linecap="round" transform="matrix(0.748891, 0, 0, 0.748891, 833.892517, 283.330659)" fill="none" stroke-linejoin="miter" d="M 4.999665 4.998808 L 145.003652 4.998808 " stroke="#a6a6a6" stroke-width="10" stroke-opacity="1" stroke-miterlimit="4"/><path stroke-linecap="round" transform="matrix(0.748891, 0, 0, 0.748891, 833.892517, 316.836461)" fill="none" stroke-linejoin="miter" d="M 4.999665 5.001492 L 58.359852 5.001492 " stroke="#a6a6a6" stroke-width="10" stroke-opacity="1" stroke-miterlimit="4"/><path stroke-linecap="round" transform="matrix(0.748891, 0, 0, 0.748891, 833.808426, 355.302547)" fill="none" stroke-linejoin="miter" d="M 5.002416 4.999833 L 106.339827 4.999833 " stroke="#a6a6a6" stroke-width="10" stroke-opacity="1" stroke-miterlimit="4"/><path stroke-linecap="round" transform="matrix(0.748891, -0.000000000000000186, 0.000000000000000186, 0.748891, 1005.929633, 180.876061)" fill="none" stroke-linejoin="miter" d="M 5.002265 5.000774 L 106.224923 5.000774 " stroke="#545454" stroke-width="10" stroke-opacity="1" stroke-miterlimit="4"/><path stroke-linecap="round" transform="matrix(0.748891, 0.000000000000000284, -0.000000000000000284, 0.748891, 1005.929633, 216.043272)" fill="none" stroke-linejoin="miter" d="M 5.002265 5.001787 L 144.808042 5.001787 " stroke="#a6a6a6" stroke-width="10" stroke-opacity="1" stroke-miterlimit="4"/><path stroke-linecap="round" transform="matrix(0.748891, 0, 0, 0.748891, 1005.929633, 249.9221)" fill="none" stroke-linejoin="miter" d="M 5.002265 5.001891 L 106.339676 5.001891 " stroke="#a6a6a6" stroke-width="10" stroke-opacity="1" stroke-miterlimit="4"/><path stroke-linecap="round" transform="matrix(0.748891, 0, 0, 0.748891, 1005.929633, 282.318662)" fill="none" stroke-linejoin="miter" d="M 5.002265 4.999179 L 145.006252 4.999179 " stroke="#a6a6a6" stroke-width="10" stroke-opacity="1" stroke-miterlimit="4"/><path stroke-linecap="round" transform="matrix(0.748891, 0, 0, 0.748891, 1005.929633, 315.824464)" fill="none" stroke-linejoin="miter" d="M 5.002265 5.001863 L 58.357236 5.001863 " stroke="#a6a6a6" stroke-width="10" stroke-opacity="1" stroke-miterlimit="4"/><path stroke-linecap="round" transform="matrix(0.748891, 0, 0, 0.748891, 1005.845493, 354.290551)" fill="none" stroke-linejoin="miter" d="M 4.999864 5.000205 L 106.337275 5.000205 " stroke="#a6a6a6" stroke-width="10" stroke-opacity="1" stroke-miterlimit="4"/><path stroke-linecap="round" transform="matrix(0.748891, 0.000000000000001015, -0.000000000000001015, 0.748891, 644.999973, 559.901738)" fill="none" stroke-linejoin="miter" d="M 5.002227 4.997784 L 78.918866 4.997784 " stroke="#737373" stroke-width="10" stroke-opacity="1" stroke-miterlimit="4"/><path stroke-linecap="round" transform="matrix(0.748891, 0.000000000000001015, -0.000000000000001015, 0.748891, 747.114057, 561.222901)" fill="none" stroke-linejoin="miter" d="M 5.001156 5.001865 L 78.917794 5.001865 " stroke="#737373" stroke-width="10" stroke-opacity="1" stroke-miterlimit="4"/><path stroke-linecap="round" transform="matrix(0.748891, 0.000000000000001015, -0.000000000000001015, 0.748891, 848.112019, 559.901738)" fill="none" stroke-linejoin="miter" d="M 4.998662 4.997784 L 78.920516 4.997784 " stroke="#737373" stroke-width="10" stroke-opacity="1" stroke-miterlimit="4"/><path stroke-linecap="round" transform="matrix(0.748891, 0.000000000000001015, -0.000000000000001015, 0.748891, 946.229999, 559.901738)" fill="none" stroke-linejoin="miter" d="M 4.997603 4.997784 L 78.919458 4.997784 " stroke="#737373" stroke-width="10" stroke-opacity="1" stroke-miterlimit="4"/></svg>