<svg xmlns="http://www.w3.org/2000/svg" xmlns:xlink="http://www.w3.org/1999/xlink" width="1720" zoomAndPan="magnify" viewBox="0 0 1290 675.000002" height="900" preserveAspectRatio="xMidYMid meet" version="1.0"><defs><clipPath id="ce3e50fccb"><path d="M 150.179688 286.449219 L 1139.820312 286.449219 L 1139.820312 387.550781 L 150.179688 387.550781 Z M 150.179688 286.449219 " clip-rule="nonzero"/></clipPath><clipPath id="5259a9f791"><path d="M 165.160156 286.449219 L 1124.839844 286.449219 C 1128.8125 286.449219 1132.621094 288.027344 1135.429688 290.835938 C 1138.242188 293.644531 1139.820312 297.457031 1139.820312 301.429688 L 1139.820312 372.574219 C 1139.820312 376.546875 1138.242188 380.355469 1135.429688 383.164062 C 1132.621094 385.972656 1128.8125 387.550781 1124.839844 387.550781 L 165.160156 387.550781 C 161.1875 387.550781 157.378906 385.972656 154.570312 383.164062 C 151.757812 380.355469 150.179688 376.546875 150.179688 372.574219 L 150.179688 301.429688 C 150.179688 297.457031 151.757812 293.644531 154.570312 290.835938 C 157.378906 288.027344 161.1875 286.449219 165.160156 286.449219 Z M 165.160156 286.449219 " clip-rule="nonzero"/></clipPath><clipPath id="5e03ba169f"><path d="M 217 342 L 237.273438 342 L 237.273438 362.445312 L 217 362.445312 Z M 217 342 " clip-rule="nonzero"/></clipPath><clipPath id="1e26feaf31"><path d="M 1064.847656 311.519531 L 1100.796875 311.519531 L 1100.796875 362.445312 L 1064.847656 362.445312 Z M 1064.847656 311.519531 " clip-rule="nonzero"/></clipPath></defs><g clip-path="url(#ce3e50fccb)"><g clip-path="url(#5259a9f791)"><path fill="#f2f2f2" d="M 150.179688 286.449219 L 1139.820312 286.449219 L 1139.820312 387.550781 L 150.179688 387.550781 Z M 150.179688 286.449219 " fill-opacity="1" fill-rule="nonzero"/></g></g><path fill="#545454" d="M 207.390625 352.203125 C 206.59375 352.203125 205.800781 352.15625 205.007812 352.058594 C 204.21875 351.960938 203.4375 351.816406 202.664062 351.625 C 201.890625 351.429688 201.132812 351.191406 200.390625 350.90625 C 199.648438 350.617188 198.925781 350.289062 198.222656 349.914062 C 197.519531 349.535156 196.84375 349.121094 196.191406 348.660156 C 195.539062 348.203125 194.917969 347.707031 194.328125 347.171875 C 193.738281 346.636719 193.183594 346.070312 192.664062 345.464844 C 192.144531 344.863281 191.660156 344.230469 191.21875 343.566406 C 190.777344 342.90625 190.375 342.21875 190.019531 341.507812 C 189.660156 340.796875 189.347656 340.066406 189.078125 339.316406 C 188.808594 338.566406 188.589844 337.804688 188.414062 337.027344 C 188.238281 336.25 188.113281 335.464844 188.035156 334.671875 C 187.957031 333.878906 187.925781 333.085938 187.945312 332.289062 C 187.964844 331.492188 188.035156 330.699219 188.152344 329.910156 C 188.269531 329.125 188.433594 328.347656 188.644531 327.578125 C 188.859375 326.8125 189.117188 326.058594 189.421875 325.324219 C 189.726562 324.589844 190.074219 323.875 190.46875 323.179688 C 190.859375 322.488281 191.292969 321.820312 191.769531 321.183594 C 192.242188 320.542969 192.753906 319.933594 193.304688 319.359375 C 193.855469 318.78125 194.4375 318.242188 195.050781 317.734375 C 195.667969 317.230469 196.3125 316.765625 196.984375 316.339844 C 197.65625 315.914062 198.355469 315.53125 199.074219 315.191406 C 199.792969 314.847656 200.53125 314.554688 201.289062 314.304688 C 202.046875 314.054688 202.816406 313.851562 203.597656 313.699219 C 204.375 313.542969 205.164062 313.4375 205.957031 313.378906 C 206.753906 313.320312 207.546875 313.308594 208.34375 313.351562 C 209.140625 313.390625 209.929688 313.476562 210.714844 313.613281 C 211.5 313.75 212.273438 313.933594 213.035156 314.167969 C 213.796875 314.398438 214.539062 314.675781 215.269531 315 C 215.996094 315.320312 216.703125 315.6875 217.382812 316.097656 C 218.066406 316.507812 218.722656 316.957031 219.351562 317.449219 C 219.976562 317.9375 220.574219 318.464844 221.136719 319.03125 C 221.8125 319.707031 222.433594 320.425781 223.003906 321.195312 C 223.574219 321.960938 224.085938 322.765625 224.535156 323.609375 C 224.988281 324.453125 225.375 325.324219 225.695312 326.226562 C 226.019531 327.125 226.273438 328.042969 226.460938 328.980469 C 226.648438 329.917969 226.765625 330.863281 226.8125 331.820312 C 226.859375 332.773438 226.835938 333.726562 226.742188 334.679688 C 226.648438 335.628906 226.484375 336.570312 226.253906 337.496094 C 226.019531 338.425781 225.71875 339.328125 225.355469 340.214844 C 224.988281 341.097656 224.558594 341.949219 224.066406 342.769531 C 223.578125 343.585938 223.027344 344.367188 222.421875 345.105469 C 221.8125 345.84375 221.15625 346.535156 220.449219 347.175781 C 219.738281 347.820312 218.988281 348.40625 218.191406 348.9375 C 217.398438 349.464844 216.566406 349.9375 215.703125 350.34375 C 214.839844 350.753906 213.949219 351.09375 213.03125 351.371094 C 212.117188 351.648438 211.1875 351.855469 210.242188 351.996094 C 209.296875 352.136719 208.34375 352.207031 207.390625 352.203125 Z M 207.390625 317.609375 C 206.808594 317.609375 206.230469 317.640625 205.65625 317.703125 C 205.078125 317.769531 204.507812 317.867188 203.941406 317.996094 C 203.378906 318.128906 202.820312 318.289062 202.273438 318.484375 C 201.726562 318.679688 201.195312 318.90625 200.675781 319.160156 C 200.152344 319.414062 199.648438 319.699219 199.160156 320.011719 C 198.671875 320.328125 198.203125 320.667969 197.753906 321.035156 C 197.304688 321.402344 196.878906 321.792969 196.476562 322.207031 C 196.070312 322.625 195.691406 323.0625 195.339844 323.523438 C 194.984375 323.980469 194.65625 324.460938 194.359375 324.957031 C 194.058594 325.453125 193.789062 325.964844 193.550781 326.496094 C 193.308594 327.023438 193.101562 327.5625 192.921875 328.113281 C 192.746094 328.667969 192.597656 329.226562 192.484375 329.796875 C 192.371094 330.363281 192.289062 330.9375 192.242188 331.515625 C 192.191406 332.09375 192.175781 332.671875 192.195312 333.253906 C 192.214844 333.832031 192.265625 334.410156 192.351562 334.984375 C 192.433594 335.554688 192.550781 336.125 192.699219 336.683594 C 192.851562 337.246094 193.03125 337.792969 193.242188 338.335938 C 193.457031 338.875 193.699219 339.398438 193.972656 339.910156 C 194.246094 340.421875 194.546875 340.917969 194.875 341.394531 C 195.203125 341.871094 195.5625 342.328125 195.941406 342.765625 C 196.324219 343.203125 196.730469 343.613281 197.160156 344.003906 C 197.589844 344.394531 198.039062 344.757812 198.511719 345.097656 C 198.980469 345.433594 199.472656 345.746094 199.976562 346.027344 C 200.484375 346.308594 201.007812 346.5625 201.542969 346.785156 C 202.078125 347.007812 202.625 347.199219 203.183594 347.355469 C 203.738281 347.515625 204.304688 347.644531 204.875 347.738281 C 205.449219 347.832031 206.023438 347.894531 206.605469 347.925781 C 207.183594 347.953125 207.761719 347.949219 208.339844 347.910156 C 208.917969 347.875 209.496094 347.800781 210.066406 347.699219 C 210.636719 347.59375 211.199219 347.460938 211.753906 347.289062 C 212.308594 347.121094 212.851562 346.921875 213.386719 346.691406 C 213.917969 346.460938 214.433594 346.203125 214.9375 345.910156 C 215.4375 345.621094 215.921875 345.304688 216.390625 344.957031 C 216.855469 344.613281 217.300781 344.242188 217.722656 343.847656 C 218.144531 343.449219 218.546875 343.03125 218.921875 342.585938 C 219.296875 342.144531 219.644531 341.683594 219.96875 341.199219 C 220.289062 340.71875 220.582031 340.21875 220.847656 339.703125 C 221.113281 339.1875 221.347656 338.65625 221.550781 338.113281 C 221.753906 337.570312 221.929688 337.019531 222.070312 336.457031 C 222.210938 335.894531 222.316406 335.324219 222.394531 334.75 C 222.46875 334.175781 222.511719 333.597656 222.519531 333.015625 C 222.53125 332.4375 222.503906 331.859375 222.449219 331.28125 C 222.390625 330.703125 222.300781 330.132812 222.179688 329.566406 C 222.054688 329 221.902344 328.441406 221.714844 327.890625 C 221.527344 327.34375 221.308594 326.804688 221.0625 326.28125 C 220.8125 325.757812 220.535156 325.25 220.230469 324.757812 C 219.921875 324.265625 219.589844 323.792969 219.226562 323.335938 C 218.867188 322.882812 218.480469 322.453125 218.070312 322.042969 C 216.652344 320.625 215.019531 319.53125 213.171875 318.765625 C 211.320312 317.996094 209.394531 317.609375 207.390625 317.609375 Z M 207.390625 317.609375 " fill-opacity="1" fill-rule="nonzero"/><g clip-path="url(#5e03ba169f)"><path fill="#545454" d="M 234.945312 362.46875 C 234.355469 362.464844 233.855469 362.257812 233.441406 361.839844 L 218.113281 346.523438 C 217.914062 346.320312 217.757812 346.089844 217.648438 345.828125 C 217.542969 345.566406 217.488281 345.292969 217.488281 345.011719 C 217.488281 344.726562 217.542969 344.453125 217.648438 344.191406 C 217.757812 343.929688 217.914062 343.699219 218.113281 343.5 C 218.3125 343.300781 218.542969 343.144531 218.804688 343.035156 C 219.066406 342.929688 219.339844 342.875 219.625 342.875 C 219.90625 342.875 220.179688 342.929688 220.441406 343.035156 C 220.703125 343.144531 220.933594 343.300781 221.136719 343.5 L 236.453125 358.828125 C 236.753906 359.132812 236.949219 359.496094 237.03125 359.917969 C 237.117188 360.339844 237.074219 360.75 236.910156 361.148438 C 236.746094 361.546875 236.484375 361.867188 236.128906 362.105469 C 235.769531 362.347656 235.375 362.46875 234.945312 362.46875 Z M 234.945312 362.46875 " fill-opacity="1" fill-rule="nonzero"/></g><g clip-path="url(#1e26feaf31)"><path fill="#545454" d="M 1100.621094 334.277344 L 1100.621094 336.125 C 1100.621094 345.378906 1093.558594 353.011719 1084.539062 353.90625 L 1084.539062 358.839844 L 1091.828125 358.839844 C 1092.824219 358.839844 1093.640625 359.65625 1093.640625 360.65625 C 1093.640625 361.652344 1092.824219 362.46875 1091.828125 362.46875 L 1073.664062 362.46875 C 1072.667969 362.46875 1071.851562 361.652344 1071.851562 360.65625 C 1071.851562 359.65625 1072.667969 358.839844 1073.664062 358.839844 L 1080.902344 358.839844 L 1080.902344 353.898438 C 1071.914062 352.980469 1064.871094 345.355469 1064.871094 336.125 L 1064.871094 334.277344 C 1064.871094 333.28125 1065.683594 332.464844 1066.683594 332.464844 C 1067.683594 332.464844 1068.5 333.28125 1068.5 334.277344 L 1068.5 336.125 C 1068.5 343.980469 1074.886719 350.371094 1082.746094 350.371094 C 1090.605469 350.371094 1096.996094 343.980469 1096.996094 336.125 L 1096.996094 334.277344 C 1096.996094 333.28125 1097.808594 332.464844 1098.808594 332.464844 C 1099.808594 332.464844 1100.621094 333.269531 1100.621094 334.277344 Z M 1082.746094 346.742188 C 1088.433594 346.742188 1093.050781 342.125 1093.050781 336.441406 L 1093.050781 321.824219 C 1093.050781 316.136719 1088.433594 311.519531 1082.746094 311.519531 C 1077.058594 311.519531 1072.441406 316.136719 1072.441406 321.824219 L 1072.441406 336.441406 C 1072.441406 342.125 1077.058594 346.742188 1082.746094 346.742188 Z M 1082.746094 346.742188 " fill-opacity="1" fill-rule="nonzero"/></g></svg>