<svg xmlns="http://www.w3.org/2000/svg" xmlns:xlink="http://www.w3.org/1999/xlink" width="1720" zoomAndPan="magnify" viewBox="0 0 1290 675.000002" height="900" preserveAspectRatio="xMidYMid meet" version="1.0"><defs><clipPath id="4e27b9457a"><path d="M 375.398438 67.398438 L 914.601562 67.398438 L 914.601562 606.601562 L 375.398438 606.601562 Z M 375.398438 67.398438 " clip-rule="nonzero"/></clipPath><clipPath id="d676dcd189"><path d="M 406.851562 67.398438 L 883.148438 67.398438 C 891.488281 67.398438 899.488281 70.714844 905.386719 76.613281 C 911.285156 82.511719 914.601562 90.511719 914.601562 98.855469 L 914.601562 575.148438 C 914.601562 583.488281 911.285156 591.488281 905.386719 597.390625 C 899.488281 603.289062 891.488281 606.601562 883.148438 606.601562 L 406.851562 606.601562 C 398.511719 606.601562 390.511719 603.289062 384.613281 597.390625 C 378.714844 591.488281 375.398438 583.488281 375.398438 575.148438 L 375.398438 98.855469 C 375.398438 90.511719 378.714844 82.511719 384.613281 76.613281 C 390.511719 70.714844 398.511719 67.398438 406.851562 67.398438 Z M 406.851562 67.398438 " clip-rule="nonzero"/></clipPath><clipPath id="a994f35bb8"><path d="M 414.03125 120.828125 L 446.90625 120.828125 L 446.90625 153.703125 L 414.03125 153.703125 Z M 414.03125 120.828125 " clip-rule="nonzero"/></clipPath><clipPath id="5ab92226e5"><path d="M 430.46875 120.828125 C 421.390625 120.828125 414.03125 128.1875 414.03125 137.265625 C 414.03125 146.34375 421.390625 153.703125 430.46875 153.703125 C 439.546875 153.703125 446.90625 146.34375 446.90625 137.265625 C 446.90625 128.1875 439.546875 120.828125 430.46875 120.828125 Z M 430.46875 120.828125 " clip-rule="nonzero"/></clipPath><clipPath id="7f0620aef1"><path d="M 414.03125 252.265625 L 446.90625 252.265625 L 446.90625 285.144531 L 414.03125 285.144531 Z M 414.03125 252.265625 " clip-rule="nonzero"/></clipPath><clipPath id="d7f63c65e1"><path d="M 430.46875 252.265625 C 421.390625 252.265625 414.03125 259.625 414.03125 268.707031 C 414.03125 277.785156 421.390625 285.144531 430.46875 285.144531 C 439.546875 285.144531 446.90625 277.785156 446.90625 268.707031 C 446.90625 259.625 439.546875 252.265625 430.46875 252.265625 Z M 430.46875 252.265625 " clip-rule="nonzero"/></clipPath><clipPath id="770c616bf4"><path d="M 414.03125 391.667969 L 446.90625 391.667969 L 446.90625 424.546875 L 414.03125 424.546875 Z M 414.03125 391.667969 " clip-rule="nonzero"/></clipPath><clipPath id="b52130eff4"><path d="M 430.46875 391.667969 C 421.390625 391.667969 414.03125 399.03125 414.03125 408.109375 C 414.03125 417.1875 421.390625 424.546875 430.46875 424.546875 C 439.546875 424.546875 446.90625 417.1875 446.90625 408.109375 C 446.90625 399.03125 439.546875 391.667969 430.46875 391.667969 Z M 430.46875 391.667969 " clip-rule="nonzero"/></clipPath><clipPath id="b0a3d92b24"><path d="M 414.03125 530.378906 L 446.90625 530.378906 L 446.90625 563.257812 L 414.03125 563.257812 Z M 414.03125 530.378906 " clip-rule="nonzero"/></clipPath><clipPath id="89ae77219f"><path d="M 430.46875 530.378906 C 421.390625 530.378906 414.03125 537.738281 414.03125 546.816406 C 414.03125 555.898438 421.390625 563.257812 430.46875 563.257812 C 439.546875 563.257812 446.90625 555.898438 446.90625 546.816406 C 446.90625 537.738281 439.546875 530.378906 430.46875 530.378906 Z M 430.46875 530.378906 " clip-rule="nonzero"/></clipPath></defs><g clip-path="url(#4e27b9457a)"><g clip-path="url(#d676dcd189)"><path fill="#f2f2f2" d="M 375.398438 67.398438 L 914.601562 67.398438 L 914.601562 606.601562 L 375.398438 606.601562 Z M 375.398438 67.398438 " fill-opacity="1" fill-rule="nonzero"/></g></g><path stroke-linecap="butt" transform="matrix(0.748891, 0.000000000000000059, -0.000000000000000059, 0.748891, 375.399392, 197.413891)" fill="none" stroke-linejoin="miter" d="M -0.0012744 1.997977 L 720.001346 1.997977 " stroke="#737373" stroke-width="4" stroke-opacity="1" stroke-miterlimit="4"/><path stroke-linecap="butt" transform="matrix(0.748891, 0.000000000000000059, -0.000000000000000059, 0.748891, 375.399392, 337.000747)" fill="none" stroke-linejoin="miter" d="M -0.0012744 2.001966 L 720.001346 2.001966 " stroke="#737373" stroke-width="4" stroke-opacity="1" stroke-miterlimit="4"/><path stroke-linecap="butt" transform="matrix(0.748891, 0.000000000000000118, -0.000000000000000118, 0.748891, 375.399392, 475.710773)" fill="none" stroke-linejoin="miter" d="M -0.0012744 1.997967 L 720.001346 1.997967 " stroke="#737373" stroke-width="4" stroke-opacity="1" stroke-miterlimit="4"/><g clip-path="url(#a994f35bb8)"><g clip-path="url(#5ab92226e5)"><path fill="#a6a6a6" d="M 414.03125 120.828125 L 446.90625 120.828125 L 446.90625 153.703125 L 414.03125 153.703125 Z M 414.03125 120.828125 " fill-opacity="1" fill-rule="nonzero"/></g></g><g clip-path="url(#7f0620aef1)"><g clip-path="url(#d7f63c65e1)"><path fill="#a6a6a6" d="M 414.03125 252.265625 L 446.90625 252.265625 L 446.90625 285.144531 L 414.03125 285.144531 Z M 414.03125 252.265625 " fill-opacity="1" fill-rule="nonzero"/></g></g><g clip-path="url(#770c616bf4)"><g clip-path="url(#b52130eff4)"><path fill="#a6a6a6" d="M 414.03125 391.667969 L 446.90625 391.667969 L 446.90625 424.546875 L 414.03125 424.546875 Z M 414.03125 391.667969 " fill-opacity="1" fill-rule="nonzero"/></g></g><g clip-path="url(#b0a3d92b24)"><g clip-path="url(#89ae77219f)"><path fill="#a6a6a6" d="M 414.03125 530.378906 L 446.90625 530.378906 L 446.90625 563.257812 L 414.03125 563.257812 Z M 414.03125 530.378906 " fill-opacity="1" fill-rule="nonzero"/></g></g><path stroke-linecap="round" transform="matrix(0.748884, -0.00303762, 0.00303762, 0.748884, 481.207819, 132.396986)" fill="none" stroke-linejoin="miter" d="M 7.500557 7.501807 L 485.576303 7.500591 " stroke="#0097b2" stroke-width="15" stroke-opacity="1" stroke-miterlimit="4"/><path stroke-linecap="round" transform="matrix(0.748884, -0.00303762, 0.00303762, 0.748884, 481.207819, 263.837334)" fill="none" stroke-linejoin="miter" d="M 7.500573 7.498003 L 485.576297 7.502003 " stroke="#0097b2" stroke-width="15" stroke-opacity="1" stroke-miterlimit="4"/><path stroke-linecap="round" transform="matrix(0.748884, -0.00303762, 0.00303762, 0.748884, 481.207819, 403.240483)" fill="none" stroke-linejoin="miter" d="M 7.500556 7.502144 L 485.576301 7.500928 " stroke="#0097b2" stroke-width="15" stroke-opacity="1" stroke-miterlimit="4"/><path stroke-linecap="round" transform="matrix(0.748884, -0.00303762, 0.00303762, 0.748884, 481.207819, 541.950485)" fill="none" stroke-linejoin="miter" d="M 7.500572 7.498177 L 485.576296 7.502177 " stroke="#0097b2" stroke-width="15" stroke-opacity="1" stroke-miterlimit="4"/></svg>