<svg xmlns="http://www.w3.org/2000/svg" xmlns:xlink="http://www.w3.org/1999/xlink" width="1720" zoomAndPan="magnify" viewBox="0 0 1290 675.000002" height="900" preserveAspectRatio="xMidYMid meet" version="1.0"><defs><clipPath id="2ec7055919"><path d="M 245.683594 67.398438 L 966.433594 67.398438 L 966.433594 606.601562 L 245.683594 606.601562 Z M 245.683594 67.398438 " clip-rule="nonzero"/></clipPath><clipPath id="cc793d07fc"><path d="M 268.148438 67.398438 L 943.964844 67.398438 C 956.375 67.398438 966.433594 77.457031 966.433594 89.867188 L 966.433594 584.132812 C 966.433594 596.542969 956.375 606.601562 943.964844 606.601562 L 268.148438 606.601562 C 255.742188 606.601562 245.683594 596.542969 245.683594 584.132812 L 245.683594 89.867188 C 245.683594 77.457031 255.742188 67.398438 268.148438 67.398438 Z M 268.148438 67.398438 " clip-rule="nonzero"/></clipPath><clipPath id="d3a354614d"><path d="M 906.582031 104.410156 L 929.796875 104.410156 L 929.796875 127.628906 L 906.582031 127.628906 Z M 906.582031 104.410156 " clip-rule="nonzero"/></clipPath><clipPath id="a5350f697b"><path d="M 549.429688 127.578125 L 662.511719 127.578125 L 662.511719 240.660156 L 549.429688 240.660156 Z M 549.429688 127.578125 " clip-rule="nonzero"/></clipPath><clipPath id="c8c2bb8d70"><path d="M 662.6875 528.78125 L 775.625 528.78125 L 775.625 572.75 L 662.6875 572.75 Z M 662.6875 528.78125 " clip-rule="nonzero"/></clipPath><clipPath id="2d1c986ca0"><path d="M 670.175781 528.78125 L 768.136719 528.78125 C 770.121094 528.78125 772.027344 529.570312 773.429688 530.972656 C 774.835938 532.378906 775.625 534.285156 775.625 536.269531 L 775.625 565.261719 C 775.625 567.246094 774.835938 569.152344 773.429688 570.554688 C 772.027344 571.960938 770.121094 572.75 768.136719 572.75 L 670.175781 572.75 C 668.1875 572.75 666.285156 571.960938 664.878906 570.554688 C 663.476562 569.152344 662.6875 567.246094 662.6875 565.261719 L 662.6875 536.269531 C 662.6875 534.285156 663.476562 532.378906 664.878906 530.972656 C 666.285156 529.570312 668.1875 528.78125 670.175781 528.78125 Z M 670.175781 528.78125 " clip-rule="nonzero"/></clipPath><clipPath id="007999433d"><path d="M 805.226562 528.78125 L 918.164062 528.78125 L 918.164062 572.75 L 805.226562 572.75 Z M 805.226562 528.78125 " clip-rule="nonzero"/></clipPath><clipPath id="e27fc68af0"><path d="M 812.714844 528.78125 L 910.675781 528.78125 C 912.664062 528.78125 914.566406 529.570312 915.972656 530.972656 C 917.375 532.378906 918.164062 534.285156 918.164062 536.269531 L 918.164062 565.261719 C 918.164062 567.246094 917.375 569.152344 915.972656 570.554688 C 914.566406 571.960938 912.664062 572.75 910.675781 572.75 L 812.714844 572.75 C 810.730469 572.75 808.824219 571.960938 807.421875 570.554688 C 806.015625 569.152344 805.226562 567.246094 805.226562 565.261719 L 805.226562 536.269531 C 805.226562 534.285156 806.015625 532.378906 807.421875 530.972656 C 808.824219 529.570312 810.730469 528.78125 812.714844 528.78125 Z M 812.714844 528.78125 " clip-rule="nonzero"/></clipPath></defs><g clip-path="url(#2ec7055919)"><g clip-path="url(#cc793d07fc)"><path fill="#f2f2f2" d="M 245.683594 67.398438 L 966.433594 67.398438 L 966.433594 606.601562 L 245.683594 606.601562 Z M 245.683594 67.398438 " fill-opacity="1" fill-rule="nonzero"/></g></g><g clip-path="url(#d3a354614d)"><path fill="#545454" d="M 929.121094 107.917969 C 929.527344 107.523438 929.726562 107.039062 929.722656 106.472656 C 929.726562 105.90625 929.527344 105.421875 929.121094 105.015625 C 928.726562 104.617188 928.246094 104.417969 927.675781 104.410156 C 927.109375 104.417969 926.625 104.617188 926.21875 105.015625 L 918.160156 113.085938 L 910.085938 105.015625 C 909.691406 104.617188 909.210938 104.417969 908.644531 104.410156 C 908.078125 104.417969 907.589844 104.617188 907.183594 105.015625 C 906.789062 105.421875 906.585938 105.90625 906.582031 106.472656 C 906.585938 107.039062 906.789062 107.523438 907.183594 107.917969 L 915.257812 115.988281 L 907.183594 124.046875 C 906.789062 124.453125 906.585938 124.941406 906.582031 125.507812 C 906.585938 126.074219 906.789062 126.554688 907.183594 126.949219 C 907.589844 127.355469 908.078125 127.558594 908.644531 127.554688 C 909.210938 127.558594 909.691406 127.355469 910.085938 126.949219 L 918.160156 118.894531 L 926.21875 126.949219 C 926.625 127.355469 927.109375 127.558594 927.675781 127.554688 C 928.246094 127.558594 928.726562 127.355469 929.121094 126.949219 C 929.527344 126.554688 929.726562 126.074219 929.722656 125.507812 C 929.726562 124.941406 929.527344 124.453125 929.121094 124.046875 L 921.0625 115.988281 Z M 929.121094 107.917969 " fill-opacity="1" fill-rule="nonzero"/></g><g clip-path="url(#a5350f697b)"><path fill="#0097b2" d="M 662.675781 184.203125 C 662.675781 186.054688 662.585938 187.90625 662.402344 189.75 C 662.222656 191.597656 661.949219 193.429688 661.585938 195.246094 C 661.226562 197.066406 660.777344 198.863281 660.238281 200.636719 C 659.699219 202.414062 659.074219 204.15625 658.367188 205.871094 C 657.65625 207.582031 656.863281 209.257812 655.988281 210.894531 C 655.117188 212.527344 654.164062 214.117188 653.132812 215.660156 C 652.101562 217.203125 651 218.6875 649.824219 220.121094 C 648.644531 221.554688 647.402344 222.929688 646.089844 224.238281 C 644.78125 225.550781 643.40625 226.796875 641.972656 227.972656 C 640.539062 229.148438 639.050781 230.25 637.511719 231.28125 C 635.96875 232.3125 634.378906 233.265625 632.746094 234.136719 C 631.109375 235.011719 629.433594 235.804688 627.722656 236.515625 C 626.007812 237.222656 624.265625 237.847656 622.488281 238.386719 C 620.714844 238.925781 618.917969 239.375 617.097656 239.738281 C 615.28125 240.097656 613.449219 240.371094 611.601562 240.550781 C 609.757812 240.734375 607.90625 240.824219 606.050781 240.824219 C 604.199219 240.824219 602.347656 240.734375 600.503906 240.550781 C 598.65625 240.371094 596.824219 240.097656 595.007812 239.738281 C 593.1875 239.375 591.390625 238.925781 589.617188 238.386719 C 587.839844 237.847656 586.097656 237.222656 584.382812 236.515625 C 582.671875 235.804688 580.996094 235.011719 579.359375 234.136719 C 577.726562 233.265625 576.136719 232.3125 574.59375 231.28125 C 573.050781 230.25 571.566406 229.148438 570.132812 227.972656 C 568.699219 226.796875 567.324219 225.550781 566.015625 224.238281 C 564.703125 222.929688 563.457031 221.554688 562.28125 220.121094 C 561.105469 218.6875 560.003906 217.203125 558.972656 215.660156 C 557.941406 214.117188 556.988281 212.527344 556.117188 210.894531 C 555.242188 209.257812 554.449219 207.582031 553.738281 205.871094 C 553.03125 204.15625 552.40625 202.414062 551.867188 200.636719 C 551.328125 198.863281 550.878906 197.066406 550.515625 195.246094 C 550.15625 193.429688 549.882812 191.597656 549.703125 189.75 C 549.519531 187.90625 549.429688 186.054688 549.429688 184.203125 C 549.429688 182.347656 549.519531 180.496094 549.703125 178.652344 C 549.882812 176.804688 550.15625 174.972656 550.515625 173.15625 C 550.878906 171.335938 551.328125 169.539062 551.867188 167.765625 C 552.40625 165.988281 553.03125 164.246094 553.738281 162.53125 C 554.449219 160.820312 555.242188 159.144531 556.117188 157.507812 C 556.988281 155.875 557.941406 154.285156 558.972656 152.742188 C 560.003906 151.199219 561.105469 149.714844 562.28125 148.28125 C 563.457031 146.847656 564.703125 145.472656 566.015625 144.164062 C 567.324219 142.851562 568.699219 141.605469 570.132812 140.429688 C 571.566406 139.253906 573.050781 138.152344 574.59375 137.121094 C 576.136719 136.089844 577.726562 135.136719 579.359375 134.265625 C 580.996094 133.390625 582.671875 132.597656 584.382812 131.886719 C 586.097656 131.179688 587.839844 130.554688 589.617188 130.015625 C 591.390625 129.476562 593.1875 129.027344 595.007812 128.667969 C 596.824219 128.304688 598.65625 128.03125 600.503906 127.851562 C 602.347656 127.667969 604.199219 127.578125 606.050781 127.578125 C 607.90625 127.578125 609.757812 127.667969 611.601562 127.851562 C 613.449219 128.03125 615.28125 128.304688 617.097656 128.667969 C 618.917969 129.027344 620.714844 129.476562 622.488281 130.015625 C 624.265625 130.554688 626.007812 131.179688 627.722656 131.886719 C 629.433594 132.597656 631.109375 133.390625 632.746094 134.265625 C 634.378906 135.136719 635.96875 136.089844 637.511719 137.121094 C 639.050781 138.152344 640.539062 139.253906 641.972656 140.429688 C 643.40625 141.605469 644.78125 142.851562 646.089844 144.164062 C 647.402344 145.472656 648.644531 146.847656 649.824219 148.28125 C 651 149.714844 652.101562 151.199219 653.132812 152.742188 C 654.164062 154.285156 655.117188 155.875 655.988281 157.507812 C 656.863281 159.144531 657.65625 160.820312 658.367188 162.53125 C 659.074219 164.246094 659.699219 165.988281 660.238281 167.765625 C 660.777344 169.539062 661.226562 171.335938 661.585938 173.15625 C 661.949219 174.972656 662.222656 176.804688 662.402344 178.652344 C 662.585938 180.496094 662.675781 182.347656 662.675781 184.203125 Z M 662.675781 184.203125 " fill-opacity="1" fill-rule="nonzero"/></g><path fill="#f2f2f2" d="M 637.140625 173.503906 C 640.171875 170.472656 640.171875 165.558594 637.140625 162.527344 C 634.105469 159.496094 629.191406 159.5 626.164062 162.53125 L 599.296875 189.40625 L 585.886719 175.996094 C 582.855469 172.964844 577.941406 172.964844 574.910156 175.996094 C 571.878906 179.027344 571.878906 183.941406 574.910156 186.972656 L 593.8125 205.875 C 595.265625 207.328125 597.242188 208.148438 599.300781 208.148438 C 601.359375 208.148438 603.335938 207.328125 604.789062 205.871094 Z M 637.140625 173.503906 " fill-opacity="1" fill-rule="nonzero"/><path stroke-linecap="round" transform="matrix(0.748891, -0.000000000000000093, 0.000000000000000093, 0.748891, 290.265841, 302.609471)" fill="none" stroke-linejoin="miter" d="M 5.001904 5.002064 L 341.077194 5.002064 " stroke="#a6a6a6" stroke-width="10" stroke-opacity="1" stroke-miterlimit="4"/><path stroke-linecap="round" transform="matrix(0.748891, 0, 0, 0.748891, 290.262126, 459.517148)" fill="none" stroke-linejoin="miter" d="M 5.001648 5.000158 L 817.975136 5.000158 " stroke="#a6a6a6" stroke-width="10" stroke-opacity="1" stroke-miterlimit="4"/><path stroke-linecap="round" transform="matrix(0.748884, -0.00319396, 0.00319396, 0.748884, 290.249868, 408.078244)" fill="none" stroke-linejoin="miter" d="M 5.001942 5.002547 L 468.676501 4.997982 " stroke="#a6a6a6" stroke-width="10" stroke-opacity="1" stroke-miterlimit="4"/><path stroke-linecap="round" transform="matrix(0.748891, 0, 0, 0.748891, 290.252327, 353.613448)" fill="none" stroke-linejoin="miter" d="M 4.999084 5.001969 L 640.115714 5.001969 " stroke="#a6a6a6" stroke-width="10" stroke-opacity="1" stroke-miterlimit="4"/><g clip-path="url(#c8c2bb8d70)"><g clip-path="url(#2d1c986ca0)"><path fill="#0097b2" d="M 662.6875 528.78125 L 775.625 528.78125 L 775.625 572.75 L 662.6875 572.75 Z M 662.6875 528.78125 " fill-opacity="1" fill-rule="nonzero"/></g></g><g clip-path="url(#007999433d)"><g clip-path="url(#e27fc68af0)"><path fill="#737373" d="M 805.226562 528.78125 L 918.164062 528.78125 L 918.164062 572.75 L 805.226562 572.75 Z M 805.226562 528.78125 " fill-opacity="1" fill-rule="nonzero"/></g></g><path stroke-linecap="round" transform="matrix(0.748891, 0, 0, 0.748891, 683.094344, 547.021013)" fill="none" stroke-linejoin="miter" d="M 5.001399 5.000213 L 91.306155 5.000213 " stroke="#f2f2f2" stroke-width="10" stroke-opacity="1" stroke-miterlimit="4"/><path stroke-linecap="round" transform="matrix(0.748891, 0, 0, 0.748891, 825.635047, 547.021013)" fill="none" stroke-linejoin="miter" d="M 4.999208 5.000213 L 91.303965 5.000213 " stroke="#f2f2f2" stroke-width="10" stroke-opacity="1" stroke-miterlimit="4"/></svg>