<svg xmlns="http://www.w3.org/2000/svg" xmlns:xlink="http://www.w3.org/1999/xlink" width="1720" zoomAndPan="magnify" viewBox="0 0 1290 675.000002" height="900" preserveAspectRatio="xMidYMid meet" version="1.0"><defs><clipPath id="8b28e13d44"><path d="M 119.316406 281.691406 L 1170.683594 281.691406 L 1170.683594 392.3125 L 119.316406 392.3125 Z M 119.316406 281.691406 " clip-rule="nonzero"/></clipPath><clipPath id="57952722ac"><path d="M 134.292969 281.691406 L 1155.707031 281.691406 C 1159.679688 281.691406 1163.488281 283.269531 1166.296875 286.078125 C 1169.105469 288.886719 1170.683594 292.695312 1170.683594 296.667969 L 1170.683594 377.332031 C 1170.683594 381.304688 1169.105469 385.113281 1166.296875 387.925781 C 1163.488281 390.734375 1159.679688 392.3125 1155.707031 392.3125 L 134.292969 392.3125 C 130.320312 392.3125 126.511719 390.734375 123.703125 387.925781 C 120.894531 385.113281 119.316406 381.304688 119.316406 377.332031 L 119.316406 296.667969 C 119.316406 292.695312 120.894531 288.886719 123.703125 286.078125 C 126.511719 283.269531 130.320312 281.691406 134.292969 281.691406 Z M 134.292969 281.691406 " clip-rule="nonzero"/></clipPath><clipPath id="26e4b1db92"><path d="M 155.492188 308.726562 L 212.039062 308.726562 L 212.039062 365.273438 L 155.492188 365.273438 Z M 155.492188 308.726562 " clip-rule="nonzero"/></clipPath><clipPath id="3cf8d84a17"><path d="M 183.765625 308.726562 C 168.148438 308.726562 155.492188 321.386719 155.492188 337 C 155.492188 352.617188 168.148438 365.273438 183.765625 365.273438 C 199.378906 365.273438 212.039062 352.617188 212.039062 337 C 212.039062 321.386719 199.378906 308.726562 183.765625 308.726562 Z M 183.765625 308.726562 " clip-rule="nonzero"/></clipPath><clipPath id="12fefbe761"><path d="M 1014.457031 307.824219 L 1133.617188 307.824219 L 1133.617188 365.273438 L 1014.457031 365.273438 Z M 1014.457031 307.824219 " clip-rule="nonzero"/></clipPath><clipPath id="b3aaf932c4"><path d="M 1024.941406 307.824219 L 1123.132812 307.824219 C 1128.921875 307.824219 1133.617188 312.519531 1133.617188 318.308594 L 1133.617188 354.789062 C 1133.617188 360.582031 1128.921875 365.273438 1123.132812 365.273438 L 1024.941406 365.273438 C 1019.152344 365.273438 1014.457031 360.582031 1014.457031 354.789062 L 1014.457031 318.308594 C 1014.457031 312.519531 1019.152344 307.824219 1024.941406 307.824219 Z M 1024.941406 307.824219 " clip-rule="nonzero"/></clipPath></defs><g clip-path="url(#8b28e13d44)"><g clip-path="url(#57952722ac)"><path fill="#f2f2f2" d="M 119.316406 281.691406 L 1170.683594 281.691406 L 1170.683594 392.3125 L 119.316406 392.3125 Z M 119.316406 281.691406 " fill-opacity="1" fill-rule="nonzero"/></g></g><g clip-path="url(#26e4b1db92)"><g clip-path="url(#3cf8d84a17)"><path fill="#0097b2" d="M 155.492188 308.726562 L 212.039062 308.726562 L 212.039062 365.273438 L 155.492188 365.273438 Z M 155.492188 308.726562 " fill-opacity="1" fill-rule="nonzero"/></g></g><path stroke-linecap="round" transform="matrix(0.748891, 0, 0, 0.748891, 656.780248, 337.000747)" fill="none" stroke-linejoin="miter" d="M 4.998313 5.001195 L 125.426466 5.001195 " stroke="#737373" stroke-width="10" stroke-opacity="1" stroke-miterlimit="4"/><path stroke-linecap="round" transform="matrix(0.748891, 0, 0, 0.748891, 263.141436, 337.000747)" fill="none" stroke-linejoin="miter" d="M 5.001108 5.001195 L 125.424045 5.001195 " stroke="#737373" stroke-width="10" stroke-opacity="1" stroke-miterlimit="4"/><path stroke-linecap="round" transform="matrix(0.748891, 0, 0, 0.748891, 392.611031, 337.000747)" fill="none" stroke-linejoin="miter" d="M 4.99998 5.001195 L 125.422917 5.001195 " stroke="#737373" stroke-width="10" stroke-opacity="1" stroke-miterlimit="4"/><path stroke-linecap="round" transform="matrix(0.748891, 0, 0, 0.748891, 523.984588, 337.000747)" fill="none" stroke-linejoin="miter" d="M 5.001907 5.001195 L 125.424844 5.001195 " stroke="#737373" stroke-width="10" stroke-opacity="1" stroke-miterlimit="4"/><g clip-path="url(#12fefbe761)"><g clip-path="url(#b3aaf932c4)"><path fill="#0097b2" d="M 1014.457031 307.824219 L 1133.617188 307.824219 L 1133.617188 365.273438 L 1014.457031 365.273438 Z M 1014.457031 307.824219 " fill-opacity="1" fill-rule="nonzero"/></g></g><path stroke-linecap="round" transform="matrix(0.748891, -0.000000000000001579, 0.000000000000001579, 0.748891, 1033.247864, 333.256294)" fill="none" stroke-linejoin="miter" d="M 4.999828 4.999003 L 103.93264 4.999003 " stroke="#ffffff" stroke-width="10" stroke-opacity="1" stroke-miterlimit="4"/></svg>