<svg xmlns="http://www.w3.org/2000/svg" xmlns:xlink="http://www.w3.org/1999/xlink" width="1720" zoomAndPan="magnify" viewBox="0 0 1290 675.000002" height="900" preserveAspectRatio="xMidYMid meet" version="1.0"><defs><g/><clipPath id="b603c18f24"><path d="M 233.4375 286.449219 L 998.433594 286.449219 L 998.433594 387.550781 L 233.4375 387.550781 Z M 233.4375 286.449219 " clip-rule="nonzero"/></clipPath><clipPath id="c52d5832ba"><path d="M 248.414062 286.449219 L 983.457031 286.449219 C 987.429688 286.449219 991.238281 288.027344 994.046875 290.835938 C 996.855469 293.644531 998.433594 297.457031 998.433594 301.429688 L 998.433594 372.574219 C 998.433594 376.546875 996.855469 380.355469 994.046875 383.164062 C 991.238281 385.972656 987.429688 387.550781 983.457031 387.550781 L 248.414062 387.550781 C 244.441406 387.550781 240.632812 385.972656 237.824219 383.164062 C 235.015625 380.355469 233.4375 376.546875 233.4375 372.574219 L 233.4375 301.429688 C 233.4375 297.457031 235.015625 293.644531 237.824219 290.835938 C 240.632812 288.027344 244.441406 286.449219 248.414062 286.449219 Z M 248.414062 286.449219 " clip-rule="nonzero"/></clipPath><clipPath id="14dacb73bd"><path d="M 495.023438 286.453125 L 624.488281 286.453125 L 624.488281 387.546875 L 495.023438 387.546875 Z M 495.023438 286.453125 " clip-rule="nonzero"/></clipPath><clipPath id="b1e7242457"><path d="M 284 316.390625 L 306.921875 316.390625 L 306.921875 357.582031 L 284 357.582031 Z M 284 316.390625 " clip-rule="nonzero"/></clipPath><clipPath id="3e8a0f5d49"><path d="M 926.386719 316.414062 L 949.601562 316.414062 L 949.601562 357.605469 L 926.386719 357.605469 Z M 926.386719 316.414062 " clip-rule="nonzero"/></clipPath></defs><g clip-path="url(#b603c18f24)"><g clip-path="url(#c52d5832ba)"><path fill="#f2f2f2" d="M 233.4375 286.449219 L 998.433594 286.449219 L 998.433594 387.550781 L 233.4375 387.550781 Z M 233.4375 286.449219 " fill-opacity="1" fill-rule="nonzero"/></g></g><path stroke-linecap="butt" transform="matrix(0.00000000130706, 0.748891, -0.748891, 0.00000000130706, 364.315812, 286.450638)" fill="none" stroke-linejoin="miter" d="M -0.00189458 2.00217 L 134.999901 2.00217 " stroke="#d9d9d9" stroke-width="4" stroke-opacity="1" stroke-miterlimit="4"/><path stroke-linecap="butt" transform="matrix(0, 0.748891, -0.748891, 0, 751.496061, 286.450638)" fill="none" stroke-linejoin="miter" d="M -0.00189458 1.997703 L 134.999901 1.997703 " stroke="#d9d9d9" stroke-width="4" stroke-opacity="1" stroke-miterlimit="4"/><path stroke-linecap="butt" transform="matrix(0, 0.748891, -0.748891, 0, 871.71791, 286.450638)" fill="none" stroke-linejoin="miter" d="M -0.00189458 2.001841 L 134.999901 2.001841 " stroke="#d9d9d9" stroke-width="4" stroke-opacity="1" stroke-miterlimit="4"/><g clip-path="url(#14dacb73bd)"><path stroke-linecap="butt" transform="matrix(0.748891, 0, 0, 0.748891, 495.022176, 286.452715)" fill="none" stroke-linejoin="miter" d="M 0.00168408 0.000547071 L 172.877204 0.000547071 L 172.877204 134.991902 L 0.00168408 134.991902 Z M 0.00168408 0.000547071 " stroke="#0097b2" stroke-width="12" stroke-opacity="1" stroke-miterlimit="4"/></g><g clip-path="url(#b1e7242457)"><path fill="#737373" d="M 284.753906 338.609375 L 302.859375 356.714844 C 303.742188 357.601562 305.175781 357.601562 306.058594 356.714844 C 306.921875 355.832031 306.921875 354.421875 306.058594 353.539062 L 289.53125 337.007812 L 306.058594 320.480469 C 306.921875 319.59375 306.921875 318.164062 306.058594 317.277344 C 305.175781 316.394531 303.742188 316.394531 302.859375 317.277344 L 284.730469 335.410156 C 283.84375 336.292969 283.84375 337.726562 284.753906 338.609375 Z M 284.753906 338.609375 " fill-opacity="1" fill-rule="evenodd"/></g><g clip-path="url(#3e8a0f5d49)"><path fill="#737373" d="M 948.554688 335.386719 L 930.449219 317.277344 C 929.566406 316.394531 928.132812 316.394531 927.246094 317.277344 C 926.386719 318.164062 926.386719 319.570312 927.246094 320.457031 L 943.777344 336.984375 L 927.246094 353.515625 C 926.386719 354.398438 926.386719 355.832031 927.246094 356.714844 C 928.132812 357.601562 929.566406 357.601562 930.449219 356.714844 L 948.578125 338.585938 C 949.464844 337.703125 949.464844 336.269531 948.554688 335.386719 Z M 948.554688 335.386719 " fill-opacity="1" fill-rule="evenodd"/></g><g fill="#000000" fill-opacity="1"><g transform="translate(421.939018, 350.480776)"><g><path d="M 7.78125 -27.953125 L 12.578125 -27.953125 L 12.578125 0 L 7.0625 0 L 7.0625 -22.125 L 1.796875 -20.640625 L 0.4375 -25.359375 Z M 7.78125 -27.953125 "/></g></g></g><g fill="#000000" fill-opacity="1"><g transform="translate(545.801937, 350.480776)"><g><path d="M 1.078125 0 L 1.078125 -4.109375 L 10.625 -13.9375 C 12.75 -16.175781 13.8125 -18.039062 13.8125 -19.53125 C 13.8125 -20.625 13.472656 -21.5 12.796875 -22.15625 C 12.117188 -22.820312 11.25 -23.15625 10.1875 -23.15625 C 8.082031 -23.15625 6.523438 -22.066406 5.515625 -19.890625 L 0.875 -22.609375 C 1.757812 -24.523438 3.023438 -25.988281 4.671875 -27 C 6.328125 -28.007812 8.140625 -28.515625 10.109375 -28.515625 C 12.628906 -28.515625 14.796875 -27.722656 16.609375 -26.140625 C 18.421875 -24.554688 19.328125 -22.421875 19.328125 -19.734375 C 19.328125 -16.828125 17.796875 -13.84375 14.734375 -10.78125 L 9.265625 -5.3125 L 19.765625 -5.3125 L 19.765625 0 Z M 1.078125 0 "/></g></g></g><g fill="#000000" fill-opacity="1"><g transform="translate(676.006197, 350.480776)"><g><path d="M 14.09375 -16.609375 C 15.988281 -16.054688 17.523438 -15.078125 18.703125 -13.671875 C 19.890625 -12.273438 20.484375 -10.59375 20.484375 -8.625 C 20.484375 -5.75 19.519531 -3.5 17.59375 -1.875 C 15.664062 -0.25 13.300781 0.5625 10.5 0.5625 C 8.320312 0.5625 6.375 0.0625 4.65625 -0.9375 C 2.9375 -1.9375 1.691406 -3.410156 0.921875 -5.359375 L 5.625 -8.0625 C 6.320312 -5.90625 7.945312 -4.828125 10.5 -4.828125 C 11.914062 -4.828125 13.015625 -5.164062 13.796875 -5.84375 C 14.578125 -6.53125 14.96875 -7.457031 14.96875 -8.625 C 14.96875 -9.769531 14.578125 -10.6875 13.796875 -11.375 C 13.015625 -12.070312 11.914062 -12.421875 10.5 -12.421875 L 9.3125 -12.421875 L 7.1875 -15.609375 L 12.703125 -22.796875 L 1.75 -22.796875 L 1.75 -27.953125 L 19.328125 -27.953125 L 19.328125 -23.40625 Z M 14.09375 -16.609375 "/></g></g></g><g fill="#000000" fill-opacity="1"><g transform="translate(798.566118, 350.480776)"><g><path d="M 22.609375 -9.859375 L 22.609375 -4.75 L 19.609375 -4.75 L 19.609375 0 L 14.0625 0 L 14.0625 -4.75 L 0.84375 -4.75 L 0.84375 -9.859375 L 10.140625 -27.953125 L 16.0625 -27.953125 L 6.796875 -9.859375 L 14.0625 -9.859375 L 14.0625 -16.5 L 19.609375 -16.5 L 19.609375 -9.859375 Z M 22.609375 -9.859375 "/></g></g></g></svg>