<svg xmlns="http://www.w3.org/2000/svg" xmlns:xlink="http://www.w3.org/1999/xlink" width="1720" zoomAndPan="magnify" viewBox="0 0 1290 675.000002" height="900" preserveAspectRatio="xMidYMid meet" version="1.0"><defs><filter x="0%" y="0%" width="100%" height="100%" id="40e560a149"><feColorMatrix values="0 0 0 0 1 0 0 0 0 1 0 0 0 0 1 0 0 0 1 0" color-interpolation-filters="sRGB"/></filter><clipPath id="2de4cbafe5"><path d="M 146.625 107.195312 L 1143.375 107.195312 L 1143.375 566.808594 L 146.625 566.808594 Z M 146.625 107.195312 " clip-rule="nonzero"/></clipPath><clipPath id="2762833095"><path d="M 184.066406 107.195312 L 1105.933594 107.195312 C 1126.613281 107.195312 1143.375 123.957031 1143.375 144.640625 L 1143.375 529.363281 C 1143.375 550.042969 1126.613281 566.808594 1105.933594 566.808594 L 184.066406 566.808594 C 163.386719 566.808594 146.625 550.042969 146.625 529.363281 L 146.625 144.640625 C 146.625 123.957031 163.386719 107.195312 184.066406 107.195312 Z M 184.066406 107.195312 " clip-rule="nonzero"/></clipPath><clipPath id="82b0e30d98"><path d="M 178.339844 136.894531 L 227.269531 136.894531 L 227.269531 185.824219 L 178.339844 185.824219 Z M 178.339844 136.894531 " clip-rule="nonzero"/></clipPath><clipPath id="8b27ace9b2"><path d="M 202.804688 136.894531 C 189.292969 136.894531 178.339844 147.847656 178.339844 161.359375 C 178.339844 174.871094 189.292969 185.824219 202.804688 185.824219 C 216.316406 185.824219 227.269531 174.871094 227.269531 161.359375 C 227.269531 147.847656 216.316406 136.894531 202.804688 136.894531 Z M 202.804688 136.894531 " clip-rule="nonzero"/></clipPath><clipPath id="6bb1c642fb"><path d="M 192.703125 495.621094 L 277.691406 495.621094 L 277.691406 539.335938 L 192.703125 539.335938 Z M 192.703125 495.621094 " clip-rule="nonzero"/></clipPath><clipPath id="4e61fd1be9"><path d="M 200.191406 495.621094 L 270.203125 495.621094 C 272.1875 495.621094 274.09375 496.410156 275.496094 497.8125 C 276.902344 499.21875 277.691406 501.121094 277.691406 503.109375 L 277.691406 531.847656 C 277.691406 533.832031 276.902344 535.738281 275.496094 537.144531 C 274.09375 538.546875 272.1875 539.335938 270.203125 539.335938 L 200.191406 539.335938 C 198.203125 539.335938 196.300781 538.546875 194.894531 537.144531 C 193.492188 535.738281 192.703125 533.832031 192.703125 531.847656 L 192.703125 503.109375 C 192.703125 501.121094 193.492188 499.21875 194.894531 497.8125 C 196.300781 496.410156 198.203125 495.621094 200.191406 495.621094 Z M 200.191406 495.621094 " clip-rule="nonzero"/></clipPath><clipPath id="354dc5e28d"><path d="M 294.410156 504.535156 L 314 504.535156 L 314 530.746094 L 294.410156 530.746094 Z M 294.410156 504.535156 " clip-rule="nonzero"/></clipPath><clipPath id="08a6729235"><path d="M 300 511 L 322.871094 511 L 322.871094 524 L 300 524 Z M 300 511 " clip-rule="nonzero"/></clipPath><mask id="02f4a22a59"><g filter="url(#40e560a149)"><rect x="-129" width="1548" fill="#000000" y="-67.5" height="810.000002" fill-opacity="0.5"/></g></mask><clipPath id="d364938c60"><path d="M 7.605469 94 L 294 94 L 294 232 L 7.605469 232 Z M 7.605469 94 " clip-rule="nonzero"/></clipPath><clipPath id="c64f83f189"><path d="M 8 8 L 295.179688 8 L 295.179688 294.855469 L 8 294.855469 Z M 8 8 " clip-rule="nonzero"/></clipPath><clipPath id="d7343b6731"><rect x="0" width="302" y="0" height="303"/></clipPath></defs><g clip-path="url(#2de4cbafe5)"><g clip-path="url(#2762833095)"><path fill="#f2f2f2" d="M 146.625 107.195312 L 1143.375 107.195312 L 1143.375 566.808594 L 146.625 566.808594 Z M 146.625 107.195312 " fill-opacity="1" fill-rule="nonzero"/></g></g><path stroke-linecap="butt" transform="matrix(0, 0.748891, -0.748891, 0, 375.073127, 107.196674)" fill="none" stroke-linejoin="miter" d="M -0.00181797 3.498512 L 613.723792 3.498512 " stroke="#d9d9d9" stroke-width="7" stroke-opacity="1" stroke-miterlimit="4"/><g clip-path="url(#82b0e30d98)"><g clip-path="url(#8b27ace9b2)"><path fill="#0097b2" d="M 178.339844 136.894531 L 227.269531 136.894531 L 227.269531 185.824219 L 178.339844 185.824219 Z M 178.339844 136.894531 " fill-opacity="1" fill-rule="nonzero"/></g></g><path stroke-linecap="round" transform="matrix(0.748891, 0, 0, 0.748891, 247.9585, 155.74331)" fill="none" stroke-linejoin="miter" d="M 7.498718 7.49918 L 115.277951 7.49918 " stroke="#737373" stroke-width="15" stroke-opacity="1" stroke-miterlimit="4"/><path stroke-linecap="round" transform="matrix(0.748891, -0.000000000000000186, 0.000000000000000186, 0.748891, 178.338509, 245.671618)" fill="none" stroke-linejoin="miter" d="M 7.502462 7.501022 L 208.24213 7.501022 " stroke="#a6a6a6" stroke-width="15" stroke-opacity="1" stroke-miterlimit="4"/><path stroke-linecap="round" transform="matrix(0.748891, -0.000000000000000186, 0.000000000000000186, 0.748891, 178.338509, 299.929701)" fill="none" stroke-linejoin="miter" d="M 7.502462 7.500661 L 208.24213 7.500661 " stroke="#a6a6a6" stroke-width="15" stroke-opacity="1" stroke-miterlimit="4"/><path stroke-linecap="round" transform="matrix(0.748891, -0.000000000000000186, 0.000000000000000186, 0.748891, 178.338509, 354.095607)" fill="none" stroke-linejoin="miter" d="M 7.502462 7.4982 L 208.24213 7.4982 " stroke="#a6a6a6" stroke-width="15" stroke-opacity="1" stroke-miterlimit="4"/><path stroke-linecap="round" transform="matrix(0.748891, 0, 0, 0.748891, 178.338509, 414.867146)" fill="none" stroke-linejoin="miter" d="M 7.502462 7.500735 L 208.24213 7.500735 " stroke="#a6a6a6" stroke-width="15" stroke-opacity="1" stroke-miterlimit="4"/><path stroke-linecap="butt" transform="matrix(0.748891, 0, 0, 0.748891, 146.623434, 469.133837)" fill="none" stroke-linejoin="miter" d="M 0.00209043 3.498602 L 301.552349 3.498602 " stroke="#d9d9d9" stroke-width="7" stroke-opacity="1" stroke-miterlimit="4"/><g clip-path="url(#6bb1c642fb)"><g clip-path="url(#4e61fd1be9)"><path fill="#0097b2" d="M 192.703125 495.621094 L 277.691406 495.621094 L 277.691406 539.335938 L 192.703125 539.335938 Z M 192.703125 495.621094 " fill-opacity="1" fill-rule="nonzero"/></g></g><path stroke-linecap="round" transform="matrix(0.748891, 0.000000000000001015, -0.000000000000001015, 0.748891, 203.773742, 513.733513)" fill="none" stroke-linejoin="miter" d="M 5.001785 4.998126 L 78.918424 4.998126 " stroke="#f2f2f2" stroke-width="10" stroke-opacity="1" stroke-miterlimit="4"/><g clip-path="url(#354dc5e28d)"><path fill="#737373" d="M 308.792969 530.417969 L 298.726562 530.417969 C 298.445312 530.417969 298.164062 530.390625 297.886719 530.335938 C 297.609375 530.277344 297.339844 530.195312 297.078125 530.089844 C 296.816406 529.980469 296.566406 529.847656 296.332031 529.691406 C 296.097656 529.53125 295.878906 529.355469 295.679688 529.152344 C 295.476562 528.953125 295.296875 528.734375 295.140625 528.5 C 294.984375 528.265625 294.851562 528.015625 294.742188 527.753906 C 294.632812 527.492188 294.550781 527.222656 294.496094 526.945312 C 294.441406 526.667969 294.414062 526.386719 294.414062 526.105469 L 294.414062 508.847656 C 294.414062 508.566406 294.441406 508.285156 294.496094 508.007812 C 294.550781 507.730469 294.632812 507.460938 294.742188 507.199219 C 294.851562 506.9375 294.984375 506.6875 295.140625 506.453125 C 295.296875 506.21875 295.476562 506 295.679688 505.800781 C 295.878906 505.597656 296.097656 505.421875 296.332031 505.261719 C 296.566406 505.105469 296.816406 504.972656 297.078125 504.863281 C 297.339844 504.753906 297.609375 504.671875 297.886719 504.617188 C 298.164062 504.5625 298.445312 504.535156 298.726562 504.535156 L 308.792969 504.535156 C 309.074219 504.535156 309.355469 504.5625 309.632812 504.617188 C 309.910156 504.671875 310.179688 504.753906 310.441406 504.863281 C 310.703125 504.972656 310.953125 505.105469 311.1875 505.261719 C 311.421875 505.421875 311.640625 505.597656 311.84375 505.800781 C 312.042969 506 312.222656 506.21875 312.378906 506.453125 C 312.535156 506.6875 312.667969 506.9375 312.777344 507.199219 C 312.886719 507.460938 312.96875 507.730469 313.023438 508.007812 C 313.078125 508.285156 313.105469 508.566406 313.105469 508.847656 L 313.105469 511.722656 C 313.105469 511.914062 313.070312 512.097656 312.996094 512.273438 C 312.925781 512.449219 312.820312 512.605469 312.683594 512.742188 C 312.550781 512.875 312.394531 512.980469 312.21875 513.054688 C 312.042969 513.125 311.859375 513.164062 311.667969 513.164062 C 311.476562 513.164062 311.292969 513.125 311.117188 513.054688 C 310.941406 512.980469 310.785156 512.875 310.652344 512.742188 C 310.515625 512.605469 310.414062 512.449219 310.339844 512.273438 C 310.265625 512.097656 310.230469 511.914062 310.230469 511.722656 L 310.230469 508.847656 C 310.230469 508.65625 310.195312 508.472656 310.121094 508.296875 C 310.046875 508.121094 309.945312 507.964844 309.808594 507.832031 C 309.675781 507.695312 309.519531 507.59375 309.34375 507.519531 C 309.167969 507.445312 308.984375 507.410156 308.792969 507.410156 L 298.726562 507.410156 C 298.535156 507.410156 298.351562 507.445312 298.175781 507.519531 C 298 507.59375 297.84375 507.695312 297.710938 507.832031 C 297.574219 507.964844 297.472656 508.121094 297.398438 508.296875 C 297.324219 508.472656 297.289062 508.65625 297.289062 508.847656 L 297.289062 526.105469 C 297.289062 526.292969 297.324219 526.476562 297.398438 526.65625 C 297.472656 526.832031 297.574219 526.984375 297.710938 527.121094 C 297.84375 527.253906 298 527.359375 298.175781 527.433594 C 298.351562 527.503906 298.535156 527.542969 298.726562 527.542969 L 308.792969 527.542969 C 308.984375 527.542969 309.167969 527.503906 309.34375 527.433594 C 309.519531 527.359375 309.675781 527.253906 309.808594 527.121094 C 309.945312 526.984375 310.046875 526.832031 310.121094 526.65625 C 310.195312 526.476562 310.230469 526.292969 310.230469 526.105469 L 310.230469 523.226562 C 310.230469 523.039062 310.265625 522.855469 310.339844 522.679688 C 310.414062 522.5 310.515625 522.347656 310.652344 522.210938 C 310.785156 522.078125 310.941406 521.972656 311.117188 521.898438 C 311.292969 521.828125 311.476562 521.789062 311.667969 521.789062 C 311.859375 521.789062 312.042969 521.828125 312.21875 521.898438 C 312.394531 521.972656 312.550781 522.078125 312.683594 522.210938 C 312.820312 522.347656 312.925781 522.5 312.996094 522.679688 C 313.070312 522.855469 313.105469 523.039062 313.105469 523.226562 L 313.105469 526.105469 C 313.105469 526.386719 313.078125 526.667969 313.023438 526.945312 C 312.96875 527.222656 312.886719 527.492188 312.777344 527.753906 C 312.667969 528.015625 312.535156 528.265625 312.378906 528.5 C 312.222656 528.734375 312.042969 528.953125 311.84375 529.152344 C 311.640625 529.355469 311.421875 529.53125 311.1875 529.691406 C 310.953125 529.847656 310.703125 529.980469 310.441406 530.089844 C 310.179688 530.195312 309.910156 530.277344 309.632812 530.335938 C 309.355469 530.390625 309.074219 530.417969 308.792969 530.417969 Z M 308.792969 530.417969 " fill-opacity="1" fill-rule="nonzero"/></g><g clip-path="url(#08a6729235)"><path fill="#737373" d="M 317.421875 523.226562 C 317.128906 523.226562 316.863281 523.148438 316.621094 522.984375 C 316.378906 522.824219 316.203125 522.609375 316.09375 522.339844 C 315.980469 522.070312 315.953125 521.796875 316.011719 521.511719 C 316.066406 521.226562 316.199219 520.980469 316.402344 520.773438 L 318.261719 518.914062 L 301.601562 518.914062 C 301.414062 518.914062 301.230469 518.878906 301.050781 518.804688 C 300.875 518.730469 300.722656 518.628906 300.585938 518.492188 C 300.453125 518.359375 300.347656 518.203125 300.273438 518.027344 C 300.203125 517.851562 300.164062 517.667969 300.164062 517.476562 C 300.164062 517.285156 300.203125 517.101562 300.273438 516.925781 C 300.347656 516.75 300.453125 516.59375 300.585938 516.460938 C 300.722656 516.324219 300.875 516.222656 301.050781 516.148438 C 301.230469 516.074219 301.414062 516.039062 301.601562 516.039062 L 318.261719 516.039062 L 316.402344 514.179688 C 316.273438 514.042969 316.171875 513.886719 316.101562 513.714844 C 316.03125 513.539062 316 513.355469 316 513.167969 C 316 512.980469 316.039062 512.796875 316.113281 512.625 C 316.183594 512.449219 316.289062 512.296875 316.421875 512.164062 C 316.554688 512.03125 316.707031 511.925781 316.882812 511.855469 C 317.054688 511.78125 317.238281 511.742188 317.425781 511.742188 C 317.613281 511.742188 317.796875 511.773438 317.972656 511.84375 C 318.144531 511.914062 318.300781 512.015625 318.4375 512.144531 L 322.75 516.460938 C 323.007812 516.710938 323.148438 517.015625 323.171875 517.375 C 323.179688 517.472656 323.175781 517.566406 323.164062 517.664062 C 323.128906 517.945312 323.015625 518.195312 322.832031 518.410156 C 322.804688 518.441406 322.777344 518.472656 322.746094 518.5 L 318.441406 522.804688 C 318.160156 523.089844 317.820312 523.230469 317.421875 523.226562 Z M 317.421875 523.226562 " fill-opacity="1" fill-rule="nonzero"/></g><g mask="url(#02f4a22a59)"><g transform="matrix(1, 0, 0, 1, 603, 186)"><g clip-path="url(#d7343b6731)"><g clip-path="url(#d364938c60)"><path fill="#a6a6a6" d="M 14.449219 231.890625 C 13.539062 231.902344 12.671875 231.730469 11.835938 231.371094 C 11 231.015625 10.277344 230.503906 9.65625 229.839844 C 9.335938 229.519531 9.050781 229.175781 8.796875 228.800781 C 8.546875 228.425781 8.332031 228.027344 8.160156 227.613281 C 7.984375 227.195312 7.855469 226.765625 7.765625 226.320312 C 7.679688 225.878906 7.632812 225.429688 7.632812 224.980469 C 7.632812 224.527344 7.679688 224.082031 7.765625 223.636719 C 7.855469 223.195312 7.984375 222.765625 8.160156 222.347656 C 8.332031 221.929688 8.546875 221.535156 8.796875 221.160156 C 9.050781 220.785156 9.335938 220.4375 9.65625 220.121094 L 93.835938 137.996094 C 94.152344 137.6875 94.496094 137.410156 94.867188 137.164062 C 95.238281 136.921875 95.628906 136.714844 96.039062 136.546875 C 96.449219 136.378906 96.871094 136.253906 97.308594 136.167969 C 97.742188 136.082031 98.183594 136.039062 98.625 136.039062 C 99.070312 136.039062 99.507812 136.082031 99.945312 136.167969 C 100.378906 136.253906 100.800781 136.378906 101.210938 136.546875 C 101.625 136.714844 102.015625 136.921875 102.382812 137.164062 C 102.753906 137.410156 103.097656 137.6875 103.414062 137.996094 L 135.855469 169.886719 L 215.925781 96.25 C 216.242188 95.964844 216.582031 95.714844 216.945312 95.492188 C 217.308594 95.269531 217.691406 95.085938 218.089844 94.933594 C 218.484375 94.78125 218.894531 94.664062 219.3125 94.589844 C 219.730469 94.511719 220.152344 94.472656 220.578125 94.472656 C 221.003906 94.472656 221.425781 94.511719 221.847656 94.589844 C 222.265625 94.664062 222.671875 94.78125 223.070312 94.933594 C 223.46875 95.085938 223.847656 95.269531 224.210938 95.492188 C 224.574219 95.714844 224.914062 95.964844 225.234375 96.25 L 292.027344 158.253906 C 292.320312 158.566406 292.582031 158.90625 292.8125 159.269531 C 293.042969 159.632812 293.234375 160.011719 293.394531 160.414062 C 293.550781 160.8125 293.671875 161.222656 293.753906 161.644531 C 293.832031 162.066406 293.875 162.492188 293.875 162.921875 C 293.875 163.351562 293.835938 163.777344 293.753906 164.199219 C 293.675781 164.621094 293.558594 165.03125 293.398438 165.433594 C 293.242188 165.832031 293.050781 166.214844 292.820312 166.578125 C 292.589844 166.941406 292.332031 167.28125 292.039062 167.59375 C 291.746094 167.910156 291.425781 168.191406 291.078125 168.449219 C 290.734375 168.703125 290.367188 168.921875 289.976562 169.105469 C 289.589844 169.292969 289.1875 169.4375 288.773438 169.546875 C 288.359375 169.65625 287.9375 169.726562 287.507812 169.757812 C 287.078125 169.785156 286.652344 169.777344 286.222656 169.726562 C 285.796875 169.675781 285.378906 169.585938 284.96875 169.457031 C 284.558594 169.328125 284.167969 169.160156 283.789062 168.957031 C 283.410156 168.753906 283.054688 168.515625 282.71875 168.246094 L 220.988281 110.621094 L 140.78125 184.398438 C 140.464844 184.691406 140.121094 184.949219 139.75 185.179688 C 139.382812 185.410156 138.996094 185.601562 138.59375 185.761719 C 138.191406 185.917969 137.773438 186.035156 137.347656 186.117188 C 136.921875 186.195312 136.492188 186.234375 136.058594 186.234375 C 135.625 186.234375 135.195312 186.195312 134.769531 186.117188 C 134.34375 186.035156 133.929688 185.917969 133.527344 185.761719 C 133.121094 185.601562 132.738281 185.410156 132.367188 185.179688 C 132 184.949219 131.65625 184.691406 131.339844 184.398438 L 99.035156 151.683594 L 19.648438 229.429688 C 19.007812 230.199219 18.230469 230.800781 17.320312 231.234375 C 16.410156 231.664062 15.453125 231.882812 14.449219 231.890625 Z M 14.449219 231.890625 " fill-opacity="1" fill-rule="nonzero"/></g><path fill="#a6a6a6" d="M 82.886719 107.746094 C 81.910156 107.753906 80.9375 107.707031 79.96875 107.617188 C 78.996094 107.527344 78.035156 107.386719 77.078125 107.203125 C 76.121094 107.015625 75.175781 106.78125 74.242188 106.503906 C 73.308594 106.222656 72.390625 105.898438 71.488281 105.53125 C 70.585938 105.160156 69.703125 104.75 68.84375 104.292969 C 67.980469 103.835938 67.144531 103.339844 66.332031 102.800781 C 65.519531 102.261719 64.734375 101.683594 63.980469 101.066406 C 63.226562 100.453125 62.503906 99.800781 61.8125 99.113281 C 61.121094 98.425781 60.464844 97.707031 59.84375 96.953125 C 59.222656 96.203125 58.640625 95.421875 58.097656 94.613281 C 57.554688 93.804688 57.050781 92.972656 56.589844 92.113281 C 56.128906 91.253906 55.710938 90.375 55.335938 89.476562 C 54.957031 88.578125 54.628906 87.660156 54.34375 86.726562 C 54.058594 85.796875 53.820312 84.851562 53.628906 83.898438 C 53.4375 82.941406 53.292969 81.980469 53.195312 81.007812 C 53.097656 80.039062 53.046875 79.066406 53.046875 78.09375 C 53.046875 77.117188 53.09375 76.144531 53.1875 75.175781 C 53.28125 74.203125 53.421875 73.242188 53.609375 72.285156 C 53.800781 71.328125 54.035156 70.386719 54.316406 69.453125 C 54.601562 68.519531 54.925781 67.601562 55.300781 66.703125 C 55.671875 65.800781 56.085938 64.921875 56.546875 64.058594 C 57.003906 63.199219 57.503906 62.367188 58.046875 61.554688 C 58.585938 60.746094 59.167969 59.960938 59.785156 59.207031 C 60.402344 58.457031 61.058594 57.734375 61.746094 57.042969 C 62.433594 56.355469 63.15625 55.703125 63.910156 55.082031 C 64.664062 54.464844 65.445312 53.886719 66.257812 53.34375 C 67.066406 52.804688 67.902344 52.304688 68.761719 51.84375 C 69.621094 51.386719 70.503906 50.96875 71.402344 50.597656 C 72.304688 50.226562 73.222656 49.898438 74.152344 49.617188 C 75.085938 49.332031 76.03125 49.097656 76.988281 48.910156 C 77.945312 48.71875 78.90625 48.578125 79.875 48.484375 C 80.847656 48.390625 81.820312 48.34375 82.792969 48.34375 C 83.769531 48.347656 84.742188 48.394531 85.710938 48.492188 C 86.679688 48.589844 87.644531 48.734375 88.597656 48.925781 C 89.554688 49.117188 90.5 49.359375 91.429688 49.640625 C 92.363281 49.925781 93.277344 50.257812 94.175781 50.632812 C 95.078125 51.007812 95.957031 51.425781 96.816406 51.886719 C 97.671875 52.347656 98.507812 52.851562 99.316406 53.394531 C 100.125 53.9375 100.90625 54.519531 101.65625 55.140625 C 102.410156 55.761719 103.128906 56.417969 103.816406 57.109375 C 104.5 57.800781 105.152344 58.523438 105.769531 59.277344 C 106.386719 60.035156 106.960938 60.820312 107.5 61.628906 C 108.039062 62.441406 108.539062 63.28125 108.992188 64.140625 C 109.449219 65.003906 109.863281 65.882812 110.230469 66.785156 C 110.601562 67.6875 110.925781 68.605469 111.207031 69.539062 C 111.484375 70.472656 111.71875 71.417969 111.902344 72.375 C 112.089844 73.332031 112.226562 74.296875 112.320312 75.265625 C 112.410156 76.234375 112.453125 77.207031 112.449219 78.183594 C 112.445312 79.148438 112.394531 80.113281 112.292969 81.078125 C 112.195312 82.039062 112.050781 82.992188 111.859375 83.941406 C 111.667969 84.890625 111.429688 85.824219 111.144531 86.75 C 110.863281 87.675781 110.535156 88.582031 110.164062 89.476562 C 109.789062 90.367188 109.375 91.242188 108.917969 92.09375 C 108.460938 92.945312 107.964844 93.773438 107.425781 94.578125 C 106.886719 95.378906 106.3125 96.15625 105.695312 96.902344 C 105.082031 97.648438 104.433594 98.363281 103.75 99.046875 C 103.066406 99.734375 102.351562 100.382812 101.605469 100.996094 C 100.855469 101.609375 100.082031 102.183594 99.277344 102.722656 C 98.472656 103.261719 97.648438 103.757812 96.792969 104.214844 C 95.941406 104.675781 95.070312 105.089844 94.175781 105.460938 C 93.285156 105.832031 92.375 106.160156 91.453125 106.445312 C 90.527344 106.726562 89.589844 106.964844 88.644531 107.15625 C 87.695312 107.347656 86.742188 107.496094 85.777344 107.59375 C 84.816406 107.691406 83.851562 107.742188 82.886719 107.746094 Z M 82.886719 62.167969 C 82.359375 62.164062 81.835938 62.1875 81.3125 62.234375 C 80.789062 62.28125 80.269531 62.351562 79.753906 62.449219 C 79.238281 62.550781 78.726562 62.671875 78.222656 62.820312 C 77.71875 62.96875 77.222656 63.144531 76.734375 63.339844 C 76.25 63.539062 75.773438 63.757812 75.308594 64.003906 C 74.84375 64.246094 74.390625 64.511719 73.949219 64.800781 C 73.511719 65.089844 73.089844 65.398438 72.679688 65.730469 C 72.269531 66.058594 71.878906 66.410156 71.503906 66.777344 C 71.132812 67.148438 70.777344 67.535156 70.441406 67.9375 C 70.105469 68.339844 69.789062 68.761719 69.492188 69.195312 C 69.199219 69.628906 68.925781 70.078125 68.675781 70.539062 C 68.425781 71.003906 68.195312 71.476562 67.992188 71.960938 C 67.789062 72.445312 67.609375 72.9375 67.453125 73.4375 C 67.296875 73.941406 67.167969 74.449219 67.0625 74.964844 C 66.957031 75.476562 66.875 75.996094 66.820312 76.519531 C 66.765625 77.042969 66.738281 77.566406 66.734375 78.089844 C 66.730469 78.617188 66.753906 79.140625 66.800781 79.664062 C 66.851562 80.1875 66.925781 80.707031 67.023438 81.222656 C 67.125 81.738281 67.25 82.25 67.398438 82.75 C 67.550781 83.253906 67.722656 83.75 67.921875 84.238281 C 68.121094 84.722656 68.34375 85.199219 68.589844 85.664062 C 68.835938 86.128906 69.101562 86.578125 69.390625 87.019531 C 69.679688 87.457031 69.992188 87.878906 70.324219 88.285156 C 70.65625 88.695312 71.007812 89.085938 71.375 89.457031 C 71.746094 89.832031 72.132812 90.183594 72.539062 90.519531 C 72.941406 90.855469 73.363281 91.167969 73.796875 91.460938 C 74.234375 91.757812 74.683594 92.027344 75.144531 92.277344 C 75.609375 92.527344 76.082031 92.753906 76.566406 92.957031 C 77.050781 93.160156 77.546875 93.335938 78.046875 93.492188 C 78.550781 93.644531 79.058594 93.773438 79.574219 93.878906 C 80.089844 93.984375 80.605469 94.0625 81.128906 94.113281 C 81.652344 94.167969 82.175781 94.195312 82.703125 94.195312 C 83.226562 94.199219 83.75 94.175781 84.273438 94.125 C 84.796875 94.074219 85.316406 94 85.832031 93.898438 C 86.347656 93.796875 86.859375 93.667969 87.359375 93.519531 C 87.863281 93.367188 88.359375 93.191406 88.84375 92.992188 C 89.332031 92.789062 89.804688 92.566406 90.269531 92.320312 C 90.734375 92.074219 91.183594 91.804688 91.621094 91.515625 C 92.058594 91.222656 92.480469 90.910156 92.886719 90.578125 C 93.292969 90.246094 93.683594 89.894531 94.054688 89.523438 C 94.425781 89.152344 94.78125 88.761719 95.113281 88.359375 C 95.449219 87.953125 95.761719 87.53125 96.054688 87.09375 C 96.347656 86.65625 96.617188 86.207031 96.863281 85.746094 C 97.113281 85.28125 97.335938 84.808594 97.539062 84.320312 C 97.738281 83.835938 97.917969 83.34375 98.070312 82.839844 C 98.222656 82.335938 98.351562 81.828125 98.453125 81.3125 C 98.554688 80.796875 98.632812 80.277344 98.683594 79.753906 C 98.738281 79.234375 98.761719 78.707031 98.761719 78.183594 C 98.761719 77.136719 98.660156 76.101562 98.457031 75.074219 C 98.253906 74.050781 97.953125 73.054688 97.554688 72.085938 C 97.160156 71.121094 96.671875 70.199219 96.09375 69.328125 C 95.515625 68.457031 94.855469 67.648438 94.121094 66.90625 C 93.382812 66.164062 92.582031 65.5 91.714844 64.914062 C 90.851562 64.328125 89.933594 63.832031 88.972656 63.425781 C 88.007812 63.019531 87.015625 62.710938 85.988281 62.5 C 84.964844 62.289062 83.929688 62.179688 82.886719 62.167969 Z M 82.886719 62.167969 " fill-opacity="1" fill-rule="nonzero"/><g clip-path="url(#c64f83f189)"><path fill="#a6a6a6" d="M 247.132812 294.988281 L 55.511719 294.988281 C 53.957031 294.976562 52.410156 294.886719 50.867188 294.726562 C 49.324219 294.5625 47.792969 294.324219 46.273438 294.011719 C 44.753906 293.699219 43.25 293.3125 41.769531 292.855469 C 40.285156 292.394531 38.828125 291.867188 37.398438 291.265625 C 35.964844 290.667969 34.566406 290 33.203125 289.261719 C 31.835938 288.527344 30.507812 287.726562 29.21875 286.863281 C 27.929688 285.996094 26.6875 285.070312 25.488281 284.085938 C 24.289062 283.097656 23.140625 282.058594 22.042969 280.960938 C 20.949219 279.863281 19.90625 278.714844 18.921875 277.515625 C 17.933594 276.316406 17.007812 275.074219 16.144531 273.785156 C 15.277344 272.496094 14.480469 271.171875 13.742188 269.804688 C 13.007812 268.4375 12.339844 267.039062 11.738281 265.609375 C 11.140625 264.175781 10.609375 262.71875 10.152344 261.238281 C 9.691406 259.753906 9.308594 258.253906 8.996094 256.734375 C 8.683594 255.210938 8.445312 253.679688 8.28125 252.136719 C 8.117188 250.59375 8.027344 249.046875 8.015625 247.496094 L 8.015625 55.871094 C 8.027344 54.320312 8.117188 52.773438 8.28125 51.230469 C 8.445312 49.6875 8.683594 48.15625 8.996094 46.636719 C 9.308594 45.113281 9.691406 43.613281 10.152344 42.132812 C 10.609375 40.648438 11.140625 39.191406 11.738281 37.761719 C 12.339844 36.328125 13.007812 34.929688 13.742188 33.5625 C 14.480469 32.199219 15.277344 30.871094 16.144531 29.582031 C 17.007812 28.292969 17.933594 27.050781 18.921875 25.851562 C 19.90625 24.652344 20.949219 23.503906 22.042969 22.40625 C 23.140625 21.308594 24.289062 20.269531 25.488281 19.28125 C 26.6875 18.296875 27.929688 17.371094 29.21875 16.507812 C 30.507812 15.640625 31.835938 14.839844 33.203125 14.105469 C 34.566406 13.371094 35.964844 12.703125 37.398438 12.101562 C 38.828125 11.5 40.285156 10.972656 41.769531 10.515625 C 43.25 10.054688 44.753906 9.667969 46.273438 9.359375 C 47.792969 9.046875 49.324219 8.808594 50.867188 8.644531 C 52.410156 8.480469 53.957031 8.390625 55.511719 8.378906 L 247.132812 8.378906 C 248.703125 8.378906 250.265625 8.453125 251.828125 8.609375 C 253.390625 8.761719 254.941406 8.992188 256.480469 9.296875 C 258.015625 9.605469 259.539062 9.984375 261.039062 10.441406 C 262.539062 10.894531 264.015625 11.425781 265.464844 12.023438 C 266.914062 12.625 268.332031 13.292969 269.714844 14.035156 C 271.097656 14.773438 272.441406 15.578125 273.746094 16.453125 C 275.050781 17.324219 276.3125 18.257812 277.523438 19.253906 C 278.738281 20.246094 279.898438 21.300781 281.007812 22.410156 C 282.117188 23.519531 283.167969 24.679688 284.164062 25.890625 C 285.160156 27.105469 286.09375 28.363281 286.964844 29.667969 C 287.835938 30.972656 288.640625 32.316406 289.382812 33.699219 C 290.121094 35.085938 290.792969 36.5 291.390625 37.949219 C 291.992188 39.398438 292.519531 40.875 292.976562 42.378906 C 293.429688 43.878906 293.8125 45.398438 294.117188 46.9375 C 294.425781 48.476562 294.652344 50.027344 294.808594 51.589844 C 294.960938 53.148438 295.039062 54.714844 295.039062 56.285156 L 295.039062 247.496094 C 295.023438 249.054688 294.933594 250.613281 294.769531 252.164062 C 294.605469 253.714844 294.363281 255.253906 294.046875 256.78125 C 293.730469 258.3125 293.34375 259.820312 292.878906 261.308594 C 292.414062 262.800781 291.882812 264.265625 291.273438 265.703125 C 290.667969 267.140625 289.992188 268.542969 289.25 269.917969 C 288.503906 271.289062 287.695312 272.621094 286.824219 273.914062 C 285.949219 275.207031 285.015625 276.453125 284.019531 277.65625 C 283.023438 278.855469 281.972656 280.003906 280.863281 281.105469 C 279.753906 282.203125 278.59375 283.246094 277.386719 284.230469 C 276.175781 285.214844 274.921875 286.140625 273.621094 287.003906 C 272.320312 287.867188 270.980469 288.664062 269.601562 289.394531 C 268.222656 290.125 266.8125 290.789062 265.371094 291.382812 C 263.929688 291.976562 262.460938 292.5 260.964844 292.949219 C 259.472656 293.402344 257.960938 293.777344 256.429688 294.078125 C 254.898438 294.382812 253.355469 294.609375 251.804688 294.761719 C 250.25 294.914062 248.691406 294.992188 247.132812 294.988281 Z M 55.511719 22.066406 C 54.390625 22.066406 53.273438 22.121094 52.15625 22.230469 C 51.042969 22.339844 49.933594 22.503906 48.835938 22.722656 C 47.734375 22.941406 46.648438 23.214844 45.578125 23.539062 C 44.503906 23.863281 43.449219 24.242188 42.414062 24.667969 C 41.378906 25.097656 40.367188 25.578125 39.378906 26.105469 C 38.390625 26.632812 37.429688 27.210938 36.5 27.832031 C 35.566406 28.453125 34.667969 29.121094 33.800781 29.832031 C 32.9375 30.542969 32.105469 31.296875 31.3125 32.085938 C 30.523438 32.878906 29.769531 33.710938 29.058594 34.574219 C 28.347656 35.441406 27.679688 36.339844 27.058594 37.273438 C 26.4375 38.203125 25.859375 39.164062 25.332031 40.152344 C 24.804688 41.140625 24.324219 42.152344 23.898438 43.1875 C 23.46875 44.222656 23.089844 45.277344 22.765625 46.351562 C 22.441406 47.421875 22.167969 48.507812 21.949219 49.609375 C 21.730469 50.707031 21.566406 51.8125 21.457031 52.929688 C 21.347656 54.042969 21.292969 55.164062 21.292969 56.285156 L 21.292969 247.496094 C 21.292969 248.617188 21.347656 249.734375 21.457031 250.847656 C 21.566406 251.964844 21.730469 253.070312 21.949219 254.171875 C 22.167969 255.269531 22.441406 256.355469 22.765625 257.429688 C 23.089844 258.5 23.46875 259.554688 23.898438 260.589844 C 24.324219 261.625 24.804688 262.636719 25.332031 263.625 C 25.859375 264.613281 26.4375 265.574219 27.058594 266.503906 C 27.679688 267.4375 28.347656 268.335938 29.058594 269.203125 C 29.769531 270.070312 30.523438 270.898438 31.3125 271.691406 C 32.105469 272.484375 32.9375 273.234375 33.800781 273.945312 C 34.667969 274.65625 35.566406 275.324219 36.5 275.945312 C 37.429688 276.570312 38.390625 277.144531 39.378906 277.671875 C 40.367188 278.203125 41.378906 278.679688 42.414062 279.109375 C 43.449219 279.539062 44.503906 279.914062 45.578125 280.238281 C 46.648438 280.566406 47.734375 280.835938 48.835938 281.054688 C 49.933594 281.273438 51.042969 281.4375 52.15625 281.546875 C 53.273438 281.660156 54.390625 281.714844 55.511719 281.714844 L 247.132812 281.714844 C 248.253906 281.714844 249.371094 281.660156 250.488281 281.546875 C 251.601562 281.4375 252.710938 281.273438 253.808594 281.054688 C 254.90625 280.835938 255.992188 280.566406 257.066406 280.238281 C 258.136719 279.914062 259.191406 279.539062 260.226562 279.109375 C 261.261719 278.679688 262.273438 278.203125 263.261719 277.671875 C 264.25 277.144531 265.210938 276.570312 266.144531 275.945312 C 267.074219 275.324219 267.972656 274.65625 268.839844 273.945312 C 269.707031 273.234375 270.535156 272.484375 271.328125 271.691406 C 272.121094 270.898438 272.871094 270.070312 273.582031 269.203125 C 274.292969 268.335938 274.960938 267.4375 275.585938 266.503906 C 276.207031 265.574219 276.78125 264.613281 277.308594 263.625 C 277.839844 262.636719 278.316406 261.625 278.746094 260.589844 C 279.175781 259.554688 279.550781 258.5 279.878906 257.429688 C 280.203125 256.355469 280.476562 255.269531 280.695312 254.171875 C 280.914062 253.070312 281.078125 251.964844 281.1875 250.847656 C 281.296875 249.734375 281.351562 248.617188 281.351562 247.496094 L 281.351562 55.871094 C 281.351562 54.753906 281.296875 53.632812 281.1875 52.519531 C 281.078125 51.402344 280.914062 50.296875 280.695312 49.195312 C 280.476562 48.097656 280.203125 47.011719 279.878906 45.941406 C 279.550781 44.867188 279.175781 43.8125 278.746094 42.777344 C 278.316406 41.742188 277.839844 40.730469 277.308594 39.742188 C 276.78125 38.753906 276.207031 37.792969 275.585938 36.863281 C 274.960938 35.929688 274.292969 35.03125 273.582031 34.164062 C 272.871094 33.296875 272.121094 32.46875 271.328125 31.675781 C 270.535156 30.882812 269.707031 30.132812 268.839844 29.421875 C 267.972656 28.710938 267.074219 28.042969 266.144531 27.421875 C 265.210938 26.796875 264.25 26.222656 263.261719 25.695312 C 262.273438 25.167969 261.261719 24.6875 260.226562 24.257812 C 259.191406 23.832031 258.136719 23.453125 257.066406 23.128906 C 255.992188 22.800781 254.90625 22.53125 253.808594 22.3125 C 252.710938 22.09375 251.601562 21.929688 250.488281 21.820312 C 249.371094 21.710938 248.253906 21.65625 247.132812 21.65625 Z M 55.511719 22.066406 " fill-opacity="1" fill-rule="nonzero"/></g></g></g></g></svg>