<svg xmlns="http://www.w3.org/2000/svg" xmlns:xlink="http://www.w3.org/1999/xlink" width="1720" zoomAndPan="magnify" viewBox="0 0 1290 675.000002" height="900" preserveAspectRatio="xMidYMid meet" version="1.0"><defs><g/><clipPath id="8e9352e084"><path d="M 171.980469 299.554688 L 374.179688 299.554688 L 374.179688 374.445312 L 171.980469 374.445312 Z M 171.980469 299.554688 " clip-rule="nonzero"/></clipPath><clipPath id="7b0f28669d"><path d="M 186.957031 299.554688 L 359.203125 299.554688 C 363.175781 299.554688 366.984375 301.132812 369.792969 303.941406 C 372.601562 306.753906 374.179688 310.5625 374.179688 314.535156 L 374.179688 359.46875 C 374.179688 363.441406 372.601562 367.25 369.792969 370.058594 C 366.984375 372.867188 363.175781 374.445312 359.203125 374.445312 L 186.957031 374.445312 C 182.984375 374.445312 179.175781 372.867188 176.367188 370.058594 C 173.558594 367.25 171.980469 363.441406 171.980469 359.46875 L 171.980469 314.535156 C 171.980469 310.5625 173.558594 306.753906 176.367188 303.941406 C 179.175781 301.132812 182.984375 299.554688 186.957031 299.554688 Z M 186.957031 299.554688 " clip-rule="nonzero"/></clipPath></defs><g clip-path="url(#8e9352e084)"><g clip-path="url(#7b0f28669d)"><path fill="#0097b2" d="M 171.980469 299.554688 L 374.179688 299.554688 L 374.179688 374.445312 L 171.980469 374.445312 Z M 171.980469 299.554688 " fill-opacity="1" fill-rule="nonzero"/></g></g><g fill="#f2f2f2" fill-opacity="1"><g transform="translate(234.875151, 346.736323)"><g><path d="M 16.609375 -22.015625 L 16.609375 -17.859375 L 10.65625 -17.859375 L 10.65625 0 L 6.328125 0 L 6.328125 -17.859375 L 0.40625 -17.859375 L 0.40625 -22.015625 Z M 16.609375 -22.015625 "/></g></g></g><g fill="#f2f2f2" fill-opacity="1"><g transform="translate(251.860004, 346.736323)"><g><path d="M 13.8125 -15.734375 L 17.859375 -15.734375 L 17.859375 0 L 13.8125 0 L 13.8125 -1.859375 C 12.59375 -0.328125 10.882812 0.4375 8.6875 0.4375 C 6.582031 0.4375 4.78125 -0.363281 3.28125 -1.96875 C 1.78125 -3.570312 1.03125 -5.535156 1.03125 -7.859375 C 1.03125 -10.191406 1.78125 -12.160156 3.28125 -13.765625 C 4.78125 -15.367188 6.582031 -16.171875 8.6875 -16.171875 C 10.882812 -16.171875 12.59375 -15.40625 13.8125 -13.875 Z M 6.3125 -4.65625 C 7.132812 -3.832031 8.175781 -3.421875 9.4375 -3.421875 C 10.695312 -3.421875 11.738281 -3.832031 12.5625 -4.65625 C 13.394531 -5.488281 13.8125 -6.554688 13.8125 -7.859375 C 13.8125 -9.160156 13.394531 -10.222656 12.5625 -11.046875 C 11.738281 -11.878906 10.695312 -12.296875 9.4375 -12.296875 C 8.175781 -12.296875 7.132812 -11.878906 6.3125 -11.046875 C 5.5 -10.222656 5.09375 -9.160156 5.09375 -7.859375 C 5.09375 -6.554688 5.5 -5.488281 6.3125 -4.65625 Z M 6.3125 -4.65625 "/></g></g></g><g fill="#f2f2f2" fill-opacity="1"><g transform="translate(271.549862, 346.736323)"><g><path d="M 11.015625 -16.171875 C 13.128906 -16.171875 14.9375 -15.367188 16.4375 -13.765625 C 17.9375 -12.160156 18.6875 -10.191406 18.6875 -7.859375 C 18.6875 -5.535156 17.9375 -3.570312 16.4375 -1.96875 C 14.9375 -0.363281 13.128906 0.4375 11.015625 0.4375 C 8.804688 0.4375 7.101562 -0.328125 5.90625 -1.859375 L 5.90625 0 L 1.859375 0 L 1.859375 -22.015625 L 5.90625 -22.015625 L 5.90625 -13.875 C 7.101562 -15.40625 8.804688 -16.171875 11.015625 -16.171875 Z M 7.125 -4.65625 C 7.945312 -3.832031 8.988281 -3.421875 10.25 -3.421875 C 11.507812 -3.421875 12.550781 -3.832031 13.375 -4.65625 C 14.207031 -5.488281 14.625 -6.554688 14.625 -7.859375 C 14.625 -9.160156 14.207031 -10.222656 13.375 -11.046875 C 12.550781 -11.878906 11.507812 -12.296875 10.25 -12.296875 C 8.988281 -12.296875 7.945312 -11.878906 7.125 -11.046875 C 6.3125 -10.222656 5.90625 -9.160156 5.90625 -7.859375 C 5.90625 -6.554688 6.3125 -5.488281 7.125 -4.65625 Z M 7.125 -4.65625 "/></g></g></g><g fill="#f2f2f2" fill-opacity="1"><g transform="translate(291.23972, 346.736323)"><g/></g></g><g fill="#f2f2f2" fill-opacity="1"><g transform="translate(299.103081, 346.736323)"><g><path d="M 6.140625 -22.015625 L 9.90625 -22.015625 L 9.90625 0 L 5.5625 0 L 5.5625 -17.421875 L 1.421875 -16.265625 L 0.34375 -19.96875 Z M 6.140625 -22.015625 "/></g></g></g><g fill="#000000" fill-opacity="1"><g transform="translate(975.683871, 346.736323)"><g><path d="M 16.609375 -22.015625 L 16.609375 -17.859375 L 10.65625 -17.859375 L 10.65625 0 L 6.328125 0 L 6.328125 -17.859375 L 0.40625 -17.859375 L 0.40625 -22.015625 Z M 16.609375 -22.015625 "/></g></g></g><g fill="#000000" fill-opacity="1"><g transform="translate(992.668725, 346.736323)"><g><path d="M 13.8125 -15.734375 L 17.859375 -15.734375 L 17.859375 0 L 13.8125 0 L 13.8125 -1.859375 C 12.59375 -0.328125 10.882812 0.4375 8.6875 0.4375 C 6.582031 0.4375 4.78125 -0.363281 3.28125 -1.96875 C 1.78125 -3.570312 1.03125 -5.535156 1.03125 -7.859375 C 1.03125 -10.191406 1.78125 -12.160156 3.28125 -13.765625 C 4.78125 -15.367188 6.582031 -16.171875 8.6875 -16.171875 C 10.882812 -16.171875 12.59375 -15.40625 13.8125 -13.875 Z M 6.3125 -4.65625 C 7.132812 -3.832031 8.175781 -3.421875 9.4375 -3.421875 C 10.695312 -3.421875 11.738281 -3.832031 12.5625 -4.65625 C 13.394531 -5.488281 13.8125 -6.554688 13.8125 -7.859375 C 13.8125 -9.160156 13.394531 -10.222656 12.5625 -11.046875 C 11.738281 -11.878906 10.695312 -12.296875 9.4375 -12.296875 C 8.175781 -12.296875 7.132812 -11.878906 6.3125 -11.046875 C 5.5 -10.222656 5.09375 -9.160156 5.09375 -7.859375 C 5.09375 -6.554688 5.5 -5.488281 6.3125 -4.65625 Z M 6.3125 -4.65625 "/></g></g></g><g fill="#000000" fill-opacity="1"><g transform="translate(1012.358583, 346.736323)"><g><path d="M 11.015625 -16.171875 C 13.128906 -16.171875 14.9375 -15.367188 16.4375 -13.765625 C 17.9375 -12.160156 18.6875 -10.191406 18.6875 -7.859375 C 18.6875 -5.535156 17.9375 -3.570312 16.4375 -1.96875 C 14.9375 -0.363281 13.128906 0.4375 11.015625 0.4375 C 8.804688 0.4375 7.101562 -0.328125 5.90625 -1.859375 L 5.90625 0 L 1.859375 0 L 1.859375 -22.015625 L 5.90625 -22.015625 L 5.90625 -13.875 C 7.101562 -15.40625 8.804688 -16.171875 11.015625 -16.171875 Z M 7.125 -4.65625 C 7.945312 -3.832031 8.988281 -3.421875 10.25 -3.421875 C 11.507812 -3.421875 12.550781 -3.832031 13.375 -4.65625 C 14.207031 -5.488281 14.625 -6.554688 14.625 -7.859375 C 14.625 -9.160156 14.207031 -10.222656 13.375 -11.046875 C 12.550781 -11.878906 11.507812 -12.296875 10.25 -12.296875 C 8.988281 -12.296875 7.945312 -11.878906 7.125 -11.046875 C 6.3125 -10.222656 5.90625 -9.160156 5.90625 -7.859375 C 5.90625 -6.554688 6.3125 -5.488281 7.125 -4.65625 Z M 7.125 -4.65625 "/></g></g></g><g fill="#000000" fill-opacity="1"><g transform="translate(1032.04844, 346.736323)"><g/></g></g><g fill="#000000" fill-opacity="1"><g transform="translate(1039.911802, 346.736323)"><g><path d="M 17.796875 -7.765625 L 17.796875 -3.75 L 15.4375 -3.75 L 15.4375 0 L 11.078125 0 L 11.078125 -3.75 L 0.65625 -3.75 L 0.65625 -7.765625 L 7.984375 -22.015625 L 12.640625 -22.015625 L 5.34375 -7.765625 L 11.078125 -7.765625 L 11.078125 -12.984375 L 15.4375 -12.984375 L 15.4375 -7.765625 Z M 17.796875 -7.765625 "/></g></g></g><g fill="#000000" fill-opacity="1"><g transform="translate(728.351129, 346.736323)"><g><path d="M 16.609375 -22.015625 L 16.609375 -17.859375 L 10.65625 -17.859375 L 10.65625 0 L 6.328125 0 L 6.328125 -17.859375 L 0.40625 -17.859375 L 0.40625 -22.015625 Z M 16.609375 -22.015625 "/></g></g></g><g fill="#000000" fill-opacity="1"><g transform="translate(745.335983, 346.736323)"><g><path d="M 13.8125 -15.734375 L 17.859375 -15.734375 L 17.859375 0 L 13.8125 0 L 13.8125 -1.859375 C 12.59375 -0.328125 10.882812 0.4375 8.6875 0.4375 C 6.582031 0.4375 4.78125 -0.363281 3.28125 -1.96875 C 1.78125 -3.570312 1.03125 -5.535156 1.03125 -7.859375 C 1.03125 -10.191406 1.78125 -12.160156 3.28125 -13.765625 C 4.78125 -15.367188 6.582031 -16.171875 8.6875 -16.171875 C 10.882812 -16.171875 12.59375 -15.40625 13.8125 -13.875 Z M 6.3125 -4.65625 C 7.132812 -3.832031 8.175781 -3.421875 9.4375 -3.421875 C 10.695312 -3.421875 11.738281 -3.832031 12.5625 -4.65625 C 13.394531 -5.488281 13.8125 -6.554688 13.8125 -7.859375 C 13.8125 -9.160156 13.394531 -10.222656 12.5625 -11.046875 C 11.738281 -11.878906 10.695312 -12.296875 9.4375 -12.296875 C 8.175781 -12.296875 7.132812 -11.878906 6.3125 -11.046875 C 5.5 -10.222656 5.09375 -9.160156 5.09375 -7.859375 C 5.09375 -6.554688 5.5 -5.488281 6.3125 -4.65625 Z M 6.3125 -4.65625 "/></g></g></g><g fill="#000000" fill-opacity="1"><g transform="translate(765.02584, 346.736323)"><g><path d="M 11.015625 -16.171875 C 13.128906 -16.171875 14.9375 -15.367188 16.4375 -13.765625 C 17.9375 -12.160156 18.6875 -10.191406 18.6875 -7.859375 C 18.6875 -5.535156 17.9375 -3.570312 16.4375 -1.96875 C 14.9375 -0.363281 13.128906 0.4375 11.015625 0.4375 C 8.804688 0.4375 7.101562 -0.328125 5.90625 -1.859375 L 5.90625 0 L 1.859375 0 L 1.859375 -22.015625 L 5.90625 -22.015625 L 5.90625 -13.875 C 7.101562 -15.40625 8.804688 -16.171875 11.015625 -16.171875 Z M 7.125 -4.65625 C 7.945312 -3.832031 8.988281 -3.421875 10.25 -3.421875 C 11.507812 -3.421875 12.550781 -3.832031 13.375 -4.65625 C 14.207031 -5.488281 14.625 -6.554688 14.625 -7.859375 C 14.625 -9.160156 14.207031 -10.222656 13.375 -11.046875 C 12.550781 -11.878906 11.507812 -12.296875 10.25 -12.296875 C 8.988281 -12.296875 7.945312 -11.878906 7.125 -11.046875 C 6.3125 -10.222656 5.90625 -9.160156 5.90625 -7.859375 C 5.90625 -6.554688 6.3125 -5.488281 7.125 -4.65625 Z M 7.125 -4.65625 "/></g></g></g><g fill="#000000" fill-opacity="1"><g transform="translate(784.715698, 346.736323)"><g/></g></g><g fill="#000000" fill-opacity="1"><g transform="translate(792.57906, 346.736323)"><g><path d="M 11.109375 -13.078125 C 12.597656 -12.640625 13.804688 -11.867188 14.734375 -10.765625 C 15.671875 -9.671875 16.140625 -8.347656 16.140625 -6.796875 C 16.140625 -4.523438 15.378906 -2.75 13.859375 -1.46875 C 12.335938 -0.195312 10.472656 0.4375 8.265625 0.4375 C 6.546875 0.4375 5.007812 0.046875 3.65625 -0.734375 C 2.3125 -1.523438 1.332031 -2.6875 0.71875 -4.21875 L 4.4375 -6.359375 C 4.976562 -4.660156 6.253906 -3.8125 8.265625 -3.8125 C 9.378906 -3.8125 10.242188 -4.078125 10.859375 -4.609375 C 11.484375 -5.140625 11.796875 -5.867188 11.796875 -6.796875 C 11.796875 -7.691406 11.484375 -8.410156 10.859375 -8.953125 C 10.242188 -9.503906 9.378906 -9.78125 8.265625 -9.78125 L 7.328125 -9.78125 L 5.65625 -12.296875 L 10 -17.953125 L 1.390625 -17.953125 L 1.390625 -22.015625 L 15.21875 -22.015625 L 15.21875 -18.4375 Z M 11.109375 -13.078125 "/></g></g></g><g fill="#000000" fill-opacity="1"><g transform="translate(480.678974, 346.736323)"><g><path d="M 16.609375 -22.015625 L 16.609375 -17.859375 L 10.65625 -17.859375 L 10.65625 0 L 6.328125 0 L 6.328125 -17.859375 L 0.40625 -17.859375 L 0.40625 -22.015625 Z M 16.609375 -22.015625 "/></g></g></g><g fill="#000000" fill-opacity="1"><g transform="translate(497.663828, 346.736323)"><g><path d="M 13.8125 -15.734375 L 17.859375 -15.734375 L 17.859375 0 L 13.8125 0 L 13.8125 -1.859375 C 12.59375 -0.328125 10.882812 0.4375 8.6875 0.4375 C 6.582031 0.4375 4.78125 -0.363281 3.28125 -1.96875 C 1.78125 -3.570312 1.03125 -5.535156 1.03125 -7.859375 C 1.03125 -10.191406 1.78125 -12.160156 3.28125 -13.765625 C 4.78125 -15.367188 6.582031 -16.171875 8.6875 -16.171875 C 10.882812 -16.171875 12.59375 -15.40625 13.8125 -13.875 Z M 6.3125 -4.65625 C 7.132812 -3.832031 8.175781 -3.421875 9.4375 -3.421875 C 10.695312 -3.421875 11.738281 -3.832031 12.5625 -4.65625 C 13.394531 -5.488281 13.8125 -6.554688 13.8125 -7.859375 C 13.8125 -9.160156 13.394531 -10.222656 12.5625 -11.046875 C 11.738281 -11.878906 10.695312 -12.296875 9.4375 -12.296875 C 8.175781 -12.296875 7.132812 -11.878906 6.3125 -11.046875 C 5.5 -10.222656 5.09375 -9.160156 5.09375 -7.859375 C 5.09375 -6.554688 5.5 -5.488281 6.3125 -4.65625 Z M 6.3125 -4.65625 "/></g></g></g><g fill="#000000" fill-opacity="1"><g transform="translate(517.353685, 346.736323)"><g><path d="M 11.015625 -16.171875 C 13.128906 -16.171875 14.9375 -15.367188 16.4375 -13.765625 C 17.9375 -12.160156 18.6875 -10.191406 18.6875 -7.859375 C 18.6875 -5.535156 17.9375 -3.570312 16.4375 -1.96875 C 14.9375 -0.363281 13.128906 0.4375 11.015625 0.4375 C 8.804688 0.4375 7.101562 -0.328125 5.90625 -1.859375 L 5.90625 0 L 1.859375 0 L 1.859375 -22.015625 L 5.90625 -22.015625 L 5.90625 -13.875 C 7.101562 -15.40625 8.804688 -16.171875 11.015625 -16.171875 Z M 7.125 -4.65625 C 7.945312 -3.832031 8.988281 -3.421875 10.25 -3.421875 C 11.507812 -3.421875 12.550781 -3.832031 13.375 -4.65625 C 14.207031 -5.488281 14.625 -6.554688 14.625 -7.859375 C 14.625 -9.160156 14.207031 -10.222656 13.375 -11.046875 C 12.550781 -11.878906 11.507812 -12.296875 10.25 -12.296875 C 8.988281 -12.296875 7.945312 -11.878906 7.125 -11.046875 C 6.3125 -10.222656 5.90625 -9.160156 5.90625 -7.859375 C 5.90625 -6.554688 6.3125 -5.488281 7.125 -4.65625 Z M 7.125 -4.65625 "/></g></g></g><g fill="#000000" fill-opacity="1"><g transform="translate(537.043543, 346.736323)"><g/></g></g><g fill="#000000" fill-opacity="1"><g transform="translate(544.906905, 346.736323)"><g><path d="M 0.84375 0 L 0.84375 -3.234375 L 8.359375 -10.984375 C 10.035156 -12.742188 10.875 -14.207031 10.875 -15.375 C 10.875 -16.238281 10.609375 -16.929688 10.078125 -17.453125 C 9.546875 -17.984375 8.859375 -18.25 8.015625 -18.25 C 6.359375 -18.25 5.132812 -17.382812 4.34375 -15.65625 L 0.6875 -17.796875 C 1.382812 -19.304688 2.378906 -20.457031 3.671875 -21.25 C 4.972656 -22.050781 6.398438 -22.453125 7.953125 -22.453125 C 9.953125 -22.453125 11.660156 -21.828125 13.078125 -20.578125 C 14.503906 -19.335938 15.21875 -17.65625 15.21875 -15.53125 C 15.21875 -13.25 14.015625 -10.90625 11.609375 -8.5 L 7.296875 -4.1875 L 15.5625 -4.1875 L 15.5625 0 Z M 0.84375 0 "/></g></g></g></svg>