<svg xmlns="http://www.w3.org/2000/svg" xmlns:xlink="http://www.w3.org/1999/xlink" width="1720" zoomAndPan="magnify" viewBox="0 0 1290 675.000002" height="900" preserveAspectRatio="xMidYMid meet" version="1.0"><path stroke-linecap="round" transform="matrix(0.748891, 0.000000000000000036, -0.000000000000000036, 0.748891, 412.697806, 112.743022)" fill="none" stroke-linejoin="miter" d="M 7.502566 7.499565 L 584.37157 7.499565 " stroke="#737373" stroke-width="15" stroke-opacity="1" stroke-miterlimit="4"/><path stroke-linecap="round" transform="matrix(0.748891, 0.000000000000000069, -0.000000000000000069, 0.748891, 412.697806, 165.823202)" fill="none" stroke-linejoin="miter" d="M 7.502566 7.502038 L 302.694461 7.502038 " stroke="#a6a6a6" stroke-width="15" stroke-opacity="1" stroke-miterlimit="4"/><path stroke-linecap="round" transform="matrix(0.748891, 0, 0, 0.748891, 412.697806, 223.360313)" fill="none" stroke-linejoin="miter" d="M 7.502566 7.499427 L 391.195174 7.499427 " stroke="#737373" stroke-width="15" stroke-opacity="1" stroke-miterlimit="4"/><path stroke-linecap="round" transform="matrix(0.748891, 0, 0, 0.748891, 737.024405, 223.360313)" fill="none" stroke-linejoin="miter" d="M 7.499387 7.499427 L 151.295442 7.499427 " stroke="#545454" stroke-width="15" stroke-opacity="1" stroke-miterlimit="4"/><path stroke-linecap="round" transform="matrix(0.748891, 0, 0, 0.748891, 412.697806, 289.117038)" fill="none" stroke-linejoin="miter" d="M 7.502566 7.500879 L 584.37157 7.500879 " stroke="#737373" stroke-width="15" stroke-opacity="1" stroke-miterlimit="4"/><path stroke-linecap="round" transform="matrix(0.748891, 0, 0, 0.748891, 412.697806, 363.093321)" fill="none" stroke-linejoin="miter" d="M 7.502566 7.501252 L 191.848191 7.501252 " stroke="#a6a6a6" stroke-width="15" stroke-opacity="1" stroke-miterlimit="4"/><path stroke-linecap="round" transform="matrix(0.748891, 0, 0, 0.748891, 587.733958, 363.093321)" fill="none" stroke-linejoin="miter" d="M 7.501236 7.501252 L 191.846861 7.501252 " stroke="#a6a6a6" stroke-width="15" stroke-opacity="1" stroke-miterlimit="4"/><path stroke-linecap="round" transform="matrix(0.748891, 0.000000000000002462, -0.000000000000002462, 0.748891, 765.310107, 363.093321)" fill="none" stroke-linejoin="miter" d="M 7.498658 7.501252 L 113.525298 7.501252 " stroke="#737373" stroke-width="15" stroke-opacity="1" stroke-miterlimit="4"/><path stroke-linecap="round" transform="matrix(0.748882, -0.00349337, 0.00349337, 0.748882, 412.671564, 428.027513)" fill="none" stroke-linejoin="miter" d="M 7.497491 7.498997 L 425.578862 7.498427 " stroke="#737373" stroke-width="15" stroke-opacity="1" stroke-miterlimit="4"/><path stroke-linecap="round" transform="matrix(0.748873, 0.00511158, -0.00511158, 0.748873, 412.709908, 493.082684)" fill="none" stroke-linejoin="miter" d="M 7.501267 7.500942 L 288.475506 7.497431 " stroke="#545454" stroke-width="15" stroke-opacity="1" stroke-miterlimit="4"/><path stroke-linecap="round" transform="matrix(0.748884, 0.00321314, -0.00321314, 0.748884, 412.721866, 564.189442)" fill="none" stroke-linejoin="miter" d="M 7.497481 7.502499 L 463.353068 7.497436 " stroke="#a6a6a6" stroke-width="15" stroke-opacity="1" stroke-miterlimit="4"/></svg>