<svg xmlns="http://www.w3.org/2000/svg" xmlns:xlink="http://www.w3.org/1999/xlink" width="1000" zoomAndPan="magnify" viewBox="0 0 750 749.999995" height="1000" preserveAspectRatio="xMidYMid meet" version="1.0"><path fill="#04c4f4" d="M 661.675781 208.027344 C 661.6875 209.890625 661.859375 210.554688 662.0625 209.5 C 662.265625 208.449219 662.257812 206.921875 662.046875 206.113281 C 661.832031 205.304688 661.667969 206.164062 661.675781 208.027344 M 635.214844 260.527344 C 633.15625 262.621094 631.664062 264.335938 631.898438 264.335938 C 632.128906 264.335938 634.003906 262.621094 636.0625 260.527344 C 638.117188 258.429688 639.609375 256.71875 639.378906 256.71875 C 639.144531 256.71875 637.273438 258.429688 635.214844 260.527344 M 591.605469 284.699219 C 590.425781 285.234375 590.941406 285.308594 593.300781 284.953125 C 595.164062 284.667969 596.847656 284.296875 597.039062 284.125 C 597.765625 283.484375 593.230469 283.964844 591.605469 284.699219 M 272.59375 287.8125 C 274.105469 288 276.582031 288 278.097656 287.8125 C 279.609375 287.625 278.371094 287.472656 275.34375 287.472656 C 272.316406 287.472656 271.078125 287.625 272.59375 287.8125 M 284.808594 287.632812 C 285.371094 288.195312 493.945312 288.191406 494.507812 287.628906 C 494.742188 287.390625 447.558594 287.199219 389.65625 287.199219 C 331.753906 287.199219 284.570312 287.394531 284.808594 287.632812 M 495.613281 287.597656 C 496.261719 288.242188 548.742188 288.429688 549.386719 287.789062 C 549.710938 287.464844 537.652344 287.199219 522.597656 287.199219 C 507.539062 287.199219 495.398438 287.378906 495.613281 287.597656 M 556.253906 287.820312 C 558.234375 287.996094 561.472656 287.996094 563.453125 287.820312 C 565.429688 287.640625 563.8125 287.496094 559.851562 287.496094 C 555.894531 287.496094 554.273438 287.640625 556.253906 287.820312 M 568.53125 287.785156 C 569.347656 287.996094 570.679688 287.996094 571.496094 287.785156 C 572.3125 287.570312 571.644531 287.398438 570.015625 287.398438 C 568.382812 287.398438 567.71875 287.570312 568.53125 287.785156 M 509.894531 370.554688 C 509.894531 371.691406 510.207031 372.816406 510.589844 373.050781 C 510.96875 373.285156 511.117188 372.355469 510.914062 370.984375 C 510.472656 367.957031 509.894531 367.714844 509.894531 370.554688 M 433.898438 484.230469 C 434.714844 484.441406 436.046875 484.441406 436.863281 484.230469 C 437.679688 484.015625 437.011719 483.84375 435.382812 483.84375 C 433.75 483.84375 433.085938 484.015625 433.898438 484.230469 M 275.15625 485.960938 C 277.148438 486.140625 280.195312 486.136719 281.929688 485.957031 C 283.664062 485.773438 282.035156 485.628906 278.308594 485.628906 C 274.582031 485.632812 273.164062 485.78125 275.15625 485.960938 M 253.753906 488.726562 C 251.597656 489.652344 253.820312 489.652344 256.71875 488.726562 C 258.417969 488.183594 258.5 488.042969 257.140625 488.023438 C 256.207031 488.011719 254.683594 488.328125 253.753906 488.726562 " fill-opacity="1" fill-rule="evenodd"/><path fill="#04c4ec" d="M 359.386719 173.503906 C 361.132812 173.6875 363.988281 173.6875 365.734375 173.503906 C 367.480469 173.324219 366.054688 173.171875 362.5625 173.171875 C 359.066406 173.171875 357.640625 173.324219 359.386719 173.503906 M 370.402344 485.945312 C 371.691406 486.140625 373.597656 486.136719 374.636719 485.9375 C 375.679688 485.734375 374.625 485.574219 372.296875 485.582031 C 369.96875 485.585938 369.117188 485.753906 370.402344 485.945312 " fill-opacity="1" fill-rule="evenodd"/><path fill="#04bcec" d="M 510.953125 172.675781 C 522.945312 172.808594 542.570312 172.808594 554.5625 172.675781 C 566.554688 172.542969 556.742188 172.4375 532.757812 172.4375 C 508.773438 172.4375 498.960938 172.542969 510.953125 172.675781 M 349.648438 173.484375 C 350.695312 173.6875 352.410156 173.6875 353.457031 173.484375 C 354.507812 173.285156 353.648438 173.121094 351.554688 173.121094 C 349.457031 173.121094 348.601562 173.285156 349.648438 173.484375 M 400.875 173.523438 C 415.195312 173.652344 438.628906 173.652344 452.949219 173.523438 C 467.273438 173.390625 455.554688 173.285156 426.914062 173.285156 C 398.273438 173.285156 386.554688 173.390625 400.875 173.523438 M 663.398438 196.175781 C 663.40625 198.503906 663.570312 199.355469 663.765625 198.070312 C 663.960938 196.78125 663.953125 194.875 663.753906 193.835938 C 663.550781 192.792969 663.390625 193.847656 663.398438 196.175781 M 261.675781 260.738281 C 261.507812 262.484375 261.589844 266.960938 261.855469 270.6875 C 262.316406 277.21875 262.339844 277.105469 262.488281 267.511719 C 262.640625 257.703125 262.261719 254.539062 261.675781 260.738281 M 499.109375 288.652344 C 500.398438 288.847656 502.304688 288.84375 503.34375 288.644531 C 504.386719 288.441406 503.332031 288.28125 501.003906 288.289062 C 498.675781 288.292969 497.824219 288.460938 499.109375 288.652344 M 512.667969 400.664062 C 512.667969 402.761719 512.832031 403.617188 513.03125 402.570312 C 513.234375 401.523438 513.234375 399.808594 513.03125 398.757812 C 512.832031 397.710938 512.667969 398.570312 512.667969 400.664062 M 285.71875 485.921875 C 286.53125 486.136719 287.867188 486.136719 288.683594 485.921875 C 289.496094 485.710938 288.828125 485.535156 287.199219 485.535156 C 285.570312 485.535156 284.902344 485.710938 285.71875 485.921875 M 392.410156 485.957031 C 394.15625 486.140625 397.011719 486.140625 398.757812 485.957031 C 400.503906 485.773438 399.078125 485.621094 395.582031 485.621094 C 392.089844 485.621094 390.660156 485.773438 392.410156 485.957031 M 416.976562 485.945312 C 418.265625 486.140625 420.167969 486.136719 421.207031 485.9375 C 422.25 485.734375 421.199219 485.574219 418.871094 485.582031 C 416.539062 485.585938 415.6875 485.753906 416.976562 485.945312 M 264.550781 487.617188 C 265.363281 487.828125 266.699219 487.828125 267.511719 487.617188 C 268.328125 487.402344 267.660156 487.230469 266.03125 487.230469 C 264.402344 487.230469 263.734375 487.402344 264.550781 487.617188 " fill-opacity="1" fill-rule="evenodd"/><path fill="#16c6ee" d="M 636.144531 145.441406 C 623.527344 157.984375 608.929688 166.117188 590.335938 170.957031 C 584.351562 172.515625 566.253906 172.835938 438.34375 173.65625 L 337.582031 174.304688 L 329.960938 176.65625 C 325.769531 177.949219 321.769531 179.058594 321.070312 179.121094 C 320.371094 179.1875 319.609375 179.476562 319.375 179.765625 C 318.613281 180.71875 306.816406 186.289062 306.316406 185.933594 C 306.046875 185.746094 306.011719 185.835938 306.238281 186.140625 C 306.460938 186.441406 303.890625 188.625 300.519531 190.988281 C 284.429688 202.289062 271.445312 220.78125 265.800781 240.425781 C 264.699219 244.277344 263.617188 247.242188 263.394531 247.023438 C 262.679688 246.308594 263.046875 283.34375 263.769531 284.804688 C 264.152344 285.585938 265.042969 286.441406 265.746094 286.710938 C 267.488281 287.382812 582.847656 287.398438 584.890625 286.730469 C 585.792969 286.4375 587.480469 285.847656 588.644531 285.429688 C 589.808594 285.003906 592.664062 284.269531 594.992188 283.792969 C 601.097656 282.546875 601.066406 282.554688 602.316406 281.546875 C 603.421875 280.65625 608.355469 279.308594 609.492188 279.585938 C 609.796875 279.660156 610.28125 279.351562 610.5625 278.898438 C 610.847656 278.449219 612.988281 277.023438 615.316406 275.738281 C 617.644531 274.449219 619.738281 273.125 619.972656 272.792969 C 620.207031 272.464844 621.691406 271.53125 623.273438 270.71875 C 633.882812 265.28125 651.082031 242.933594 657.136719 226.710938 C 658.171875 223.949219 659.246094 221.3125 659.527344 220.855469 C 659.8125 220.402344 660.144531 219.042969 660.269531 217.839844 C 660.394531 216.632812 660.957031 212.792969 661.519531 209.300781 C 664.945312 188.019531 661.410156 168.179688 650.816406 149.210938 C 643.925781 136.882812 644.585938 137.050781 636.144531 145.441406 M 518.605469 288.671875 C 521.300781 288.84375 525.492188 288.839844 527.921875 288.667969 C 530.347656 288.5 528.140625 288.363281 523.019531 288.363281 C 517.898438 288.367188 515.910156 288.503906 518.605469 288.671875 M 489.933594 339.0625 C 488.65625 340.578125 487.257812 341.710938 486.832031 341.582031 C 486.410156 341.457031 486.277344 341.699219 486.539062 342.125 C 487.378906 343.484375 467.792969 358.328125 465.160156 358.328125 C 464.730469 358.328125 463.953125 358.835938 463.4375 359.460938 C 462.917969 360.082031 460.871094 361.074219 458.890625 361.664062 C 456.902344 362.253906 454.882812 363.058594 454.398438 363.453125 C 452.679688 364.847656 439.484375 368.585938 433.03125 369.507812 C 428.914062 370.09375 397.011719 370.65625 346.894531 371.023438 C 271.855469 371.578125 266.746094 371.710938 257.5625 373.347656 C 239.09375 376.640625 216.988281 383.847656 202.949219 391.148438 C 201.085938 392.117188 197.75 393.75 195.539062 394.773438 C 193.328125 395.800781 191.515625 396.902344 191.515625 397.222656 C 191.515625 397.546875 190.277344 398.457031 188.765625 399.253906 C 186.125 400.636719 183.382812 402.386719 175.328125 407.832031 C 173.289062 409.210938 171.332031 410.261719 170.984375 410.160156 C 170.632812 410.0625 170.445312 410.308594 170.558594 410.707031 C 170.675781 411.109375 167.722656 413.917969 163.996094 416.953125 C 151.003906 427.535156 134.402344 446.457031 125.394531 460.957031 C 123.722656 463.648438 122.007812 465.570312 121.585938 465.222656 C 121.160156 464.878906 121.078125 464.921875 121.402344 465.320312 C 121.726562 465.722656 119.933594 470.105469 117.421875 475.058594 C 109.121094 491.433594 106.570312 497.753906 103.375 509.894531 C 102.460938 513.386719 101.355469 517.007812 100.921875 517.9375 C 100.492188 518.871094 99.539062 523.632812 98.804688 528.523438 C 98.070312 533.414062 97.003906 539.699219 96.441406 542.496094 C 93.515625 556.929688 96.371094 596.988281 101.488281 613.402344 C 102.742188 617.425781 105.148438 617.578125 105.148438 613.632812 C 105.148438 612.871094 105.488281 612.460938 105.898438 612.714844 C 106.3125 612.972656 106.628906 612.707031 106.601562 612.132812 C 106.503906 610.1875 107.894531 605.578125 108.574219 605.578125 C 108.945312 605.578125 109.5 604.429688 109.808594 603.03125 C 110.113281 601.628906 110.710938 600.695312 111.136719 600.957031 C 111.558594 601.21875 111.675781 600.835938 111.394531 600.109375 C 111.117188 599.378906 111.371094 598.199219 111.960938 597.488281 C 112.550781 596.777344 113.910156 594.304688 114.980469 591.996094 C 116.050781 589.6875 117.386719 587.796875 117.953125 587.796875 C 118.515625 587.796875 118.730469 587.546875 118.425781 587.242188 C 117.480469 586.296875 128.105469 569.089844 133.765625 562.394531 C 134.753906 561.230469 137.058594 558.488281 138.890625 556.304688 C 140.726562 554.121094 142.457031 552.566406 142.738281 552.847656 C 143.023438 553.128906 143.253906 552.730469 143.253906 551.957031 C 143.253906 550.488281 153.46875 539.847656 160.472656 534.027344 C 162.714844 532.164062 164.996094 530.25 165.542969 529.777344 C 171.964844 524.195312 190.085938 511.589844 191.679688 511.589844 C 192.144531 511.589844 193.628906 510.804688 194.980469 509.84375 C 196.328125 508.882812 197.816406 508.332031 198.285156 508.621094 C 198.753906 508.910156 199.136719 508.554688 199.136719 507.828125 C 199.136719 507.101562 199.761719 506.507812 200.519531 506.507812 C 201.28125 506.507812 203.089844 505.78125 204.542969 504.890625 C 205.996094 504 207.945312 503.140625 208.875 502.984375 C 209.808594 502.828125 210.949219 502.265625 211.414062 501.734375 C 211.882812 501.207031 214.261719 500.125 216.707031 499.339844 C 219.152344 498.546875 221.152344 497.636719 221.152344 497.308594 C 221.152344 496.984375 222.027344 496.644531 223.097656 496.558594 C 224.164062 496.46875 226.683594 495.816406 228.6875 495.105469 C 230.699219 494.398438 232.683594 494.027344 233.097656 494.285156 C 233.515625 494.542969 233.855469 494.390625 233.855469 493.941406 C 233.855469 493.492188 235.855469 492.660156 238.300781 492.085938 C 240.746094 491.511719 243.316406 490.75 244.015625 490.390625 C 244.714844 490.035156 247.304688 489.527344 249.769531 489.261719 C 252.238281 488.996094 254.601562 488.566406 255.019531 488.304688 C 257.988281 486.472656 278.003906 485.855469 351.554688 485.339844 C 395.5625 485.03125 432.714844 484.5 434.109375 484.164062 C 435.507812 483.820312 439.320312 482.96875 442.578125 482.269531 C 445.839844 481.570312 449.5625 480.421875 450.851562 479.722656 C 452.148438 479.019531 454.242188 478.261719 455.511719 478.03125 C 456.78125 477.804688 457.945312 477.261719 458.101562 476.820312 C 458.257812 476.382812 458.839844 476.023438 459.390625 476.023438 C 461.25 476.023438 475.148438 467.027344 480.390625 462.429688 C 486.535156 457.046875 486.398438 457.179688 491.265625 451.394531 C 493.363281 448.898438 495.742188 446.183594 496.558594 445.355469 C 497.375 444.527344 497.839844 443.847656 497.59375 443.847656 C 497.347656 443.847656 498.082031 442.230469 499.226562 440.25 C 505.339844 429.695312 508.4375 422.144531 509.574219 415.035156 C 509.882812 413.105469 510.589844 411.351562 511.148438 411.140625 C 512.625 410.570312 512.441406 374.929688 510.953125 373.441406 C 510.371094 372.859375 509.890625 371.410156 509.886719 370.222656 C 509.871094 366.5 505.21875 353.539062 502.273438 349.011719 C 501.816406 348.3125 500.628906 346.21875 499.632812 344.355469 C 494.925781 335.5625 493.539062 334.804688 489.933594 339.0625 " fill-opacity="1" fill-rule="evenodd"/><path fill="#04b4e6" d="M 636.03125 144.734375 L 631.402344 149.601562 L 636.273438 144.976562 C 638.949219 142.429688 641.140625 140.238281 641.140625 140.105469 C 641.140625 139.476562 640.332031 140.210938 636.03125 144.734375 M 612.988281 161.519531 C 609.820312 163.234375 610.015625 163.953125 613.199219 162.304688 C 614.597656 161.582031 615.738281 160.808594 615.738281 160.589844 C 615.738281 160.042969 615.648438 160.074219 612.988281 161.519531 M 592.03125 169.5 C 590.285156 170.058594 590.210938 170.191406 591.605469 170.25 C 592.539062 170.292969 593.871094 169.953125 594.570312 169.5 C 596.054688 168.542969 595.023438 168.542969 592.03125 169.5 M 482.175781 172.648438 C 483.464844 172.84375 485.367188 172.839844 486.410156 172.640625 C 487.449219 172.4375 486.398438 172.277344 484.070312 172.285156 C 481.742188 172.289062 480.886719 172.453125 482.175781 172.648438 M 342.875 173.484375 C 343.921875 173.6875 345.636719 173.6875 346.683594 173.484375 C 347.730469 173.285156 346.875 173.121094 344.777344 173.121094 C 342.683594 173.121094 341.824219 173.285156 342.875 173.484375 M 335.464844 174.621094 C 334.539062 175.25 334.878906 175.328125 336.734375 174.914062 C 339.847656 174.214844 340.523438 173.730469 338.359375 173.75 C 337.464844 173.753906 336.164062 174.148438 335.464844 174.621094 M 288.4375 200.195312 L 284.234375 204.640625 L 288.683594 200.441406 C 291.125 198.128906 293.128906 196.128906 293.128906 195.996094 C 293.128906 195.363281 292.339844 196.066406 288.4375 200.195312 M 282.4375 206.96875 C 279.9375 209.824219 278.476562 211.839844 278.910156 211.839844 C 279.121094 211.839844 280.519531 210.316406 282.019531 208.453125 C 284.925781 204.835938 285.21875 203.796875 282.4375 206.96875 M 261.164062 267.300781 C 261.171875 269.164062 261.347656 269.828125 261.550781 268.773438 C 261.753906 267.71875 261.746094 266.195312 261.53125 265.386719 C 261.320312 264.578125 261.152344 265.4375 261.164062 267.300781 M 262.742188 283.539062 C 262.617188 285.914062 264.789062 288.078125 267.152344 287.933594 L 268.996094 287.816406 L 267.152344 287.457031 C 265.035156 287.046875 263.851562 285.808594 263.257812 283.390625 C 262.867188 281.8125 262.835938 281.824219 262.742188 283.539062 M 272.609375 288.660156 C 274.128906 288.847656 276.417969 288.84375 277.6875 288.652344 C 278.960938 288.460938 277.714844 288.304688 274.921875 288.308594 C 272.128906 288.3125 271.085938 288.472656 272.609375 288.660156 M 476.660156 288.671875 C 479.570312 288.839844 484.332031 288.839844 487.246094 288.671875 C 490.15625 288.507812 487.773438 288.371094 481.953125 288.371094 C 476.132812 288.371094 473.75 288.507812 476.660156 288.671875 M 507.15625 288.660156 C 508.679688 288.847656 510.964844 288.84375 512.238281 288.652344 C 513.511719 288.460938 512.265625 288.304688 509.472656 288.308594 C 506.675781 288.3125 505.636719 288.472656 507.15625 288.660156 M 533.402344 288.644531 C 534.457031 288.847656 535.980469 288.839844 536.789062 288.628906 C 537.597656 288.417969 536.738281 288.25 534.875 288.261719 C 533.011719 288.269531 532.347656 288.441406 533.402344 288.644531 M 551.175781 288.644531 C 552.222656 288.847656 553.9375 288.847656 554.984375 288.644531 C 556.03125 288.441406 555.175781 288.277344 553.078125 288.277344 C 550.984375 288.277344 550.125 288.441406 551.175781 288.644531 M 489.203125 338.640625 C 487.375 340.980469 487.230469 341.371094 488.648438 340.128906 C 490.347656 338.648438 492.585938 335.464844 491.929688 335.464844 C 491.796875 335.464844 490.574219 336.894531 489.203125 338.640625 M 431.359375 369.070312 C 432.175781 369.285156 433.507812 369.285156 434.324219 369.070312 C 435.136719 368.859375 434.472656 368.683594 432.839844 368.683594 C 431.210938 368.683594 430.542969 368.859375 431.359375 369.070312 M 310.695312 370.816406 C 329.90625 370.945312 361.34375 370.945312 380.554688 370.816406 C 399.765625 370.6875 384.046875 370.585938 345.625 370.585938 C 307.203125 370.585938 291.488281 370.6875 310.695312 370.816406 M 512.632812 388.808594 C 512.632812 390.441406 512.804688 391.105469 513.019531 390.292969 C 513.230469 389.476562 513.230469 388.144531 513.019531 387.328125 C 512.804688 386.511719 512.632812 387.179688 512.632812 388.808594 M 151.28125 427.972656 L 141.980469 437.496094 L 151.507812 428.199219 C 160.355469 419.558594 161.417969 418.445312 160.808594 418.445312 C 160.683594 418.445312 156.394531 422.734375 151.28125 427.972656 M 131.398438 450.621094 C 130.402344 452.019531 129.78125 453.164062 130.011719 453.164062 C 130.246094 453.164062 131.25 452.019531 132.246094 450.621094 C 133.238281 449.226562 133.863281 448.082031 133.628906 448.082031 C 133.394531 448.082031 132.394531 449.226562 131.398438 450.621094 M 299.703125 485.953125 C 301.226562 486.140625 303.511719 486.136719 304.785156 485.945312 C 306.058594 485.753906 304.8125 485.597656 302.019531 485.601562 C 299.222656 485.605469 298.183594 485.765625 299.703125 485.953125 M 326.410156 485.972656 C 332.375 486.117188 341.902344 486.117188 347.578125 485.972656 C 353.257812 485.828125 348.378906 485.707031 336.734375 485.707031 C 325.09375 485.707031 320.445312 485.828125 326.410156 485.972656 M 380.957031 485.949219 C 382.460938 486.136719 385.128906 486.140625 386.886719 485.957031 C 388.644531 485.773438 387.414062 485.621094 384.152344 485.617188 C 380.894531 485.613281 379.457031 485.761719 380.957031 485.949219 M 94.394531 558.160156 C 94.394531 560.722656 94.554688 561.769531 94.75 560.488281 C 94.941406 559.207031 94.941406 557.113281 94.75 555.832031 C 94.554688 554.550781 94.394531 555.597656 94.394531 558.160156 M 94.402344 569.589844 C 94.40625 572.386719 94.566406 573.425781 94.753906 571.90625 C 94.941406 570.382812 94.9375 568.097656 94.746094 566.824219 C 94.554688 565.550781 94.398438 566.796875 94.402344 569.589844 M 100.941406 615.367188 C 100.867188 617.96875 103.007812 619.191406 104.226562 617.234375 C 105.300781 615.507812 105.285156 615.425781 104.082031 616.421875 C 102.960938 617.347656 102.601562 617.28125 101.855469 615.996094 C 101.367188 615.15625 100.957031 614.875 100.941406 615.367188 " fill-opacity="1" fill-rule="evenodd"/></svg>