<?xml version="1.0" standalone="no"?>
<!DOCTYPE svg PUBLIC "-//W3C//DTD SVG 20010904//EN"
 "http://www.w3.org/TR/2001/REC-SVG-20010904/DTD/svg10.dtd">
<svg version="1.0" xmlns="http://www.w3.org/2000/svg"
 width="700.000000pt" height="700.000000pt" viewBox="0 0 700.000000 700.000000"
 preserveAspectRatio="xMidYMid meet">
<metadata>
Created by potrace 1.14, written by Peter Selinger 2001-2017
</metadata>
<g transform="translate(0.000000,700.000000) scale(0.100000,-0.100000)"
fill="#000000" stroke="none">
<path d="M5985 5688 c-11 -7 -38 -31 -60 -54 -53 -55 -162 -134 -186 -134 -10
0 -19 -4 -19 -9 0 -13 -163 -78 -184 -73 -4 2 -14 -2 -20 -8 -21 -17 -138 -20
-912 -25 -408 -3 -748 -7 -757 -11 -8 -3 -18 0 -22 5 -3 6 -11 8 -17 5 -19
-12 -402 -11 -417 0 -11 8 -13 8 -7 -1 4 -7 2 -13 -3 -13 -6 0 -11 6 -11 13 0
7 -3 8 -8 2 -9 -14 -125 -14 -134 0 -5 6 -8 5 -8 -4 0 -10 -9 -12 -37 -8 -20
4 -42 3 -47 -2 -6 -4 -39 -16 -74 -25 -81 -22 -189 -74 -244 -117 -24 -19 -49
-38 -56 -44 -7 -5 -21 -18 -29 -27 -9 -9 -21 -14 -27 -11 -6 3 -8 3 -4 -2 4
-4 -14 -28 -40 -53 -26 -25 -40 -42 -32 -36 10 5 9 2 -2 -8 -10 -9 -18 -19
-18 -23 0 -4 -9 -19 -19 -34 -67 -94 -139 -292 -137 -378 1 -28 -3 -49 -7 -46
-4 3 -7 -22 -6 -56 1 -33 6 -58 10 -55 5 3 8 -21 8 -53 -1 -80 0 -85 11 -78 5
3 10 0 10 -7 0 -8 3 -9 8 -3 6 9 30 11 57 5 6 -1 15 -1 20 0 6 1 42 1 80 0 39
-1 460 -3 936 -5 477 -1 872 -6 879 -10 9 -5 11 -4 6 3 -4 7 -1 12 9 12 9 0
14 -4 11 -8 -3 -5 1 -9 9 -9 8 0 12 4 9 8 -2 4 54 7 125 6 71 -1 127 -5 124
-9 -2 -5 1 -8 6 -8 6 0 11 5 11 11 0 5 4 8 8 5 13 -8 82 -8 347 -1 335 9 435
18 435 38 0 6 2 8 6 5 12 -13 140 44 227 100 125 82 212 179 296 334 27 49 79
173 79 188 0 6 14 139 16 155 1 6 5 15 9 21 3 6 4 14 1 17 -4 3 -8 34 -10 69
-8 136 -51 268 -131 401 -37 62 -38 62 -68 45z m-3528 -1210 c-3 -8 -6 -5 -6
6 -1 11 2 17 5 13 3 -3 4 -12 1 -19z"/>
<path d="M4574 3845 c-10 -8 -15 -15 -11 -15 4 0 -16 -21 -45 -47 -29 -25 -55
-49 -58 -52 -18 -22 -124 -82 -210 -119 -49 -22 -157 -52 -205 -58 -39 -5
-412 -12 -1035 -19 -548 -7 -555 -8 -656 -29 -426 -91 -780 -301 -1045 -621
-34 -41 -66 -75 -71 -75 -5 0 -6 -4 -3 -10 3 -5 3 -10 -2 -10 -4 0 -20 -21
-35 -48 -15 -26 -36 -57 -47 -69 -12 -12 -21 -25 -21 -28 0 -4 -20 -48 -44
-98 -75 -157 -84 -180 -120 -303 -31 -105 -52 -207 -71 -339 -7 -53 -8 -205
-1 -275 3 -30 8 -86 12 -125 3 -38 15 -110 25 -158 10 -49 18 -93 16 -99 -4
-19 23 -20 29 -1 18 56 75 186 102 233 14 25 37 65 50 90 121 226 443 544 662
653 36 17 69 38 73 45 4 6 14 12 21 12 7 0 30 9 52 19 85 41 153 69 185 76 19
4 66 18 105 31 39 13 91 26 115 28 24 3 60 9 79 13 48 12 211 16 717 17 281 1
433 5 433 11 0 6 5 3 10 -5 5 -8 10 -10 10 -4 0 6 18 9 48 7 26 -2 52 -4 57
-4 6 1 89 3 185 6 251 7 351 36 520 148 118 79 226 197 281 309 43 86 87 209
96 268 6 39 4 230 -2 285 -14 119 -133 375 -174 375 -4 0 -16 -7 -27 -15z"/>
</g>
</svg>
